G04 #@! TF.GenerationSoftware,KiCad,Pcbnew,5.1.4-3.fc30*
G04 #@! TF.CreationDate,2019-11-27T18:44:14-08:00*
G04 #@! TF.ProjectId,DASH,44415348-2e6b-4696-9361-645f70636258,rev?*
G04 #@! TF.SameCoordinates,Original*
G04 #@! TF.FileFunction,Legend,Top*
G04 #@! TF.FilePolarity,Positive*
%FSLAX46Y46*%
G04 Gerber Fmt 4.6, Leading zero omitted, Abs format (unit mm)*
G04 Created by KiCad (PCBNEW 5.1.4-3.fc30) date 2019-11-27 18:44:14*
%MOMM*%
%LPD*%
G04 APERTURE LIST*
%ADD10C,0.150000*%
%ADD11C,0.120000*%
G04 APERTURE END LIST*
D10*
X159321523Y-72842380D02*
X158750095Y-72842380D01*
X159035809Y-72842380D02*
X159035809Y-71842380D01*
X158940571Y-71985238D01*
X158845333Y-72080476D01*
X158750095Y-72128095D01*
X159702476Y-71937619D02*
X159750095Y-71890000D01*
X159845333Y-71842380D01*
X160083428Y-71842380D01*
X160178666Y-71890000D01*
X160226285Y-71937619D01*
X160273904Y-72032857D01*
X160273904Y-72128095D01*
X160226285Y-72270952D01*
X159654857Y-72842380D01*
X160273904Y-72842380D01*
X159321523Y-75382380D02*
X158750095Y-75382380D01*
X159035809Y-75382380D02*
X159035809Y-74382380D01*
X158940571Y-74525238D01*
X158845333Y-74620476D01*
X158750095Y-74668095D01*
X160273904Y-75382380D02*
X159702476Y-75382380D01*
X159988190Y-75382380D02*
X159988190Y-74382380D01*
X159892952Y-74525238D01*
X159797714Y-74620476D01*
X159702476Y-74668095D01*
X159321523Y-77922380D02*
X158750095Y-77922380D01*
X159035809Y-77922380D02*
X159035809Y-76922380D01*
X158940571Y-77065238D01*
X158845333Y-77160476D01*
X158750095Y-77208095D01*
X159940571Y-76922380D02*
X160035809Y-76922380D01*
X160131047Y-76970000D01*
X160178666Y-77017619D01*
X160226285Y-77112857D01*
X160273904Y-77303333D01*
X160273904Y-77541428D01*
X160226285Y-77731904D01*
X160178666Y-77827142D01*
X160131047Y-77874761D01*
X160035809Y-77922380D01*
X159940571Y-77922380D01*
X159845333Y-77874761D01*
X159797714Y-77827142D01*
X159750095Y-77731904D01*
X159702476Y-77541428D01*
X159702476Y-77303333D01*
X159750095Y-77112857D01*
X159797714Y-77017619D01*
X159845333Y-76970000D01*
X159940571Y-76922380D01*
X158988190Y-79462380D02*
X159083428Y-79462380D01*
X159178666Y-79510000D01*
X159226285Y-79557619D01*
X159273904Y-79652857D01*
X159321523Y-79843333D01*
X159321523Y-80081428D01*
X159273904Y-80271904D01*
X159226285Y-80367142D01*
X159178666Y-80414761D01*
X159083428Y-80462380D01*
X158988190Y-80462380D01*
X158892952Y-80414761D01*
X158845333Y-80367142D01*
X158797714Y-80271904D01*
X158750095Y-80081428D01*
X158750095Y-79843333D01*
X158797714Y-79652857D01*
X158845333Y-79557619D01*
X158892952Y-79510000D01*
X158988190Y-79462380D01*
X159797714Y-80462380D02*
X159988190Y-80462380D01*
X160083428Y-80414761D01*
X160131047Y-80367142D01*
X160226285Y-80224285D01*
X160273904Y-80033809D01*
X160273904Y-79652857D01*
X160226285Y-79557619D01*
X160178666Y-79510000D01*
X160083428Y-79462380D01*
X159892952Y-79462380D01*
X159797714Y-79510000D01*
X159750095Y-79557619D01*
X159702476Y-79652857D01*
X159702476Y-79890952D01*
X159750095Y-79986190D01*
X159797714Y-80033809D01*
X159892952Y-80081428D01*
X160083428Y-80081428D01*
X160178666Y-80033809D01*
X160226285Y-79986190D01*
X160273904Y-79890952D01*
X158988190Y-81748380D02*
X159083428Y-81748380D01*
X159178666Y-81796000D01*
X159226285Y-81843619D01*
X159273904Y-81938857D01*
X159321523Y-82129333D01*
X159321523Y-82367428D01*
X159273904Y-82557904D01*
X159226285Y-82653142D01*
X159178666Y-82700761D01*
X159083428Y-82748380D01*
X158988190Y-82748380D01*
X158892952Y-82700761D01*
X158845333Y-82653142D01*
X158797714Y-82557904D01*
X158750095Y-82367428D01*
X158750095Y-82129333D01*
X158797714Y-81938857D01*
X158845333Y-81843619D01*
X158892952Y-81796000D01*
X158988190Y-81748380D01*
X159892952Y-82176952D02*
X159797714Y-82129333D01*
X159750095Y-82081714D01*
X159702476Y-81986476D01*
X159702476Y-81938857D01*
X159750095Y-81843619D01*
X159797714Y-81796000D01*
X159892952Y-81748380D01*
X160083428Y-81748380D01*
X160178666Y-81796000D01*
X160226285Y-81843619D01*
X160273904Y-81938857D01*
X160273904Y-81986476D01*
X160226285Y-82081714D01*
X160178666Y-82129333D01*
X160083428Y-82176952D01*
X159892952Y-82176952D01*
X159797714Y-82224571D01*
X159750095Y-82272190D01*
X159702476Y-82367428D01*
X159702476Y-82557904D01*
X159750095Y-82653142D01*
X159797714Y-82700761D01*
X159892952Y-82748380D01*
X160083428Y-82748380D01*
X160178666Y-82700761D01*
X160226285Y-82653142D01*
X160273904Y-82557904D01*
X160273904Y-82367428D01*
X160226285Y-82272190D01*
X160178666Y-82224571D01*
X160083428Y-82176952D01*
X158988190Y-84288380D02*
X159083428Y-84288380D01*
X159178666Y-84336000D01*
X159226285Y-84383619D01*
X159273904Y-84478857D01*
X159321523Y-84669333D01*
X159321523Y-84907428D01*
X159273904Y-85097904D01*
X159226285Y-85193142D01*
X159178666Y-85240761D01*
X159083428Y-85288380D01*
X158988190Y-85288380D01*
X158892952Y-85240761D01*
X158845333Y-85193142D01*
X158797714Y-85097904D01*
X158750095Y-84907428D01*
X158750095Y-84669333D01*
X158797714Y-84478857D01*
X158845333Y-84383619D01*
X158892952Y-84336000D01*
X158988190Y-84288380D01*
X159654857Y-84288380D02*
X160321523Y-84288380D01*
X159892952Y-85288380D01*
X158988190Y-86828380D02*
X159083428Y-86828380D01*
X159178666Y-86876000D01*
X159226285Y-86923619D01*
X159273904Y-87018857D01*
X159321523Y-87209333D01*
X159321523Y-87447428D01*
X159273904Y-87637904D01*
X159226285Y-87733142D01*
X159178666Y-87780761D01*
X159083428Y-87828380D01*
X158988190Y-87828380D01*
X158892952Y-87780761D01*
X158845333Y-87733142D01*
X158797714Y-87637904D01*
X158750095Y-87447428D01*
X158750095Y-87209333D01*
X158797714Y-87018857D01*
X158845333Y-86923619D01*
X158892952Y-86876000D01*
X158988190Y-86828380D01*
X160178666Y-86828380D02*
X159988190Y-86828380D01*
X159892952Y-86876000D01*
X159845333Y-86923619D01*
X159750095Y-87066476D01*
X159702476Y-87256952D01*
X159702476Y-87637904D01*
X159750095Y-87733142D01*
X159797714Y-87780761D01*
X159892952Y-87828380D01*
X160083428Y-87828380D01*
X160178666Y-87780761D01*
X160226285Y-87733142D01*
X160273904Y-87637904D01*
X160273904Y-87399809D01*
X160226285Y-87304571D01*
X160178666Y-87256952D01*
X160083428Y-87209333D01*
X159892952Y-87209333D01*
X159797714Y-87256952D01*
X159750095Y-87304571D01*
X159702476Y-87399809D01*
X158988190Y-89368380D02*
X159083428Y-89368380D01*
X159178666Y-89416000D01*
X159226285Y-89463619D01*
X159273904Y-89558857D01*
X159321523Y-89749333D01*
X159321523Y-89987428D01*
X159273904Y-90177904D01*
X159226285Y-90273142D01*
X159178666Y-90320761D01*
X159083428Y-90368380D01*
X158988190Y-90368380D01*
X158892952Y-90320761D01*
X158845333Y-90273142D01*
X158797714Y-90177904D01*
X158750095Y-89987428D01*
X158750095Y-89749333D01*
X158797714Y-89558857D01*
X158845333Y-89463619D01*
X158892952Y-89416000D01*
X158988190Y-89368380D01*
X160226285Y-89368380D02*
X159750095Y-89368380D01*
X159702476Y-89844571D01*
X159750095Y-89796952D01*
X159845333Y-89749333D01*
X160083428Y-89749333D01*
X160178666Y-89796952D01*
X160226285Y-89844571D01*
X160273904Y-89939809D01*
X160273904Y-90177904D01*
X160226285Y-90273142D01*
X160178666Y-90320761D01*
X160083428Y-90368380D01*
X159845333Y-90368380D01*
X159750095Y-90320761D01*
X159702476Y-90273142D01*
X158988190Y-94448380D02*
X159083428Y-94448380D01*
X159178666Y-94496000D01*
X159226285Y-94543619D01*
X159273904Y-94638857D01*
X159321523Y-94829333D01*
X159321523Y-95067428D01*
X159273904Y-95257904D01*
X159226285Y-95353142D01*
X159178666Y-95400761D01*
X159083428Y-95448380D01*
X158988190Y-95448380D01*
X158892952Y-95400761D01*
X158845333Y-95353142D01*
X158797714Y-95257904D01*
X158750095Y-95067428D01*
X158750095Y-94829333D01*
X158797714Y-94638857D01*
X158845333Y-94543619D01*
X158892952Y-94496000D01*
X158988190Y-94448380D01*
X159654857Y-94448380D02*
X160273904Y-94448380D01*
X159940571Y-94829333D01*
X160083428Y-94829333D01*
X160178666Y-94876952D01*
X160226285Y-94924571D01*
X160273904Y-95019809D01*
X160273904Y-95257904D01*
X160226285Y-95353142D01*
X160178666Y-95400761D01*
X160083428Y-95448380D01*
X159797714Y-95448380D01*
X159702476Y-95400761D01*
X159654857Y-95353142D01*
X158988190Y-91908380D02*
X159083428Y-91908380D01*
X159178666Y-91956000D01*
X159226285Y-92003619D01*
X159273904Y-92098857D01*
X159321523Y-92289333D01*
X159321523Y-92527428D01*
X159273904Y-92717904D01*
X159226285Y-92813142D01*
X159178666Y-92860761D01*
X159083428Y-92908380D01*
X158988190Y-92908380D01*
X158892952Y-92860761D01*
X158845333Y-92813142D01*
X158797714Y-92717904D01*
X158750095Y-92527428D01*
X158750095Y-92289333D01*
X158797714Y-92098857D01*
X158845333Y-92003619D01*
X158892952Y-91956000D01*
X158988190Y-91908380D01*
X160178666Y-92241714D02*
X160178666Y-92908380D01*
X159940571Y-91860761D02*
X159702476Y-92575047D01*
X160321523Y-92575047D01*
X158861190Y-96607380D02*
X158956428Y-96607380D01*
X159051666Y-96655000D01*
X159099285Y-96702619D01*
X159146904Y-96797857D01*
X159194523Y-96988333D01*
X159194523Y-97226428D01*
X159146904Y-97416904D01*
X159099285Y-97512142D01*
X159051666Y-97559761D01*
X158956428Y-97607380D01*
X158861190Y-97607380D01*
X158765952Y-97559761D01*
X158718333Y-97512142D01*
X158670714Y-97416904D01*
X158623095Y-97226428D01*
X158623095Y-96988333D01*
X158670714Y-96797857D01*
X158718333Y-96702619D01*
X158765952Y-96655000D01*
X158861190Y-96607380D01*
X159575476Y-96702619D02*
X159623095Y-96655000D01*
X159718333Y-96607380D01*
X159956428Y-96607380D01*
X160051666Y-96655000D01*
X160099285Y-96702619D01*
X160146904Y-96797857D01*
X160146904Y-96893095D01*
X160099285Y-97035952D01*
X159527857Y-97607380D01*
X160146904Y-97607380D01*
X158861190Y-99147380D02*
X158956428Y-99147380D01*
X159051666Y-99195000D01*
X159099285Y-99242619D01*
X159146904Y-99337857D01*
X159194523Y-99528333D01*
X159194523Y-99766428D01*
X159146904Y-99956904D01*
X159099285Y-100052142D01*
X159051666Y-100099761D01*
X158956428Y-100147380D01*
X158861190Y-100147380D01*
X158765952Y-100099761D01*
X158718333Y-100052142D01*
X158670714Y-99956904D01*
X158623095Y-99766428D01*
X158623095Y-99528333D01*
X158670714Y-99337857D01*
X158718333Y-99242619D01*
X158765952Y-99195000D01*
X158861190Y-99147380D01*
X160146904Y-100147380D02*
X159575476Y-100147380D01*
X159861190Y-100147380D02*
X159861190Y-99147380D01*
X159765952Y-99290238D01*
X159670714Y-99385476D01*
X159575476Y-99433095D01*
X88138095Y-71255000D02*
X88042857Y-71207380D01*
X87900000Y-71207380D01*
X87757142Y-71255000D01*
X87661904Y-71350238D01*
X87614285Y-71445476D01*
X87566666Y-71635952D01*
X87566666Y-71778809D01*
X87614285Y-71969285D01*
X87661904Y-72064523D01*
X87757142Y-72159761D01*
X87900000Y-72207380D01*
X87995238Y-72207380D01*
X88138095Y-72159761D01*
X88185714Y-72112142D01*
X88185714Y-71778809D01*
X87995238Y-71778809D01*
X88614285Y-72207380D02*
X88614285Y-71207380D01*
X89185714Y-72207380D01*
X89185714Y-71207380D01*
X89661904Y-72207380D02*
X89661904Y-71207380D01*
X89900000Y-71207380D01*
X90042857Y-71255000D01*
X90138095Y-71350238D01*
X90185714Y-71445476D01*
X90233333Y-71635952D01*
X90233333Y-71778809D01*
X90185714Y-71969285D01*
X90138095Y-72064523D01*
X90042857Y-72159761D01*
X89900000Y-72207380D01*
X89661904Y-72207380D01*
X88709523Y-74747380D02*
X88138095Y-74747380D01*
X88423809Y-74747380D02*
X88423809Y-73747380D01*
X88328571Y-73890238D01*
X88233333Y-73985476D01*
X88138095Y-74033095D01*
X89090476Y-73842619D02*
X89138095Y-73795000D01*
X89233333Y-73747380D01*
X89471428Y-73747380D01*
X89566666Y-73795000D01*
X89614285Y-73842619D01*
X89661904Y-73937857D01*
X89661904Y-74033095D01*
X89614285Y-74175952D01*
X89042857Y-74747380D01*
X89661904Y-74747380D01*
X88709523Y-77287380D02*
X88138095Y-77287380D01*
X88423809Y-77287380D02*
X88423809Y-76287380D01*
X88328571Y-76430238D01*
X88233333Y-76525476D01*
X88138095Y-76573095D01*
X89661904Y-77287380D02*
X89090476Y-77287380D01*
X89376190Y-77287380D02*
X89376190Y-76287380D01*
X89280952Y-76430238D01*
X89185714Y-76525476D01*
X89090476Y-76573095D01*
X88709523Y-79827380D02*
X88138095Y-79827380D01*
X88423809Y-79827380D02*
X88423809Y-78827380D01*
X88328571Y-78970238D01*
X88233333Y-79065476D01*
X88138095Y-79113095D01*
X89328571Y-78827380D02*
X89423809Y-78827380D01*
X89519047Y-78875000D01*
X89566666Y-78922619D01*
X89614285Y-79017857D01*
X89661904Y-79208333D01*
X89661904Y-79446428D01*
X89614285Y-79636904D01*
X89566666Y-79732142D01*
X89519047Y-79779761D01*
X89423809Y-79827380D01*
X89328571Y-79827380D01*
X89233333Y-79779761D01*
X89185714Y-79732142D01*
X89138095Y-79636904D01*
X89090476Y-79446428D01*
X89090476Y-79208333D01*
X89138095Y-79017857D01*
X89185714Y-78922619D01*
X89233333Y-78875000D01*
X89328571Y-78827380D01*
X88376190Y-81367380D02*
X88471428Y-81367380D01*
X88566666Y-81415000D01*
X88614285Y-81462619D01*
X88661904Y-81557857D01*
X88709523Y-81748333D01*
X88709523Y-81986428D01*
X88661904Y-82176904D01*
X88614285Y-82272142D01*
X88566666Y-82319761D01*
X88471428Y-82367380D01*
X88376190Y-82367380D01*
X88280952Y-82319761D01*
X88233333Y-82272142D01*
X88185714Y-82176904D01*
X88138095Y-81986428D01*
X88138095Y-81748333D01*
X88185714Y-81557857D01*
X88233333Y-81462619D01*
X88280952Y-81415000D01*
X88376190Y-81367380D01*
X89185714Y-82367380D02*
X89376190Y-82367380D01*
X89471428Y-82319761D01*
X89519047Y-82272142D01*
X89614285Y-82129285D01*
X89661904Y-81938809D01*
X89661904Y-81557857D01*
X89614285Y-81462619D01*
X89566666Y-81415000D01*
X89471428Y-81367380D01*
X89280952Y-81367380D01*
X89185714Y-81415000D01*
X89138095Y-81462619D01*
X89090476Y-81557857D01*
X89090476Y-81795952D01*
X89138095Y-81891190D01*
X89185714Y-81938809D01*
X89280952Y-81986428D01*
X89471428Y-81986428D01*
X89566666Y-81938809D01*
X89614285Y-81891190D01*
X89661904Y-81795952D01*
X88376190Y-83907380D02*
X88471428Y-83907380D01*
X88566666Y-83955000D01*
X88614285Y-84002619D01*
X88661904Y-84097857D01*
X88709523Y-84288333D01*
X88709523Y-84526428D01*
X88661904Y-84716904D01*
X88614285Y-84812142D01*
X88566666Y-84859761D01*
X88471428Y-84907380D01*
X88376190Y-84907380D01*
X88280952Y-84859761D01*
X88233333Y-84812142D01*
X88185714Y-84716904D01*
X88138095Y-84526428D01*
X88138095Y-84288333D01*
X88185714Y-84097857D01*
X88233333Y-84002619D01*
X88280952Y-83955000D01*
X88376190Y-83907380D01*
X89280952Y-84335952D02*
X89185714Y-84288333D01*
X89138095Y-84240714D01*
X89090476Y-84145476D01*
X89090476Y-84097857D01*
X89138095Y-84002619D01*
X89185714Y-83955000D01*
X89280952Y-83907380D01*
X89471428Y-83907380D01*
X89566666Y-83955000D01*
X89614285Y-84002619D01*
X89661904Y-84097857D01*
X89661904Y-84145476D01*
X89614285Y-84240714D01*
X89566666Y-84288333D01*
X89471428Y-84335952D01*
X89280952Y-84335952D01*
X89185714Y-84383571D01*
X89138095Y-84431190D01*
X89090476Y-84526428D01*
X89090476Y-84716904D01*
X89138095Y-84812142D01*
X89185714Y-84859761D01*
X89280952Y-84907380D01*
X89471428Y-84907380D01*
X89566666Y-84859761D01*
X89614285Y-84812142D01*
X89661904Y-84716904D01*
X89661904Y-84526428D01*
X89614285Y-84431190D01*
X89566666Y-84383571D01*
X89471428Y-84335952D01*
X88376190Y-86447380D02*
X88471428Y-86447380D01*
X88566666Y-86495000D01*
X88614285Y-86542619D01*
X88661904Y-86637857D01*
X88709523Y-86828333D01*
X88709523Y-87066428D01*
X88661904Y-87256904D01*
X88614285Y-87352142D01*
X88566666Y-87399761D01*
X88471428Y-87447380D01*
X88376190Y-87447380D01*
X88280952Y-87399761D01*
X88233333Y-87352142D01*
X88185714Y-87256904D01*
X88138095Y-87066428D01*
X88138095Y-86828333D01*
X88185714Y-86637857D01*
X88233333Y-86542619D01*
X88280952Y-86495000D01*
X88376190Y-86447380D01*
X89042857Y-86447380D02*
X89709523Y-86447380D01*
X89280952Y-87447380D01*
X88376190Y-88352380D02*
X88471428Y-88352380D01*
X88566666Y-88400000D01*
X88614285Y-88447619D01*
X88661904Y-88542857D01*
X88709523Y-88733333D01*
X88709523Y-88971428D01*
X88661904Y-89161904D01*
X88614285Y-89257142D01*
X88566666Y-89304761D01*
X88471428Y-89352380D01*
X88376190Y-89352380D01*
X88280952Y-89304761D01*
X88233333Y-89257142D01*
X88185714Y-89161904D01*
X88138095Y-88971428D01*
X88138095Y-88733333D01*
X88185714Y-88542857D01*
X88233333Y-88447619D01*
X88280952Y-88400000D01*
X88376190Y-88352380D01*
X89566666Y-88352380D02*
X89376190Y-88352380D01*
X89280952Y-88400000D01*
X89233333Y-88447619D01*
X89138095Y-88590476D01*
X89090476Y-88780952D01*
X89090476Y-89161904D01*
X89138095Y-89257142D01*
X89185714Y-89304761D01*
X89280952Y-89352380D01*
X89471428Y-89352380D01*
X89566666Y-89304761D01*
X89614285Y-89257142D01*
X89661904Y-89161904D01*
X89661904Y-88923809D01*
X89614285Y-88828571D01*
X89566666Y-88780952D01*
X89471428Y-88733333D01*
X89280952Y-88733333D01*
X89185714Y-88780952D01*
X89138095Y-88828571D01*
X89090476Y-88923809D01*
X88376190Y-90892380D02*
X88471428Y-90892380D01*
X88566666Y-90940000D01*
X88614285Y-90987619D01*
X88661904Y-91082857D01*
X88709523Y-91273333D01*
X88709523Y-91511428D01*
X88661904Y-91701904D01*
X88614285Y-91797142D01*
X88566666Y-91844761D01*
X88471428Y-91892380D01*
X88376190Y-91892380D01*
X88280952Y-91844761D01*
X88233333Y-91797142D01*
X88185714Y-91701904D01*
X88138095Y-91511428D01*
X88138095Y-91273333D01*
X88185714Y-91082857D01*
X88233333Y-90987619D01*
X88280952Y-90940000D01*
X88376190Y-90892380D01*
X89614285Y-90892380D02*
X89138095Y-90892380D01*
X89090476Y-91368571D01*
X89138095Y-91320952D01*
X89233333Y-91273333D01*
X89471428Y-91273333D01*
X89566666Y-91320952D01*
X89614285Y-91368571D01*
X89661904Y-91463809D01*
X89661904Y-91701904D01*
X89614285Y-91797142D01*
X89566666Y-91844761D01*
X89471428Y-91892380D01*
X89233333Y-91892380D01*
X89138095Y-91844761D01*
X89090476Y-91797142D01*
X88376190Y-93432380D02*
X88471428Y-93432380D01*
X88566666Y-93480000D01*
X88614285Y-93527619D01*
X88661904Y-93622857D01*
X88709523Y-93813333D01*
X88709523Y-94051428D01*
X88661904Y-94241904D01*
X88614285Y-94337142D01*
X88566666Y-94384761D01*
X88471428Y-94432380D01*
X88376190Y-94432380D01*
X88280952Y-94384761D01*
X88233333Y-94337142D01*
X88185714Y-94241904D01*
X88138095Y-94051428D01*
X88138095Y-93813333D01*
X88185714Y-93622857D01*
X88233333Y-93527619D01*
X88280952Y-93480000D01*
X88376190Y-93432380D01*
X89566666Y-93765714D02*
X89566666Y-94432380D01*
X89328571Y-93384761D02*
X89090476Y-94099047D01*
X89709523Y-94099047D01*
X88376190Y-95972380D02*
X88471428Y-95972380D01*
X88566666Y-96020000D01*
X88614285Y-96067619D01*
X88661904Y-96162857D01*
X88709523Y-96353333D01*
X88709523Y-96591428D01*
X88661904Y-96781904D01*
X88614285Y-96877142D01*
X88566666Y-96924761D01*
X88471428Y-96972380D01*
X88376190Y-96972380D01*
X88280952Y-96924761D01*
X88233333Y-96877142D01*
X88185714Y-96781904D01*
X88138095Y-96591428D01*
X88138095Y-96353333D01*
X88185714Y-96162857D01*
X88233333Y-96067619D01*
X88280952Y-96020000D01*
X88376190Y-95972380D01*
X89042857Y-95972380D02*
X89661904Y-95972380D01*
X89328571Y-96353333D01*
X89471428Y-96353333D01*
X89566666Y-96400952D01*
X89614285Y-96448571D01*
X89661904Y-96543809D01*
X89661904Y-96781904D01*
X89614285Y-96877142D01*
X89566666Y-96924761D01*
X89471428Y-96972380D01*
X89185714Y-96972380D01*
X89090476Y-96924761D01*
X89042857Y-96877142D01*
X88376190Y-98512380D02*
X88471428Y-98512380D01*
X88566666Y-98560000D01*
X88614285Y-98607619D01*
X88661904Y-98702857D01*
X88709523Y-98893333D01*
X88709523Y-99131428D01*
X88661904Y-99321904D01*
X88614285Y-99417142D01*
X88566666Y-99464761D01*
X88471428Y-99512380D01*
X88376190Y-99512380D01*
X88280952Y-99464761D01*
X88233333Y-99417142D01*
X88185714Y-99321904D01*
X88138095Y-99131428D01*
X88138095Y-98893333D01*
X88185714Y-98702857D01*
X88233333Y-98607619D01*
X88280952Y-98560000D01*
X88376190Y-98512380D01*
X89090476Y-98607619D02*
X89138095Y-98560000D01*
X89233333Y-98512380D01*
X89471428Y-98512380D01*
X89566666Y-98560000D01*
X89614285Y-98607619D01*
X89661904Y-98702857D01*
X89661904Y-98798095D01*
X89614285Y-98940952D01*
X89042857Y-99512380D01*
X89661904Y-99512380D01*
X88376190Y-101052380D02*
X88471428Y-101052380D01*
X88566666Y-101100000D01*
X88614285Y-101147619D01*
X88661904Y-101242857D01*
X88709523Y-101433333D01*
X88709523Y-101671428D01*
X88661904Y-101861904D01*
X88614285Y-101957142D01*
X88566666Y-102004761D01*
X88471428Y-102052380D01*
X88376190Y-102052380D01*
X88280952Y-102004761D01*
X88233333Y-101957142D01*
X88185714Y-101861904D01*
X88138095Y-101671428D01*
X88138095Y-101433333D01*
X88185714Y-101242857D01*
X88233333Y-101147619D01*
X88280952Y-101100000D01*
X88376190Y-101052380D01*
X89661904Y-102052380D02*
X89090476Y-102052380D01*
X89376190Y-102052380D02*
X89376190Y-101052380D01*
X89280952Y-101195238D01*
X89185714Y-101290476D01*
X89090476Y-101338095D01*
X115507857Y-109037380D02*
X115507857Y-108037380D01*
X115745952Y-108037380D01*
X115888809Y-108085000D01*
X115984047Y-108180238D01*
X116031666Y-108275476D01*
X116079285Y-108465952D01*
X116079285Y-108608809D01*
X116031666Y-108799285D01*
X115984047Y-108894523D01*
X115888809Y-108989761D01*
X115745952Y-109037380D01*
X115507857Y-109037380D01*
X116888809Y-108989761D02*
X116793571Y-109037380D01*
X116603095Y-109037380D01*
X116507857Y-108989761D01*
X116460238Y-108894523D01*
X116460238Y-108513571D01*
X116507857Y-108418333D01*
X116603095Y-108370714D01*
X116793571Y-108370714D01*
X116888809Y-108418333D01*
X116936428Y-108513571D01*
X116936428Y-108608809D01*
X116460238Y-108704047D01*
X117317380Y-108989761D02*
X117412619Y-109037380D01*
X117603095Y-109037380D01*
X117698333Y-108989761D01*
X117745952Y-108894523D01*
X117745952Y-108846904D01*
X117698333Y-108751666D01*
X117603095Y-108704047D01*
X117460238Y-108704047D01*
X117365000Y-108656428D01*
X117317380Y-108561190D01*
X117317380Y-108513571D01*
X117365000Y-108418333D01*
X117460238Y-108370714D01*
X117603095Y-108370714D01*
X117698333Y-108418333D01*
X118174523Y-109037380D02*
X118174523Y-108370714D01*
X118174523Y-108037380D02*
X118126904Y-108085000D01*
X118174523Y-108132619D01*
X118222142Y-108085000D01*
X118174523Y-108037380D01*
X118174523Y-108132619D01*
X119079285Y-108370714D02*
X119079285Y-109180238D01*
X119031666Y-109275476D01*
X118984047Y-109323095D01*
X118888809Y-109370714D01*
X118745952Y-109370714D01*
X118650714Y-109323095D01*
X119079285Y-108989761D02*
X118984047Y-109037380D01*
X118793571Y-109037380D01*
X118698333Y-108989761D01*
X118650714Y-108942142D01*
X118603095Y-108846904D01*
X118603095Y-108561190D01*
X118650714Y-108465952D01*
X118698333Y-108418333D01*
X118793571Y-108370714D01*
X118984047Y-108370714D01*
X119079285Y-108418333D01*
X119555476Y-108370714D02*
X119555476Y-109037380D01*
X119555476Y-108465952D02*
X119603095Y-108418333D01*
X119698333Y-108370714D01*
X119841190Y-108370714D01*
X119936428Y-108418333D01*
X119984047Y-108513571D01*
X119984047Y-109037380D01*
X120841190Y-108989761D02*
X120745952Y-109037380D01*
X120555476Y-109037380D01*
X120460238Y-108989761D01*
X120412619Y-108894523D01*
X120412619Y-108513571D01*
X120460238Y-108418333D01*
X120555476Y-108370714D01*
X120745952Y-108370714D01*
X120841190Y-108418333D01*
X120888809Y-108513571D01*
X120888809Y-108608809D01*
X120412619Y-108704047D01*
X121745952Y-109037380D02*
X121745952Y-108037380D01*
X121745952Y-108989761D02*
X121650714Y-109037380D01*
X121460238Y-109037380D01*
X121365000Y-108989761D01*
X121317380Y-108942142D01*
X121269761Y-108846904D01*
X121269761Y-108561190D01*
X121317380Y-108465952D01*
X121365000Y-108418333D01*
X121460238Y-108370714D01*
X121650714Y-108370714D01*
X121745952Y-108418333D01*
X122984047Y-109037380D02*
X122984047Y-108037380D01*
X122984047Y-108418333D02*
X123079285Y-108370714D01*
X123269761Y-108370714D01*
X123365000Y-108418333D01*
X123412619Y-108465952D01*
X123460238Y-108561190D01*
X123460238Y-108846904D01*
X123412619Y-108942142D01*
X123365000Y-108989761D01*
X123269761Y-109037380D01*
X123079285Y-109037380D01*
X122984047Y-108989761D01*
X123793571Y-108370714D02*
X124031666Y-109037380D01*
X124269761Y-108370714D02*
X124031666Y-109037380D01*
X123936428Y-109275476D01*
X123888809Y-109323095D01*
X123793571Y-109370714D01*
X125317380Y-108037380D02*
X125555476Y-109037380D01*
X125745952Y-108323095D01*
X125936428Y-109037380D01*
X126174523Y-108037380D01*
X126984047Y-109037380D02*
X126984047Y-108513571D01*
X126936428Y-108418333D01*
X126841190Y-108370714D01*
X126650714Y-108370714D01*
X126555476Y-108418333D01*
X126984047Y-108989761D02*
X126888809Y-109037380D01*
X126650714Y-109037380D01*
X126555476Y-108989761D01*
X126507857Y-108894523D01*
X126507857Y-108799285D01*
X126555476Y-108704047D01*
X126650714Y-108656428D01*
X126888809Y-108656428D01*
X126984047Y-108608809D01*
X127603095Y-109037380D02*
X127507857Y-108989761D01*
X127460238Y-108894523D01*
X127460238Y-108037380D01*
X127984047Y-109037380D02*
X127984047Y-108037380D01*
X128079285Y-108656428D02*
X128365000Y-109037380D01*
X128365000Y-108370714D02*
X127984047Y-108751666D01*
X129174523Y-108989761D02*
X129079285Y-109037380D01*
X128888809Y-109037380D01*
X128793571Y-108989761D01*
X128745952Y-108894523D01*
X128745952Y-108513571D01*
X128793571Y-108418333D01*
X128888809Y-108370714D01*
X129079285Y-108370714D01*
X129174523Y-108418333D01*
X129222142Y-108513571D01*
X129222142Y-108608809D01*
X128745952Y-108704047D01*
X129650714Y-109037380D02*
X129650714Y-108370714D01*
X129650714Y-108561190D02*
X129698333Y-108465952D01*
X129745952Y-108418333D01*
X129841190Y-108370714D01*
X129936428Y-108370714D01*
X131031666Y-109037380D02*
X131031666Y-108037380D01*
X131269761Y-108037380D01*
X131412619Y-108085000D01*
X131507857Y-108180238D01*
X131555476Y-108275476D01*
X131603095Y-108465952D01*
X131603095Y-108608809D01*
X131555476Y-108799285D01*
X131507857Y-108894523D01*
X131412619Y-108989761D01*
X131269761Y-109037380D01*
X131031666Y-109037380D01*
X132460238Y-109037380D02*
X132460238Y-108513571D01*
X132412619Y-108418333D01*
X132317380Y-108370714D01*
X132126904Y-108370714D01*
X132031666Y-108418333D01*
X132460238Y-108989761D02*
X132365000Y-109037380D01*
X132126904Y-109037380D01*
X132031666Y-108989761D01*
X131984047Y-108894523D01*
X131984047Y-108799285D01*
X132031666Y-108704047D01*
X132126904Y-108656428D01*
X132365000Y-108656428D01*
X132460238Y-108608809D01*
X132841190Y-108370714D02*
X133079285Y-109037380D01*
X133317380Y-108370714D01*
X133698333Y-109037380D02*
X133698333Y-108370714D01*
X133698333Y-108037380D02*
X133650714Y-108085000D01*
X133698333Y-108132619D01*
X133745952Y-108085000D01*
X133698333Y-108037380D01*
X133698333Y-108132619D01*
X134603095Y-109037380D02*
X134603095Y-108037380D01*
X134603095Y-108989761D02*
X134507857Y-109037380D01*
X134317380Y-109037380D01*
X134222142Y-108989761D01*
X134174523Y-108942142D01*
X134126904Y-108846904D01*
X134126904Y-108561190D01*
X134174523Y-108465952D01*
X134222142Y-108418333D01*
X134317380Y-108370714D01*
X134507857Y-108370714D01*
X134603095Y-108418333D01*
X135031666Y-108989761D02*
X135126904Y-109037380D01*
X135317380Y-109037380D01*
X135412619Y-108989761D01*
X135460238Y-108894523D01*
X135460238Y-108846904D01*
X135412619Y-108751666D01*
X135317380Y-108704047D01*
X135174523Y-108704047D01*
X135079285Y-108656428D01*
X135031666Y-108561190D01*
X135031666Y-108513571D01*
X135079285Y-108418333D01*
X135174523Y-108370714D01*
X135317380Y-108370714D01*
X135412619Y-108418333D01*
X136031666Y-109037380D02*
X135936428Y-108989761D01*
X135888809Y-108942142D01*
X135841190Y-108846904D01*
X135841190Y-108561190D01*
X135888809Y-108465952D01*
X135936428Y-108418333D01*
X136031666Y-108370714D01*
X136174523Y-108370714D01*
X136269761Y-108418333D01*
X136317380Y-108465952D01*
X136365000Y-108561190D01*
X136365000Y-108846904D01*
X136317380Y-108942142D01*
X136269761Y-108989761D01*
X136174523Y-109037380D01*
X136031666Y-109037380D01*
X136793571Y-108370714D02*
X136793571Y-109037380D01*
X136793571Y-108465952D02*
X136841190Y-108418333D01*
X136936428Y-108370714D01*
X137079285Y-108370714D01*
X137174523Y-108418333D01*
X137222142Y-108513571D01*
X137222142Y-109037380D01*
X109269761Y-107084761D02*
X109412619Y-107132380D01*
X109650714Y-107132380D01*
X109745952Y-107084761D01*
X109793571Y-107037142D01*
X109841190Y-106941904D01*
X109841190Y-106846666D01*
X109793571Y-106751428D01*
X109745952Y-106703809D01*
X109650714Y-106656190D01*
X109460238Y-106608571D01*
X109365000Y-106560952D01*
X109317380Y-106513333D01*
X109269761Y-106418095D01*
X109269761Y-106322857D01*
X109317380Y-106227619D01*
X109365000Y-106180000D01*
X109460238Y-106132380D01*
X109698333Y-106132380D01*
X109841190Y-106180000D01*
X110126904Y-106132380D02*
X110698333Y-106132380D01*
X110412619Y-107132380D02*
X110412619Y-106132380D01*
X110984047Y-106846666D02*
X111460238Y-106846666D01*
X110888809Y-107132380D02*
X111222142Y-106132380D01*
X111555476Y-107132380D01*
X112460238Y-107037142D02*
X112412619Y-107084761D01*
X112269761Y-107132380D01*
X112174523Y-107132380D01*
X112031666Y-107084761D01*
X111936428Y-106989523D01*
X111888809Y-106894285D01*
X111841190Y-106703809D01*
X111841190Y-106560952D01*
X111888809Y-106370476D01*
X111936428Y-106275238D01*
X112031666Y-106180000D01*
X112174523Y-106132380D01*
X112269761Y-106132380D01*
X112412619Y-106180000D01*
X112460238Y-106227619D01*
X113079285Y-106656190D02*
X113079285Y-107132380D01*
X112745952Y-106132380D02*
X113079285Y-106656190D01*
X113412619Y-106132380D01*
X114507857Y-107132380D02*
X114507857Y-106132380D01*
X114745952Y-106132380D01*
X114888809Y-106180000D01*
X114984047Y-106275238D01*
X115031666Y-106370476D01*
X115079285Y-106560952D01*
X115079285Y-106703809D01*
X115031666Y-106894285D01*
X114984047Y-106989523D01*
X114888809Y-107084761D01*
X114745952Y-107132380D01*
X114507857Y-107132380D01*
X115460238Y-106846666D02*
X115936428Y-106846666D01*
X115365000Y-107132380D02*
X115698333Y-106132380D01*
X116031666Y-107132380D01*
X116317380Y-107084761D02*
X116460238Y-107132380D01*
X116698333Y-107132380D01*
X116793571Y-107084761D01*
X116841190Y-107037142D01*
X116888809Y-106941904D01*
X116888809Y-106846666D01*
X116841190Y-106751428D01*
X116793571Y-106703809D01*
X116698333Y-106656190D01*
X116507857Y-106608571D01*
X116412619Y-106560952D01*
X116365000Y-106513333D01*
X116317380Y-106418095D01*
X116317380Y-106322857D01*
X116365000Y-106227619D01*
X116412619Y-106180000D01*
X116507857Y-106132380D01*
X116745952Y-106132380D01*
X116888809Y-106180000D01*
X117317380Y-107132380D02*
X117317380Y-106132380D01*
X117317380Y-106608571D02*
X117888809Y-106608571D01*
X117888809Y-107132380D02*
X117888809Y-106132380D01*
X118698333Y-106608571D02*
X118841190Y-106656190D01*
X118888809Y-106703809D01*
X118936428Y-106799047D01*
X118936428Y-106941904D01*
X118888809Y-107037142D01*
X118841190Y-107084761D01*
X118745952Y-107132380D01*
X118365000Y-107132380D01*
X118365000Y-106132380D01*
X118698333Y-106132380D01*
X118793571Y-106180000D01*
X118841190Y-106227619D01*
X118888809Y-106322857D01*
X118888809Y-106418095D01*
X118841190Y-106513333D01*
X118793571Y-106560952D01*
X118698333Y-106608571D01*
X118365000Y-106608571D01*
X119555476Y-106132380D02*
X119745952Y-106132380D01*
X119841190Y-106180000D01*
X119936428Y-106275238D01*
X119984047Y-106465714D01*
X119984047Y-106799047D01*
X119936428Y-106989523D01*
X119841190Y-107084761D01*
X119745952Y-107132380D01*
X119555476Y-107132380D01*
X119460238Y-107084761D01*
X119365000Y-106989523D01*
X119317380Y-106799047D01*
X119317380Y-106465714D01*
X119365000Y-106275238D01*
X119460238Y-106180000D01*
X119555476Y-106132380D01*
X120365000Y-106846666D02*
X120841190Y-106846666D01*
X120269761Y-107132380D02*
X120603095Y-106132380D01*
X120936428Y-107132380D01*
X121841190Y-107132380D02*
X121507857Y-106656190D01*
X121269761Y-107132380D02*
X121269761Y-106132380D01*
X121650714Y-106132380D01*
X121745952Y-106180000D01*
X121793571Y-106227619D01*
X121841190Y-106322857D01*
X121841190Y-106465714D01*
X121793571Y-106560952D01*
X121745952Y-106608571D01*
X121650714Y-106656190D01*
X121269761Y-106656190D01*
X122269761Y-107132380D02*
X122269761Y-106132380D01*
X122507857Y-106132380D01*
X122650714Y-106180000D01*
X122745952Y-106275238D01*
X122793571Y-106370476D01*
X122841190Y-106560952D01*
X122841190Y-106703809D01*
X122793571Y-106894285D01*
X122745952Y-106989523D01*
X122650714Y-107084761D01*
X122507857Y-107132380D01*
X122269761Y-107132380D01*
X123888809Y-106132380D02*
X124222142Y-107132380D01*
X124555476Y-106132380D01*
X125079285Y-106132380D02*
X125269761Y-106132380D01*
X125365000Y-106180000D01*
X125460238Y-106275238D01*
X125507857Y-106465714D01*
X125507857Y-106799047D01*
X125460238Y-106989523D01*
X125365000Y-107084761D01*
X125269761Y-107132380D01*
X125079285Y-107132380D01*
X124984047Y-107084761D01*
X124888809Y-106989523D01*
X124841190Y-106799047D01*
X124841190Y-106465714D01*
X124888809Y-106275238D01*
X124984047Y-106180000D01*
X125079285Y-106132380D01*
X126412619Y-107132380D02*
X125936428Y-107132380D01*
X125936428Y-106132380D01*
X126603095Y-106132380D02*
X127174523Y-106132380D01*
X126888809Y-107132380D02*
X126888809Y-106132380D01*
X127460238Y-106846666D02*
X127936428Y-106846666D01*
X127365000Y-107132380D02*
X127698333Y-106132380D01*
X128031666Y-107132380D01*
X128888809Y-106180000D02*
X128793571Y-106132380D01*
X128650714Y-106132380D01*
X128507857Y-106180000D01*
X128412619Y-106275238D01*
X128365000Y-106370476D01*
X128317380Y-106560952D01*
X128317380Y-106703809D01*
X128365000Y-106894285D01*
X128412619Y-106989523D01*
X128507857Y-107084761D01*
X128650714Y-107132380D01*
X128745952Y-107132380D01*
X128888809Y-107084761D01*
X128936428Y-107037142D01*
X128936428Y-106703809D01*
X128745952Y-106703809D01*
X129365000Y-106608571D02*
X129698333Y-106608571D01*
X129841190Y-107132380D02*
X129365000Y-107132380D01*
X129365000Y-106132380D01*
X129841190Y-106132380D01*
X131031666Y-107132380D02*
X131031666Y-106132380D01*
X131269761Y-106132380D01*
X131412619Y-106180000D01*
X131507857Y-106275238D01*
X131555476Y-106370476D01*
X131603095Y-106560952D01*
X131603095Y-106703809D01*
X131555476Y-106894285D01*
X131507857Y-106989523D01*
X131412619Y-107084761D01*
X131269761Y-107132380D01*
X131031666Y-107132380D01*
X132031666Y-107132380D02*
X132031666Y-106132380D01*
X132365000Y-106132380D02*
X132698333Y-107132380D01*
X133031666Y-106132380D01*
X133365000Y-107132380D02*
X133365000Y-106132380D01*
X133841190Y-107132380D02*
X133841190Y-106132380D01*
X134079285Y-106132380D01*
X134222142Y-106180000D01*
X134317380Y-106275238D01*
X134365000Y-106370476D01*
X134412619Y-106560952D01*
X134412619Y-106703809D01*
X134365000Y-106894285D01*
X134317380Y-106989523D01*
X134222142Y-107084761D01*
X134079285Y-107132380D01*
X133841190Y-107132380D01*
X134841190Y-106608571D02*
X135174523Y-106608571D01*
X135317380Y-107132380D02*
X134841190Y-107132380D01*
X134841190Y-106132380D01*
X135317380Y-106132380D01*
X136317380Y-107132380D02*
X135984047Y-106656190D01*
X135745952Y-107132380D02*
X135745952Y-106132380D01*
X136126904Y-106132380D01*
X136222142Y-106180000D01*
X136269761Y-106227619D01*
X136317380Y-106322857D01*
X136317380Y-106465714D01*
X136269761Y-106560952D01*
X136222142Y-106608571D01*
X136126904Y-106656190D01*
X135745952Y-106656190D01*
X138031666Y-107132380D02*
X137460238Y-107132380D01*
X137745952Y-107132380D02*
X137745952Y-106132380D01*
X137650714Y-106275238D01*
X137555476Y-106370476D01*
X137460238Y-106418095D01*
X138412619Y-106227619D02*
X138460238Y-106180000D01*
X138555476Y-106132380D01*
X138793571Y-106132380D01*
X138888809Y-106180000D01*
X138936428Y-106227619D01*
X138984047Y-106322857D01*
X138984047Y-106418095D01*
X138936428Y-106560952D01*
X138365000Y-107132380D01*
X138984047Y-107132380D01*
X140174523Y-106751428D02*
X140936428Y-106751428D01*
X142079285Y-106132380D02*
X142698333Y-106132380D01*
X142365000Y-106513333D01*
X142507857Y-106513333D01*
X142603095Y-106560952D01*
X142650714Y-106608571D01*
X142698333Y-106703809D01*
X142698333Y-106941904D01*
X142650714Y-107037142D01*
X142603095Y-107084761D01*
X142507857Y-107132380D01*
X142222142Y-107132380D01*
X142126904Y-107084761D01*
X142079285Y-107037142D01*
X143031666Y-106465714D02*
X143269761Y-107132380D01*
X143507857Y-106465714D01*
D11*
X84500000Y-102990000D02*
X86700000Y-102990000D01*
X86700000Y-102990000D02*
X86700000Y-104210000D01*
X86700000Y-104210000D02*
X78280000Y-104210000D01*
X78280000Y-104210000D02*
X78280000Y-68990000D01*
X78280000Y-68990000D02*
X86700000Y-68990000D01*
X86700000Y-68990000D02*
X86700000Y-70210000D01*
X86700000Y-70210000D02*
X84500000Y-70210000D01*
X79500000Y-104210000D02*
X79500000Y-102990000D01*
X79500000Y-102990000D02*
X84500000Y-102990000D01*
X84500000Y-102990000D02*
X84500000Y-104210000D01*
X79500000Y-68990000D02*
X79500000Y-70210000D01*
X79500000Y-70210000D02*
X84500000Y-70210000D01*
X84500000Y-70210000D02*
X84500000Y-68990000D01*
X83500000Y-102990000D02*
X83500000Y-70210000D01*
X83500000Y-101600000D02*
X83500000Y-101920000D01*
X83500000Y-101920000D02*
X80080000Y-101920000D01*
X80080000Y-101920000D02*
X80000000Y-101600000D01*
X80000000Y-101600000D02*
X80080000Y-101280000D01*
X80080000Y-101280000D02*
X83500000Y-101280000D01*
X83500000Y-101280000D02*
X83500000Y-101600000D01*
X84500000Y-100430000D02*
X84500000Y-100270000D01*
X83500000Y-99100000D02*
X83500000Y-99420000D01*
X83500000Y-99420000D02*
X80080000Y-99420000D01*
X80080000Y-99420000D02*
X80000000Y-99100000D01*
X80000000Y-99100000D02*
X80080000Y-98780000D01*
X80080000Y-98780000D02*
X83500000Y-98780000D01*
X83500000Y-98780000D02*
X83500000Y-99100000D01*
X84500000Y-97930000D02*
X84500000Y-97770000D01*
X83500000Y-96600000D02*
X83500000Y-96920000D01*
X83500000Y-96920000D02*
X80080000Y-96920000D01*
X80080000Y-96920000D02*
X80000000Y-96600000D01*
X80000000Y-96600000D02*
X80080000Y-96280000D01*
X80080000Y-96280000D02*
X83500000Y-96280000D01*
X83500000Y-96280000D02*
X83500000Y-96600000D01*
X84500000Y-95430000D02*
X84500000Y-95270000D01*
X83500000Y-94100000D02*
X83500000Y-94420000D01*
X83500000Y-94420000D02*
X80080000Y-94420000D01*
X80080000Y-94420000D02*
X80000000Y-94100000D01*
X80000000Y-94100000D02*
X80080000Y-93780000D01*
X80080000Y-93780000D02*
X83500000Y-93780000D01*
X83500000Y-93780000D02*
X83500000Y-94100000D01*
X84500000Y-92930000D02*
X84500000Y-92770000D01*
X83500000Y-91600000D02*
X83500000Y-91920000D01*
X83500000Y-91920000D02*
X80080000Y-91920000D01*
X80080000Y-91920000D02*
X80000000Y-91600000D01*
X80000000Y-91600000D02*
X80080000Y-91280000D01*
X80080000Y-91280000D02*
X83500000Y-91280000D01*
X83500000Y-91280000D02*
X83500000Y-91600000D01*
X84500000Y-90430000D02*
X84500000Y-90270000D01*
X83500000Y-89100000D02*
X83500000Y-89420000D01*
X83500000Y-89420000D02*
X80080000Y-89420000D01*
X80080000Y-89420000D02*
X80000000Y-89100000D01*
X80000000Y-89100000D02*
X80080000Y-88780000D01*
X80080000Y-88780000D02*
X83500000Y-88780000D01*
X83500000Y-88780000D02*
X83500000Y-89100000D01*
X84500000Y-87930000D02*
X84500000Y-87770000D01*
X83500000Y-86600000D02*
X83500000Y-86920000D01*
X83500000Y-86920000D02*
X80080000Y-86920000D01*
X80080000Y-86920000D02*
X80000000Y-86600000D01*
X80000000Y-86600000D02*
X80080000Y-86280000D01*
X80080000Y-86280000D02*
X83500000Y-86280000D01*
X83500000Y-86280000D02*
X83500000Y-86600000D01*
X84500000Y-85430000D02*
X84500000Y-85270000D01*
X83500000Y-84100000D02*
X83500000Y-84420000D01*
X83500000Y-84420000D02*
X80080000Y-84420000D01*
X80080000Y-84420000D02*
X80000000Y-84100000D01*
X80000000Y-84100000D02*
X80080000Y-83780000D01*
X80080000Y-83780000D02*
X83500000Y-83780000D01*
X83500000Y-83780000D02*
X83500000Y-84100000D01*
X84500000Y-82930000D02*
X84500000Y-82770000D01*
X83500000Y-81600000D02*
X83500000Y-81920000D01*
X83500000Y-81920000D02*
X80080000Y-81920000D01*
X80080000Y-81920000D02*
X80000000Y-81600000D01*
X80000000Y-81600000D02*
X80080000Y-81280000D01*
X80080000Y-81280000D02*
X83500000Y-81280000D01*
X83500000Y-81280000D02*
X83500000Y-81600000D01*
X84500000Y-80430000D02*
X84500000Y-80270000D01*
X83500000Y-79100000D02*
X83500000Y-79420000D01*
X83500000Y-79420000D02*
X80080000Y-79420000D01*
X80080000Y-79420000D02*
X80000000Y-79100000D01*
X80000000Y-79100000D02*
X80080000Y-78780000D01*
X80080000Y-78780000D02*
X83500000Y-78780000D01*
X83500000Y-78780000D02*
X83500000Y-79100000D01*
X84500000Y-77930000D02*
X84500000Y-77770000D01*
X83500000Y-76600000D02*
X83500000Y-76920000D01*
X83500000Y-76920000D02*
X80080000Y-76920000D01*
X80080000Y-76920000D02*
X80000000Y-76600000D01*
X80000000Y-76600000D02*
X80080000Y-76280000D01*
X80080000Y-76280000D02*
X83500000Y-76280000D01*
X83500000Y-76280000D02*
X83500000Y-76600000D01*
X84500000Y-75430000D02*
X84500000Y-75270000D01*
X83500000Y-74100000D02*
X83500000Y-74420000D01*
X83500000Y-74420000D02*
X80080000Y-74420000D01*
X80080000Y-74420000D02*
X80000000Y-74100000D01*
X80000000Y-74100000D02*
X80080000Y-73780000D01*
X80080000Y-73780000D02*
X83500000Y-73780000D01*
X83500000Y-73780000D02*
X83500000Y-74100000D01*
X84500000Y-72930000D02*
X84500000Y-72770000D01*
X83500000Y-71600000D02*
X83500000Y-71920000D01*
X83500000Y-71920000D02*
X80080000Y-71920000D01*
X80080000Y-71920000D02*
X80000000Y-71600000D01*
X80000000Y-71600000D02*
X80080000Y-71280000D01*
X80080000Y-71280000D02*
X83500000Y-71280000D01*
X83500000Y-71280000D02*
X83500000Y-71600000D01*
X86590000Y-101600000D02*
X87190000Y-101900000D01*
X87190000Y-101900000D02*
X87190000Y-101300000D01*
X87190000Y-101300000D02*
X86590000Y-101600000D01*
X93750000Y-102235000D02*
X94520000Y-102235000D01*
X101830000Y-102235000D02*
X101060000Y-102235000D01*
X94520000Y-103605000D02*
X101060000Y-103605000D01*
X94520000Y-100865000D02*
X94520000Y-103605000D01*
X101060000Y-100865000D02*
X94520000Y-100865000D01*
X101060000Y-103605000D02*
X101060000Y-100865000D01*
X101060000Y-97255000D02*
X101060000Y-94515000D01*
X101060000Y-94515000D02*
X94520000Y-94515000D01*
X94520000Y-94515000D02*
X94520000Y-97255000D01*
X94520000Y-97255000D02*
X101060000Y-97255000D01*
X101830000Y-95885000D02*
X101060000Y-95885000D01*
X93750000Y-95885000D02*
X94520000Y-95885000D01*
X101060000Y-90905000D02*
X101060000Y-88165000D01*
X101060000Y-88165000D02*
X94520000Y-88165000D01*
X94520000Y-88165000D02*
X94520000Y-90905000D01*
X94520000Y-90905000D02*
X101060000Y-90905000D01*
X101830000Y-89535000D02*
X101060000Y-89535000D01*
X93750000Y-89535000D02*
X94520000Y-89535000D01*
X93750000Y-83185000D02*
X94520000Y-83185000D01*
X101830000Y-83185000D02*
X101060000Y-83185000D01*
X94520000Y-84555000D02*
X101060000Y-84555000D01*
X94520000Y-81815000D02*
X94520000Y-84555000D01*
X101060000Y-81815000D02*
X94520000Y-81815000D01*
X101060000Y-84555000D02*
X101060000Y-81815000D01*
X101060000Y-78205000D02*
X101060000Y-75465000D01*
X101060000Y-75465000D02*
X94520000Y-75465000D01*
X94520000Y-75465000D02*
X94520000Y-78205000D01*
X94520000Y-78205000D02*
X101060000Y-78205000D01*
X101830000Y-76835000D02*
X101060000Y-76835000D01*
X93750000Y-76835000D02*
X94520000Y-76835000D01*
X93750000Y-70485000D02*
X94520000Y-70485000D01*
X101830000Y-70485000D02*
X101060000Y-70485000D01*
X94520000Y-71855000D02*
X101060000Y-71855000D01*
X94520000Y-69115000D02*
X94520000Y-71855000D01*
X101060000Y-69115000D02*
X94520000Y-69115000D01*
X101060000Y-71855000D02*
X101060000Y-69115000D01*
X119475000Y-103605000D02*
X119475000Y-100865000D01*
X119475000Y-100865000D02*
X112935000Y-100865000D01*
X112935000Y-100865000D02*
X112935000Y-103605000D01*
X112935000Y-103605000D02*
X119475000Y-103605000D01*
X120245000Y-102235000D02*
X119475000Y-102235000D01*
X112165000Y-102235000D02*
X112935000Y-102235000D01*
X112165000Y-95885000D02*
X112935000Y-95885000D01*
X120245000Y-95885000D02*
X119475000Y-95885000D01*
X112935000Y-97255000D02*
X119475000Y-97255000D01*
X112935000Y-94515000D02*
X112935000Y-97255000D01*
X119475000Y-94515000D02*
X112935000Y-94515000D01*
X119475000Y-97255000D02*
X119475000Y-94515000D01*
X119475000Y-90905000D02*
X119475000Y-88165000D01*
X119475000Y-88165000D02*
X112935000Y-88165000D01*
X112935000Y-88165000D02*
X112935000Y-90905000D01*
X112935000Y-90905000D02*
X119475000Y-90905000D01*
X120245000Y-89535000D02*
X119475000Y-89535000D01*
X112165000Y-89535000D02*
X112935000Y-89535000D01*
X112165000Y-83185000D02*
X112935000Y-83185000D01*
X120245000Y-83185000D02*
X119475000Y-83185000D01*
X112935000Y-84555000D02*
X119475000Y-84555000D01*
X112935000Y-81815000D02*
X112935000Y-84555000D01*
X119475000Y-81815000D02*
X112935000Y-81815000D01*
X119475000Y-84555000D02*
X119475000Y-81815000D01*
X119475000Y-78205000D02*
X119475000Y-75465000D01*
X119475000Y-75465000D02*
X112935000Y-75465000D01*
X112935000Y-75465000D02*
X112935000Y-78205000D01*
X112935000Y-78205000D02*
X119475000Y-78205000D01*
X120245000Y-76835000D02*
X119475000Y-76835000D01*
X112165000Y-76835000D02*
X112935000Y-76835000D01*
X112165000Y-70485000D02*
X112935000Y-70485000D01*
X120245000Y-70485000D02*
X119475000Y-70485000D01*
X112935000Y-71855000D02*
X119475000Y-71855000D01*
X112935000Y-69115000D02*
X112935000Y-71855000D01*
X119475000Y-69115000D02*
X112935000Y-69115000D01*
X119475000Y-71855000D02*
X119475000Y-69115000D01*
X135985000Y-103605000D02*
X135985000Y-100865000D01*
X135985000Y-100865000D02*
X129445000Y-100865000D01*
X129445000Y-100865000D02*
X129445000Y-103605000D01*
X129445000Y-103605000D02*
X135985000Y-103605000D01*
X136755000Y-102235000D02*
X135985000Y-102235000D01*
X128675000Y-102235000D02*
X129445000Y-102235000D01*
X128675000Y-95885000D02*
X129445000Y-95885000D01*
X136755000Y-95885000D02*
X135985000Y-95885000D01*
X129445000Y-97255000D02*
X135985000Y-97255000D01*
X129445000Y-94515000D02*
X129445000Y-97255000D01*
X135985000Y-94515000D02*
X129445000Y-94515000D01*
X135985000Y-97255000D02*
X135985000Y-94515000D01*
X135985000Y-90905000D02*
X135985000Y-88165000D01*
X135985000Y-88165000D02*
X129445000Y-88165000D01*
X129445000Y-88165000D02*
X129445000Y-90905000D01*
X129445000Y-90905000D02*
X135985000Y-90905000D01*
X136755000Y-89535000D02*
X135985000Y-89535000D01*
X128675000Y-89535000D02*
X129445000Y-89535000D01*
X128675000Y-83185000D02*
X129445000Y-83185000D01*
X136755000Y-83185000D02*
X135985000Y-83185000D01*
X129445000Y-84555000D02*
X135985000Y-84555000D01*
X129445000Y-81815000D02*
X129445000Y-84555000D01*
X135985000Y-81815000D02*
X129445000Y-81815000D01*
X135985000Y-84555000D02*
X135985000Y-81815000D01*
X135985000Y-78205000D02*
X135985000Y-75465000D01*
X135985000Y-75465000D02*
X129445000Y-75465000D01*
X129445000Y-75465000D02*
X129445000Y-78205000D01*
X129445000Y-78205000D02*
X135985000Y-78205000D01*
X136755000Y-76835000D02*
X135985000Y-76835000D01*
X128675000Y-76835000D02*
X129445000Y-76835000D01*
X128675000Y-70485000D02*
X129445000Y-70485000D01*
X136755000Y-70485000D02*
X135985000Y-70485000D01*
X129445000Y-71855000D02*
X135985000Y-71855000D01*
X129445000Y-69115000D02*
X129445000Y-71855000D01*
X135985000Y-69115000D02*
X129445000Y-69115000D01*
X135985000Y-71855000D02*
X135985000Y-69115000D01*
X151860000Y-103605000D02*
X151860000Y-100865000D01*
X151860000Y-100865000D02*
X145320000Y-100865000D01*
X145320000Y-100865000D02*
X145320000Y-103605000D01*
X145320000Y-103605000D02*
X151860000Y-103605000D01*
X152630000Y-102235000D02*
X151860000Y-102235000D01*
X144550000Y-102235000D02*
X145320000Y-102235000D01*
X144550000Y-95885000D02*
X145320000Y-95885000D01*
X152630000Y-95885000D02*
X151860000Y-95885000D01*
X145320000Y-97255000D02*
X151860000Y-97255000D01*
X145320000Y-94515000D02*
X145320000Y-97255000D01*
X151860000Y-94515000D02*
X145320000Y-94515000D01*
X151860000Y-97255000D02*
X151860000Y-94515000D01*
X151860000Y-90905000D02*
X151860000Y-88165000D01*
X151860000Y-88165000D02*
X145320000Y-88165000D01*
X145320000Y-88165000D02*
X145320000Y-90905000D01*
X145320000Y-90905000D02*
X151860000Y-90905000D01*
X152630000Y-89535000D02*
X151860000Y-89535000D01*
X144550000Y-89535000D02*
X145320000Y-89535000D01*
X144550000Y-83185000D02*
X145320000Y-83185000D01*
X152630000Y-83185000D02*
X151860000Y-83185000D01*
X145320000Y-84555000D02*
X151860000Y-84555000D01*
X145320000Y-81815000D02*
X145320000Y-84555000D01*
X151860000Y-81815000D02*
X145320000Y-81815000D01*
X151860000Y-84555000D02*
X151860000Y-81815000D01*
X151860000Y-78205000D02*
X151860000Y-75465000D01*
X151860000Y-75465000D02*
X145320000Y-75465000D01*
X145320000Y-75465000D02*
X145320000Y-78205000D01*
X145320000Y-78205000D02*
X151860000Y-78205000D01*
X152630000Y-76835000D02*
X151860000Y-76835000D01*
X144550000Y-76835000D02*
X145320000Y-76835000D01*
X144550000Y-70485000D02*
X145320000Y-70485000D01*
X152630000Y-70485000D02*
X151860000Y-70485000D01*
X145320000Y-71855000D02*
X151860000Y-71855000D01*
X145320000Y-69115000D02*
X145320000Y-71855000D01*
X151860000Y-69115000D02*
X145320000Y-69115000D01*
X151860000Y-71855000D02*
X151860000Y-69115000D01*
D10*
X158623095Y-103932380D02*
X158623095Y-102932380D01*
X158623095Y-103408571D02*
X159194523Y-103408571D01*
X159194523Y-103932380D02*
X159194523Y-102932380D01*
X160099285Y-103265714D02*
X160099285Y-103932380D01*
X159861190Y-102884761D02*
X159623095Y-103599047D01*
X160242142Y-103599047D01*
X157353095Y-69057380D02*
X157353095Y-68057380D01*
X157353095Y-68533571D02*
X157924523Y-68533571D01*
X157924523Y-69057380D02*
X157924523Y-68057380D01*
X158305476Y-68057380D02*
X158924523Y-68057380D01*
X158591190Y-68438333D01*
X158734047Y-68438333D01*
X158829285Y-68485952D01*
X158876904Y-68533571D01*
X158924523Y-68628809D01*
X158924523Y-68866904D01*
X158876904Y-68962142D01*
X158829285Y-69009761D01*
X158734047Y-69057380D01*
X158448333Y-69057380D01*
X158353095Y-69009761D01*
X158305476Y-68962142D01*
X88773095Y-103932380D02*
X88773095Y-102932380D01*
X88773095Y-103408571D02*
X89344523Y-103408571D01*
X89344523Y-103932380D02*
X89344523Y-102932380D01*
X89773095Y-103027619D02*
X89820714Y-102980000D01*
X89915952Y-102932380D01*
X90154047Y-102932380D01*
X90249285Y-102980000D01*
X90296904Y-103027619D01*
X90344523Y-103122857D01*
X90344523Y-103218095D01*
X90296904Y-103360952D01*
X89725476Y-103932380D01*
X90344523Y-103932380D01*
X89408095Y-69057380D02*
X89408095Y-68057380D01*
X89408095Y-68533571D02*
X89979523Y-68533571D01*
X89979523Y-69057380D02*
X89979523Y-68057380D01*
X90979523Y-69057380D02*
X90408095Y-69057380D01*
X90693809Y-69057380D02*
X90693809Y-68057380D01*
X90598571Y-68200238D01*
X90503333Y-68295476D01*
X90408095Y-68343095D01*
X76642380Y-86933333D02*
X77356666Y-86933333D01*
X77499523Y-86980952D01*
X77594761Y-87076190D01*
X77642380Y-87219047D01*
X77642380Y-87314285D01*
X77642380Y-85933333D02*
X77642380Y-86504761D01*
X77642380Y-86219047D02*
X76642380Y-86219047D01*
X76785238Y-86314285D01*
X76880476Y-86409523D01*
X76928095Y-86504761D01*
X97623333Y-105057380D02*
X97290000Y-104581190D01*
X97051904Y-105057380D02*
X97051904Y-104057380D01*
X97432857Y-104057380D01*
X97528095Y-104105000D01*
X97575714Y-104152619D01*
X97623333Y-104247857D01*
X97623333Y-104390714D01*
X97575714Y-104485952D01*
X97528095Y-104533571D01*
X97432857Y-104581190D01*
X97051904Y-104581190D01*
X98575714Y-105057380D02*
X98004285Y-105057380D01*
X98290000Y-105057380D02*
X98290000Y-104057380D01*
X98194761Y-104200238D01*
X98099523Y-104295476D01*
X98004285Y-104343095D01*
X97623333Y-98707380D02*
X97290000Y-98231190D01*
X97051904Y-98707380D02*
X97051904Y-97707380D01*
X97432857Y-97707380D01*
X97528095Y-97755000D01*
X97575714Y-97802619D01*
X97623333Y-97897857D01*
X97623333Y-98040714D01*
X97575714Y-98135952D01*
X97528095Y-98183571D01*
X97432857Y-98231190D01*
X97051904Y-98231190D01*
X98004285Y-97802619D02*
X98051904Y-97755000D01*
X98147142Y-97707380D01*
X98385238Y-97707380D01*
X98480476Y-97755000D01*
X98528095Y-97802619D01*
X98575714Y-97897857D01*
X98575714Y-97993095D01*
X98528095Y-98135952D01*
X97956666Y-98707380D01*
X98575714Y-98707380D01*
X97623333Y-92357380D02*
X97290000Y-91881190D01*
X97051904Y-92357380D02*
X97051904Y-91357380D01*
X97432857Y-91357380D01*
X97528095Y-91405000D01*
X97575714Y-91452619D01*
X97623333Y-91547857D01*
X97623333Y-91690714D01*
X97575714Y-91785952D01*
X97528095Y-91833571D01*
X97432857Y-91881190D01*
X97051904Y-91881190D01*
X97956666Y-91357380D02*
X98575714Y-91357380D01*
X98242380Y-91738333D01*
X98385238Y-91738333D01*
X98480476Y-91785952D01*
X98528095Y-91833571D01*
X98575714Y-91928809D01*
X98575714Y-92166904D01*
X98528095Y-92262142D01*
X98480476Y-92309761D01*
X98385238Y-92357380D01*
X98099523Y-92357380D01*
X98004285Y-92309761D01*
X97956666Y-92262142D01*
X97623333Y-86007380D02*
X97290000Y-85531190D01*
X97051904Y-86007380D02*
X97051904Y-85007380D01*
X97432857Y-85007380D01*
X97528095Y-85055000D01*
X97575714Y-85102619D01*
X97623333Y-85197857D01*
X97623333Y-85340714D01*
X97575714Y-85435952D01*
X97528095Y-85483571D01*
X97432857Y-85531190D01*
X97051904Y-85531190D01*
X98480476Y-85340714D02*
X98480476Y-86007380D01*
X98242380Y-84959761D02*
X98004285Y-85674047D01*
X98623333Y-85674047D01*
X97623333Y-79657380D02*
X97290000Y-79181190D01*
X97051904Y-79657380D02*
X97051904Y-78657380D01*
X97432857Y-78657380D01*
X97528095Y-78705000D01*
X97575714Y-78752619D01*
X97623333Y-78847857D01*
X97623333Y-78990714D01*
X97575714Y-79085952D01*
X97528095Y-79133571D01*
X97432857Y-79181190D01*
X97051904Y-79181190D01*
X98528095Y-78657380D02*
X98051904Y-78657380D01*
X98004285Y-79133571D01*
X98051904Y-79085952D01*
X98147142Y-79038333D01*
X98385238Y-79038333D01*
X98480476Y-79085952D01*
X98528095Y-79133571D01*
X98575714Y-79228809D01*
X98575714Y-79466904D01*
X98528095Y-79562142D01*
X98480476Y-79609761D01*
X98385238Y-79657380D01*
X98147142Y-79657380D01*
X98051904Y-79609761D01*
X98004285Y-79562142D01*
X97623333Y-73307380D02*
X97290000Y-72831190D01*
X97051904Y-73307380D02*
X97051904Y-72307380D01*
X97432857Y-72307380D01*
X97528095Y-72355000D01*
X97575714Y-72402619D01*
X97623333Y-72497857D01*
X97623333Y-72640714D01*
X97575714Y-72735952D01*
X97528095Y-72783571D01*
X97432857Y-72831190D01*
X97051904Y-72831190D01*
X98480476Y-72307380D02*
X98290000Y-72307380D01*
X98194761Y-72355000D01*
X98147142Y-72402619D01*
X98051904Y-72545476D01*
X98004285Y-72735952D01*
X98004285Y-73116904D01*
X98051904Y-73212142D01*
X98099523Y-73259761D01*
X98194761Y-73307380D01*
X98385238Y-73307380D01*
X98480476Y-73259761D01*
X98528095Y-73212142D01*
X98575714Y-73116904D01*
X98575714Y-72878809D01*
X98528095Y-72783571D01*
X98480476Y-72735952D01*
X98385238Y-72688333D01*
X98194761Y-72688333D01*
X98099523Y-72735952D01*
X98051904Y-72783571D01*
X98004285Y-72878809D01*
X116038333Y-105057380D02*
X115705000Y-104581190D01*
X115466904Y-105057380D02*
X115466904Y-104057380D01*
X115847857Y-104057380D01*
X115943095Y-104105000D01*
X115990714Y-104152619D01*
X116038333Y-104247857D01*
X116038333Y-104390714D01*
X115990714Y-104485952D01*
X115943095Y-104533571D01*
X115847857Y-104581190D01*
X115466904Y-104581190D01*
X116371666Y-104057380D02*
X117038333Y-104057380D01*
X116609761Y-105057380D01*
X116038333Y-98707380D02*
X115705000Y-98231190D01*
X115466904Y-98707380D02*
X115466904Y-97707380D01*
X115847857Y-97707380D01*
X115943095Y-97755000D01*
X115990714Y-97802619D01*
X116038333Y-97897857D01*
X116038333Y-98040714D01*
X115990714Y-98135952D01*
X115943095Y-98183571D01*
X115847857Y-98231190D01*
X115466904Y-98231190D01*
X116609761Y-98135952D02*
X116514523Y-98088333D01*
X116466904Y-98040714D01*
X116419285Y-97945476D01*
X116419285Y-97897857D01*
X116466904Y-97802619D01*
X116514523Y-97755000D01*
X116609761Y-97707380D01*
X116800238Y-97707380D01*
X116895476Y-97755000D01*
X116943095Y-97802619D01*
X116990714Y-97897857D01*
X116990714Y-97945476D01*
X116943095Y-98040714D01*
X116895476Y-98088333D01*
X116800238Y-98135952D01*
X116609761Y-98135952D01*
X116514523Y-98183571D01*
X116466904Y-98231190D01*
X116419285Y-98326428D01*
X116419285Y-98516904D01*
X116466904Y-98612142D01*
X116514523Y-98659761D01*
X116609761Y-98707380D01*
X116800238Y-98707380D01*
X116895476Y-98659761D01*
X116943095Y-98612142D01*
X116990714Y-98516904D01*
X116990714Y-98326428D01*
X116943095Y-98231190D01*
X116895476Y-98183571D01*
X116800238Y-98135952D01*
X116038333Y-92357380D02*
X115705000Y-91881190D01*
X115466904Y-92357380D02*
X115466904Y-91357380D01*
X115847857Y-91357380D01*
X115943095Y-91405000D01*
X115990714Y-91452619D01*
X116038333Y-91547857D01*
X116038333Y-91690714D01*
X115990714Y-91785952D01*
X115943095Y-91833571D01*
X115847857Y-91881190D01*
X115466904Y-91881190D01*
X116514523Y-92357380D02*
X116705000Y-92357380D01*
X116800238Y-92309761D01*
X116847857Y-92262142D01*
X116943095Y-92119285D01*
X116990714Y-91928809D01*
X116990714Y-91547857D01*
X116943095Y-91452619D01*
X116895476Y-91405000D01*
X116800238Y-91357380D01*
X116609761Y-91357380D01*
X116514523Y-91405000D01*
X116466904Y-91452619D01*
X116419285Y-91547857D01*
X116419285Y-91785952D01*
X116466904Y-91881190D01*
X116514523Y-91928809D01*
X116609761Y-91976428D01*
X116800238Y-91976428D01*
X116895476Y-91928809D01*
X116943095Y-91881190D01*
X116990714Y-91785952D01*
X115562142Y-86007380D02*
X115228809Y-85531190D01*
X114990714Y-86007380D02*
X114990714Y-85007380D01*
X115371666Y-85007380D01*
X115466904Y-85055000D01*
X115514523Y-85102619D01*
X115562142Y-85197857D01*
X115562142Y-85340714D01*
X115514523Y-85435952D01*
X115466904Y-85483571D01*
X115371666Y-85531190D01*
X114990714Y-85531190D01*
X116514523Y-86007380D02*
X115943095Y-86007380D01*
X116228809Y-86007380D02*
X116228809Y-85007380D01*
X116133571Y-85150238D01*
X116038333Y-85245476D01*
X115943095Y-85293095D01*
X117133571Y-85007380D02*
X117228809Y-85007380D01*
X117324047Y-85055000D01*
X117371666Y-85102619D01*
X117419285Y-85197857D01*
X117466904Y-85388333D01*
X117466904Y-85626428D01*
X117419285Y-85816904D01*
X117371666Y-85912142D01*
X117324047Y-85959761D01*
X117228809Y-86007380D01*
X117133571Y-86007380D01*
X117038333Y-85959761D01*
X116990714Y-85912142D01*
X116943095Y-85816904D01*
X116895476Y-85626428D01*
X116895476Y-85388333D01*
X116943095Y-85197857D01*
X116990714Y-85102619D01*
X117038333Y-85055000D01*
X117133571Y-85007380D01*
X115562142Y-79657380D02*
X115228809Y-79181190D01*
X114990714Y-79657380D02*
X114990714Y-78657380D01*
X115371666Y-78657380D01*
X115466904Y-78705000D01*
X115514523Y-78752619D01*
X115562142Y-78847857D01*
X115562142Y-78990714D01*
X115514523Y-79085952D01*
X115466904Y-79133571D01*
X115371666Y-79181190D01*
X114990714Y-79181190D01*
X116514523Y-79657380D02*
X115943095Y-79657380D01*
X116228809Y-79657380D02*
X116228809Y-78657380D01*
X116133571Y-78800238D01*
X116038333Y-78895476D01*
X115943095Y-78943095D01*
X117466904Y-79657380D02*
X116895476Y-79657380D01*
X117181190Y-79657380D02*
X117181190Y-78657380D01*
X117085952Y-78800238D01*
X116990714Y-78895476D01*
X116895476Y-78943095D01*
X115562142Y-73307380D02*
X115228809Y-72831190D01*
X114990714Y-73307380D02*
X114990714Y-72307380D01*
X115371666Y-72307380D01*
X115466904Y-72355000D01*
X115514523Y-72402619D01*
X115562142Y-72497857D01*
X115562142Y-72640714D01*
X115514523Y-72735952D01*
X115466904Y-72783571D01*
X115371666Y-72831190D01*
X114990714Y-72831190D01*
X116514523Y-73307380D02*
X115943095Y-73307380D01*
X116228809Y-73307380D02*
X116228809Y-72307380D01*
X116133571Y-72450238D01*
X116038333Y-72545476D01*
X115943095Y-72593095D01*
X116895476Y-72402619D02*
X116943095Y-72355000D01*
X117038333Y-72307380D01*
X117276428Y-72307380D01*
X117371666Y-72355000D01*
X117419285Y-72402619D01*
X117466904Y-72497857D01*
X117466904Y-72593095D01*
X117419285Y-72735952D01*
X116847857Y-73307380D01*
X117466904Y-73307380D01*
X132072142Y-105057380D02*
X131738809Y-104581190D01*
X131500714Y-105057380D02*
X131500714Y-104057380D01*
X131881666Y-104057380D01*
X131976904Y-104105000D01*
X132024523Y-104152619D01*
X132072142Y-104247857D01*
X132072142Y-104390714D01*
X132024523Y-104485952D01*
X131976904Y-104533571D01*
X131881666Y-104581190D01*
X131500714Y-104581190D01*
X133024523Y-105057380D02*
X132453095Y-105057380D01*
X132738809Y-105057380D02*
X132738809Y-104057380D01*
X132643571Y-104200238D01*
X132548333Y-104295476D01*
X132453095Y-104343095D01*
X133357857Y-104057380D02*
X133976904Y-104057380D01*
X133643571Y-104438333D01*
X133786428Y-104438333D01*
X133881666Y-104485952D01*
X133929285Y-104533571D01*
X133976904Y-104628809D01*
X133976904Y-104866904D01*
X133929285Y-104962142D01*
X133881666Y-105009761D01*
X133786428Y-105057380D01*
X133500714Y-105057380D01*
X133405476Y-105009761D01*
X133357857Y-104962142D01*
X132072142Y-98707380D02*
X131738809Y-98231190D01*
X131500714Y-98707380D02*
X131500714Y-97707380D01*
X131881666Y-97707380D01*
X131976904Y-97755000D01*
X132024523Y-97802619D01*
X132072142Y-97897857D01*
X132072142Y-98040714D01*
X132024523Y-98135952D01*
X131976904Y-98183571D01*
X131881666Y-98231190D01*
X131500714Y-98231190D01*
X133024523Y-98707380D02*
X132453095Y-98707380D01*
X132738809Y-98707380D02*
X132738809Y-97707380D01*
X132643571Y-97850238D01*
X132548333Y-97945476D01*
X132453095Y-97993095D01*
X133881666Y-98040714D02*
X133881666Y-98707380D01*
X133643571Y-97659761D02*
X133405476Y-98374047D01*
X134024523Y-98374047D01*
X132072142Y-92357380D02*
X131738809Y-91881190D01*
X131500714Y-92357380D02*
X131500714Y-91357380D01*
X131881666Y-91357380D01*
X131976904Y-91405000D01*
X132024523Y-91452619D01*
X132072142Y-91547857D01*
X132072142Y-91690714D01*
X132024523Y-91785952D01*
X131976904Y-91833571D01*
X131881666Y-91881190D01*
X131500714Y-91881190D01*
X133024523Y-92357380D02*
X132453095Y-92357380D01*
X132738809Y-92357380D02*
X132738809Y-91357380D01*
X132643571Y-91500238D01*
X132548333Y-91595476D01*
X132453095Y-91643095D01*
X133929285Y-91357380D02*
X133453095Y-91357380D01*
X133405476Y-91833571D01*
X133453095Y-91785952D01*
X133548333Y-91738333D01*
X133786428Y-91738333D01*
X133881666Y-91785952D01*
X133929285Y-91833571D01*
X133976904Y-91928809D01*
X133976904Y-92166904D01*
X133929285Y-92262142D01*
X133881666Y-92309761D01*
X133786428Y-92357380D01*
X133548333Y-92357380D01*
X133453095Y-92309761D01*
X133405476Y-92262142D01*
X132072142Y-86007380D02*
X131738809Y-85531190D01*
X131500714Y-86007380D02*
X131500714Y-85007380D01*
X131881666Y-85007380D01*
X131976904Y-85055000D01*
X132024523Y-85102619D01*
X132072142Y-85197857D01*
X132072142Y-85340714D01*
X132024523Y-85435952D01*
X131976904Y-85483571D01*
X131881666Y-85531190D01*
X131500714Y-85531190D01*
X133024523Y-86007380D02*
X132453095Y-86007380D01*
X132738809Y-86007380D02*
X132738809Y-85007380D01*
X132643571Y-85150238D01*
X132548333Y-85245476D01*
X132453095Y-85293095D01*
X133881666Y-85007380D02*
X133691190Y-85007380D01*
X133595952Y-85055000D01*
X133548333Y-85102619D01*
X133453095Y-85245476D01*
X133405476Y-85435952D01*
X133405476Y-85816904D01*
X133453095Y-85912142D01*
X133500714Y-85959761D01*
X133595952Y-86007380D01*
X133786428Y-86007380D01*
X133881666Y-85959761D01*
X133929285Y-85912142D01*
X133976904Y-85816904D01*
X133976904Y-85578809D01*
X133929285Y-85483571D01*
X133881666Y-85435952D01*
X133786428Y-85388333D01*
X133595952Y-85388333D01*
X133500714Y-85435952D01*
X133453095Y-85483571D01*
X133405476Y-85578809D01*
X132072142Y-79657380D02*
X131738809Y-79181190D01*
X131500714Y-79657380D02*
X131500714Y-78657380D01*
X131881666Y-78657380D01*
X131976904Y-78705000D01*
X132024523Y-78752619D01*
X132072142Y-78847857D01*
X132072142Y-78990714D01*
X132024523Y-79085952D01*
X131976904Y-79133571D01*
X131881666Y-79181190D01*
X131500714Y-79181190D01*
X133024523Y-79657380D02*
X132453095Y-79657380D01*
X132738809Y-79657380D02*
X132738809Y-78657380D01*
X132643571Y-78800238D01*
X132548333Y-78895476D01*
X132453095Y-78943095D01*
X133357857Y-78657380D02*
X134024523Y-78657380D01*
X133595952Y-79657380D01*
X132072142Y-73307380D02*
X131738809Y-72831190D01*
X131500714Y-73307380D02*
X131500714Y-72307380D01*
X131881666Y-72307380D01*
X131976904Y-72355000D01*
X132024523Y-72402619D01*
X132072142Y-72497857D01*
X132072142Y-72640714D01*
X132024523Y-72735952D01*
X131976904Y-72783571D01*
X131881666Y-72831190D01*
X131500714Y-72831190D01*
X133024523Y-73307380D02*
X132453095Y-73307380D01*
X132738809Y-73307380D02*
X132738809Y-72307380D01*
X132643571Y-72450238D01*
X132548333Y-72545476D01*
X132453095Y-72593095D01*
X133595952Y-72735952D02*
X133500714Y-72688333D01*
X133453095Y-72640714D01*
X133405476Y-72545476D01*
X133405476Y-72497857D01*
X133453095Y-72402619D01*
X133500714Y-72355000D01*
X133595952Y-72307380D01*
X133786428Y-72307380D01*
X133881666Y-72355000D01*
X133929285Y-72402619D01*
X133976904Y-72497857D01*
X133976904Y-72545476D01*
X133929285Y-72640714D01*
X133881666Y-72688333D01*
X133786428Y-72735952D01*
X133595952Y-72735952D01*
X133500714Y-72783571D01*
X133453095Y-72831190D01*
X133405476Y-72926428D01*
X133405476Y-73116904D01*
X133453095Y-73212142D01*
X133500714Y-73259761D01*
X133595952Y-73307380D01*
X133786428Y-73307380D01*
X133881666Y-73259761D01*
X133929285Y-73212142D01*
X133976904Y-73116904D01*
X133976904Y-72926428D01*
X133929285Y-72831190D01*
X133881666Y-72783571D01*
X133786428Y-72735952D01*
X147947142Y-105057380D02*
X147613809Y-104581190D01*
X147375714Y-105057380D02*
X147375714Y-104057380D01*
X147756666Y-104057380D01*
X147851904Y-104105000D01*
X147899523Y-104152619D01*
X147947142Y-104247857D01*
X147947142Y-104390714D01*
X147899523Y-104485952D01*
X147851904Y-104533571D01*
X147756666Y-104581190D01*
X147375714Y-104581190D01*
X148899523Y-105057380D02*
X148328095Y-105057380D01*
X148613809Y-105057380D02*
X148613809Y-104057380D01*
X148518571Y-104200238D01*
X148423333Y-104295476D01*
X148328095Y-104343095D01*
X149375714Y-105057380D02*
X149566190Y-105057380D01*
X149661428Y-105009761D01*
X149709047Y-104962142D01*
X149804285Y-104819285D01*
X149851904Y-104628809D01*
X149851904Y-104247857D01*
X149804285Y-104152619D01*
X149756666Y-104105000D01*
X149661428Y-104057380D01*
X149470952Y-104057380D01*
X149375714Y-104105000D01*
X149328095Y-104152619D01*
X149280476Y-104247857D01*
X149280476Y-104485952D01*
X149328095Y-104581190D01*
X149375714Y-104628809D01*
X149470952Y-104676428D01*
X149661428Y-104676428D01*
X149756666Y-104628809D01*
X149804285Y-104581190D01*
X149851904Y-104485952D01*
X147947142Y-98707380D02*
X147613809Y-98231190D01*
X147375714Y-98707380D02*
X147375714Y-97707380D01*
X147756666Y-97707380D01*
X147851904Y-97755000D01*
X147899523Y-97802619D01*
X147947142Y-97897857D01*
X147947142Y-98040714D01*
X147899523Y-98135952D01*
X147851904Y-98183571D01*
X147756666Y-98231190D01*
X147375714Y-98231190D01*
X148328095Y-97802619D02*
X148375714Y-97755000D01*
X148470952Y-97707380D01*
X148709047Y-97707380D01*
X148804285Y-97755000D01*
X148851904Y-97802619D01*
X148899523Y-97897857D01*
X148899523Y-97993095D01*
X148851904Y-98135952D01*
X148280476Y-98707380D01*
X148899523Y-98707380D01*
X149518571Y-97707380D02*
X149613809Y-97707380D01*
X149709047Y-97755000D01*
X149756666Y-97802619D01*
X149804285Y-97897857D01*
X149851904Y-98088333D01*
X149851904Y-98326428D01*
X149804285Y-98516904D01*
X149756666Y-98612142D01*
X149709047Y-98659761D01*
X149613809Y-98707380D01*
X149518571Y-98707380D01*
X149423333Y-98659761D01*
X149375714Y-98612142D01*
X149328095Y-98516904D01*
X149280476Y-98326428D01*
X149280476Y-98088333D01*
X149328095Y-97897857D01*
X149375714Y-97802619D01*
X149423333Y-97755000D01*
X149518571Y-97707380D01*
X147947142Y-92357380D02*
X147613809Y-91881190D01*
X147375714Y-92357380D02*
X147375714Y-91357380D01*
X147756666Y-91357380D01*
X147851904Y-91405000D01*
X147899523Y-91452619D01*
X147947142Y-91547857D01*
X147947142Y-91690714D01*
X147899523Y-91785952D01*
X147851904Y-91833571D01*
X147756666Y-91881190D01*
X147375714Y-91881190D01*
X148328095Y-91452619D02*
X148375714Y-91405000D01*
X148470952Y-91357380D01*
X148709047Y-91357380D01*
X148804285Y-91405000D01*
X148851904Y-91452619D01*
X148899523Y-91547857D01*
X148899523Y-91643095D01*
X148851904Y-91785952D01*
X148280476Y-92357380D01*
X148899523Y-92357380D01*
X149851904Y-92357380D02*
X149280476Y-92357380D01*
X149566190Y-92357380D02*
X149566190Y-91357380D01*
X149470952Y-91500238D01*
X149375714Y-91595476D01*
X149280476Y-91643095D01*
X147947142Y-86007380D02*
X147613809Y-85531190D01*
X147375714Y-86007380D02*
X147375714Y-85007380D01*
X147756666Y-85007380D01*
X147851904Y-85055000D01*
X147899523Y-85102619D01*
X147947142Y-85197857D01*
X147947142Y-85340714D01*
X147899523Y-85435952D01*
X147851904Y-85483571D01*
X147756666Y-85531190D01*
X147375714Y-85531190D01*
X148328095Y-85102619D02*
X148375714Y-85055000D01*
X148470952Y-85007380D01*
X148709047Y-85007380D01*
X148804285Y-85055000D01*
X148851904Y-85102619D01*
X148899523Y-85197857D01*
X148899523Y-85293095D01*
X148851904Y-85435952D01*
X148280476Y-86007380D01*
X148899523Y-86007380D01*
X149280476Y-85102619D02*
X149328095Y-85055000D01*
X149423333Y-85007380D01*
X149661428Y-85007380D01*
X149756666Y-85055000D01*
X149804285Y-85102619D01*
X149851904Y-85197857D01*
X149851904Y-85293095D01*
X149804285Y-85435952D01*
X149232857Y-86007380D01*
X149851904Y-86007380D01*
X147947142Y-79657380D02*
X147613809Y-79181190D01*
X147375714Y-79657380D02*
X147375714Y-78657380D01*
X147756666Y-78657380D01*
X147851904Y-78705000D01*
X147899523Y-78752619D01*
X147947142Y-78847857D01*
X147947142Y-78990714D01*
X147899523Y-79085952D01*
X147851904Y-79133571D01*
X147756666Y-79181190D01*
X147375714Y-79181190D01*
X148328095Y-78752619D02*
X148375714Y-78705000D01*
X148470952Y-78657380D01*
X148709047Y-78657380D01*
X148804285Y-78705000D01*
X148851904Y-78752619D01*
X148899523Y-78847857D01*
X148899523Y-78943095D01*
X148851904Y-79085952D01*
X148280476Y-79657380D01*
X148899523Y-79657380D01*
X149232857Y-78657380D02*
X149851904Y-78657380D01*
X149518571Y-79038333D01*
X149661428Y-79038333D01*
X149756666Y-79085952D01*
X149804285Y-79133571D01*
X149851904Y-79228809D01*
X149851904Y-79466904D01*
X149804285Y-79562142D01*
X149756666Y-79609761D01*
X149661428Y-79657380D01*
X149375714Y-79657380D01*
X149280476Y-79609761D01*
X149232857Y-79562142D01*
X147947142Y-73307380D02*
X147613809Y-72831190D01*
X147375714Y-73307380D02*
X147375714Y-72307380D01*
X147756666Y-72307380D01*
X147851904Y-72355000D01*
X147899523Y-72402619D01*
X147947142Y-72497857D01*
X147947142Y-72640714D01*
X147899523Y-72735952D01*
X147851904Y-72783571D01*
X147756666Y-72831190D01*
X147375714Y-72831190D01*
X148328095Y-72402619D02*
X148375714Y-72355000D01*
X148470952Y-72307380D01*
X148709047Y-72307380D01*
X148804285Y-72355000D01*
X148851904Y-72402619D01*
X148899523Y-72497857D01*
X148899523Y-72593095D01*
X148851904Y-72735952D01*
X148280476Y-73307380D01*
X148899523Y-73307380D01*
X149756666Y-72640714D02*
X149756666Y-73307380D01*
X149518571Y-72259761D02*
X149280476Y-72974047D01*
X149899523Y-72974047D01*
M02*
