G04 #@! TF.GenerationSoftware,KiCad,Pcbnew,5.1.4-3.fc30*
G04 #@! TF.CreationDate,2019-11-27T18:44:14-08:00*
G04 #@! TF.ProjectId,DASH,44415348-2e6b-4696-9361-645f70636258,rev?*
G04 #@! TF.SameCoordinates,Original*
G04 #@! TF.FileFunction,Soldermask,Top*
G04 #@! TF.FilePolarity,Negative*
%FSLAX46Y46*%
G04 Gerber Fmt 4.6, Leading zero omitted, Abs format (unit mm)*
G04 Created by KiCad (PCBNEW 5.1.4-3.fc30) date 2019-11-27 18:44:14*
%MOMM*%
%LPD*%
G04 APERTURE LIST*
%ADD10C,0.100000*%
G04 APERTURE END LIST*
D10*
G36*
X159609549Y-105551116D02*
G01*
X159720734Y-105573232D01*
X159930203Y-105659997D01*
X160118720Y-105785960D01*
X160279040Y-105946280D01*
X160405003Y-106134797D01*
X160491768Y-106344266D01*
X160536000Y-106566636D01*
X160536000Y-106793364D01*
X160491768Y-107015734D01*
X160405003Y-107225203D01*
X160279040Y-107413720D01*
X160118720Y-107574040D01*
X159930203Y-107700003D01*
X159720734Y-107786768D01*
X159609549Y-107808884D01*
X159498365Y-107831000D01*
X159271635Y-107831000D01*
X159160451Y-107808884D01*
X159049266Y-107786768D01*
X158839797Y-107700003D01*
X158651280Y-107574040D01*
X158490960Y-107413720D01*
X158364997Y-107225203D01*
X158278232Y-107015734D01*
X158234000Y-106793364D01*
X158234000Y-106566636D01*
X158278232Y-106344266D01*
X158364997Y-106134797D01*
X158490960Y-105946280D01*
X158651280Y-105785960D01*
X158839797Y-105659997D01*
X159049266Y-105573232D01*
X159160451Y-105551116D01*
X159271635Y-105529000D01*
X159498365Y-105529000D01*
X159609549Y-105551116D01*
X159609549Y-105551116D01*
G37*
G36*
X89759549Y-105551116D02*
G01*
X89870734Y-105573232D01*
X90080203Y-105659997D01*
X90268720Y-105785960D01*
X90429040Y-105946280D01*
X90555003Y-106134797D01*
X90641768Y-106344266D01*
X90686000Y-106566636D01*
X90686000Y-106793364D01*
X90641768Y-107015734D01*
X90555003Y-107225203D01*
X90429040Y-107413720D01*
X90268720Y-107574040D01*
X90080203Y-107700003D01*
X89870734Y-107786768D01*
X89759549Y-107808884D01*
X89648365Y-107831000D01*
X89421635Y-107831000D01*
X89310451Y-107808884D01*
X89199266Y-107786768D01*
X88989797Y-107700003D01*
X88801280Y-107574040D01*
X88640960Y-107413720D01*
X88514997Y-107225203D01*
X88428232Y-107015734D01*
X88384000Y-106793364D01*
X88384000Y-106566636D01*
X88428232Y-106344266D01*
X88514997Y-106134797D01*
X88640960Y-105946280D01*
X88801280Y-105785960D01*
X88989797Y-105659997D01*
X89199266Y-105573232D01*
X89310451Y-105551116D01*
X89421635Y-105529000D01*
X89648365Y-105529000D01*
X89759549Y-105551116D01*
X89759549Y-105551116D01*
G37*
G36*
X127801823Y-101396313D02*
G01*
X127962242Y-101444976D01*
X128029361Y-101480852D01*
X128110078Y-101523996D01*
X128239659Y-101630341D01*
X128346004Y-101759922D01*
X128346005Y-101759924D01*
X128425024Y-101907758D01*
X128473687Y-102068177D01*
X128490117Y-102235000D01*
X128473687Y-102401823D01*
X128425024Y-102562242D01*
X128384477Y-102638100D01*
X128346004Y-102710078D01*
X128239659Y-102839659D01*
X128110078Y-102946004D01*
X128110076Y-102946005D01*
X127962242Y-103025024D01*
X127801823Y-103073687D01*
X127676804Y-103086000D01*
X127593196Y-103086000D01*
X127468177Y-103073687D01*
X127307758Y-103025024D01*
X127159924Y-102946005D01*
X127159922Y-102946004D01*
X127030341Y-102839659D01*
X126923996Y-102710078D01*
X126885523Y-102638100D01*
X126844976Y-102562242D01*
X126796313Y-102401823D01*
X126779883Y-102235000D01*
X126796313Y-102068177D01*
X126844976Y-101907758D01*
X126923995Y-101759924D01*
X126923996Y-101759922D01*
X127030341Y-101630341D01*
X127159922Y-101523996D01*
X127240639Y-101480852D01*
X127307758Y-101444976D01*
X127468177Y-101396313D01*
X127593196Y-101384000D01*
X127676804Y-101384000D01*
X127801823Y-101396313D01*
X127801823Y-101396313D01*
G37*
G36*
X111291823Y-101396313D02*
G01*
X111452242Y-101444976D01*
X111519361Y-101480852D01*
X111600078Y-101523996D01*
X111729659Y-101630341D01*
X111836004Y-101759922D01*
X111836005Y-101759924D01*
X111915024Y-101907758D01*
X111963687Y-102068177D01*
X111980117Y-102235000D01*
X111963687Y-102401823D01*
X111915024Y-102562242D01*
X111874477Y-102638100D01*
X111836004Y-102710078D01*
X111729659Y-102839659D01*
X111600078Y-102946004D01*
X111600076Y-102946005D01*
X111452242Y-103025024D01*
X111291823Y-103073687D01*
X111166804Y-103086000D01*
X111083196Y-103086000D01*
X110958177Y-103073687D01*
X110797758Y-103025024D01*
X110649924Y-102946005D01*
X110649922Y-102946004D01*
X110520341Y-102839659D01*
X110413996Y-102710078D01*
X110375523Y-102638100D01*
X110334976Y-102562242D01*
X110286313Y-102401823D01*
X110269883Y-102235000D01*
X110286313Y-102068177D01*
X110334976Y-101907758D01*
X110413995Y-101759924D01*
X110413996Y-101759922D01*
X110520341Y-101630341D01*
X110649922Y-101523996D01*
X110730639Y-101480852D01*
X110797758Y-101444976D01*
X110958177Y-101396313D01*
X111083196Y-101384000D01*
X111166804Y-101384000D01*
X111291823Y-101396313D01*
X111291823Y-101396313D01*
G37*
G36*
X121533228Y-101416703D02*
G01*
X121688100Y-101480853D01*
X121827481Y-101573985D01*
X121946015Y-101692519D01*
X122039147Y-101831900D01*
X122103297Y-101986772D01*
X122136000Y-102151184D01*
X122136000Y-102318816D01*
X122103297Y-102483228D01*
X122039147Y-102638100D01*
X121946015Y-102777481D01*
X121827481Y-102896015D01*
X121688100Y-102989147D01*
X121533228Y-103053297D01*
X121368816Y-103086000D01*
X121201184Y-103086000D01*
X121036772Y-103053297D01*
X120881900Y-102989147D01*
X120742519Y-102896015D01*
X120623985Y-102777481D01*
X120530853Y-102638100D01*
X120466703Y-102483228D01*
X120434000Y-102318816D01*
X120434000Y-102151184D01*
X120466703Y-101986772D01*
X120530853Y-101831900D01*
X120623985Y-101692519D01*
X120742519Y-101573985D01*
X120881900Y-101480853D01*
X121036772Y-101416703D01*
X121201184Y-101384000D01*
X121368816Y-101384000D01*
X121533228Y-101416703D01*
X121533228Y-101416703D01*
G37*
G36*
X103118228Y-101416703D02*
G01*
X103273100Y-101480853D01*
X103412481Y-101573985D01*
X103531015Y-101692519D01*
X103624147Y-101831900D01*
X103688297Y-101986772D01*
X103721000Y-102151184D01*
X103721000Y-102318816D01*
X103688297Y-102483228D01*
X103624147Y-102638100D01*
X103531015Y-102777481D01*
X103412481Y-102896015D01*
X103273100Y-102989147D01*
X103118228Y-103053297D01*
X102953816Y-103086000D01*
X102786184Y-103086000D01*
X102621772Y-103053297D01*
X102466900Y-102989147D01*
X102327519Y-102896015D01*
X102208985Y-102777481D01*
X102115853Y-102638100D01*
X102051703Y-102483228D01*
X102019000Y-102318816D01*
X102019000Y-102151184D01*
X102051703Y-101986772D01*
X102115853Y-101831900D01*
X102208985Y-101692519D01*
X102327519Y-101573985D01*
X102466900Y-101480853D01*
X102621772Y-101416703D01*
X102786184Y-101384000D01*
X102953816Y-101384000D01*
X103118228Y-101416703D01*
X103118228Y-101416703D01*
G37*
G36*
X92876823Y-101396313D02*
G01*
X93037242Y-101444976D01*
X93104361Y-101480852D01*
X93185078Y-101523996D01*
X93314659Y-101630341D01*
X93421004Y-101759922D01*
X93421005Y-101759924D01*
X93500024Y-101907758D01*
X93548687Y-102068177D01*
X93565117Y-102235000D01*
X93548687Y-102401823D01*
X93500024Y-102562242D01*
X93459477Y-102638100D01*
X93421004Y-102710078D01*
X93314659Y-102839659D01*
X93185078Y-102946004D01*
X93185076Y-102946005D01*
X93037242Y-103025024D01*
X92876823Y-103073687D01*
X92751804Y-103086000D01*
X92668196Y-103086000D01*
X92543177Y-103073687D01*
X92382758Y-103025024D01*
X92234924Y-102946005D01*
X92234922Y-102946004D01*
X92105341Y-102839659D01*
X91998996Y-102710078D01*
X91960523Y-102638100D01*
X91919976Y-102562242D01*
X91871313Y-102401823D01*
X91854883Y-102235000D01*
X91871313Y-102068177D01*
X91919976Y-101907758D01*
X91998995Y-101759924D01*
X91998996Y-101759922D01*
X92105341Y-101630341D01*
X92234922Y-101523996D01*
X92315639Y-101480852D01*
X92382758Y-101444976D01*
X92543177Y-101396313D01*
X92668196Y-101384000D01*
X92751804Y-101384000D01*
X92876823Y-101396313D01*
X92876823Y-101396313D01*
G37*
G36*
X143676823Y-101396313D02*
G01*
X143837242Y-101444976D01*
X143904361Y-101480852D01*
X143985078Y-101523996D01*
X144114659Y-101630341D01*
X144221004Y-101759922D01*
X144221005Y-101759924D01*
X144300024Y-101907758D01*
X144348687Y-102068177D01*
X144365117Y-102235000D01*
X144348687Y-102401823D01*
X144300024Y-102562242D01*
X144259477Y-102638100D01*
X144221004Y-102710078D01*
X144114659Y-102839659D01*
X143985078Y-102946004D01*
X143985076Y-102946005D01*
X143837242Y-103025024D01*
X143676823Y-103073687D01*
X143551804Y-103086000D01*
X143468196Y-103086000D01*
X143343177Y-103073687D01*
X143182758Y-103025024D01*
X143034924Y-102946005D01*
X143034922Y-102946004D01*
X142905341Y-102839659D01*
X142798996Y-102710078D01*
X142760523Y-102638100D01*
X142719976Y-102562242D01*
X142671313Y-102401823D01*
X142654883Y-102235000D01*
X142671313Y-102068177D01*
X142719976Y-101907758D01*
X142798995Y-101759924D01*
X142798996Y-101759922D01*
X142905341Y-101630341D01*
X143034922Y-101523996D01*
X143115639Y-101480852D01*
X143182758Y-101444976D01*
X143343177Y-101396313D01*
X143468196Y-101384000D01*
X143551804Y-101384000D01*
X143676823Y-101396313D01*
X143676823Y-101396313D01*
G37*
G36*
X153918228Y-101416703D02*
G01*
X154073100Y-101480853D01*
X154212481Y-101573985D01*
X154331015Y-101692519D01*
X154424147Y-101831900D01*
X154488297Y-101986772D01*
X154521000Y-102151184D01*
X154521000Y-102318816D01*
X154488297Y-102483228D01*
X154424147Y-102638100D01*
X154331015Y-102777481D01*
X154212481Y-102896015D01*
X154073100Y-102989147D01*
X153918228Y-103053297D01*
X153753816Y-103086000D01*
X153586184Y-103086000D01*
X153421772Y-103053297D01*
X153266900Y-102989147D01*
X153127519Y-102896015D01*
X153008985Y-102777481D01*
X152915853Y-102638100D01*
X152851703Y-102483228D01*
X152819000Y-102318816D01*
X152819000Y-102151184D01*
X152851703Y-101986772D01*
X152915853Y-101831900D01*
X153008985Y-101692519D01*
X153127519Y-101573985D01*
X153266900Y-101480853D01*
X153421772Y-101416703D01*
X153586184Y-101384000D01*
X153753816Y-101384000D01*
X153918228Y-101416703D01*
X153918228Y-101416703D01*
G37*
G36*
X138043228Y-101416703D02*
G01*
X138198100Y-101480853D01*
X138337481Y-101573985D01*
X138456015Y-101692519D01*
X138549147Y-101831900D01*
X138613297Y-101986772D01*
X138646000Y-102151184D01*
X138646000Y-102318816D01*
X138613297Y-102483228D01*
X138549147Y-102638100D01*
X138456015Y-102777481D01*
X138337481Y-102896015D01*
X138198100Y-102989147D01*
X138043228Y-103053297D01*
X137878816Y-103086000D01*
X137711184Y-103086000D01*
X137546772Y-103053297D01*
X137391900Y-102989147D01*
X137252519Y-102896015D01*
X137133985Y-102777481D01*
X137040853Y-102638100D01*
X136976703Y-102483228D01*
X136944000Y-102318816D01*
X136944000Y-102151184D01*
X136976703Y-101986772D01*
X137040853Y-101831900D01*
X137133985Y-101692519D01*
X137252519Y-101573985D01*
X137391900Y-101480853D01*
X137546772Y-101416703D01*
X137711184Y-101384000D01*
X137878816Y-101384000D01*
X138043228Y-101416703D01*
X138043228Y-101416703D01*
G37*
G36*
X85973600Y-100702989D02*
G01*
X86006652Y-100713015D01*
X86037103Y-100729292D01*
X86063799Y-100751201D01*
X86085708Y-100777897D01*
X86101985Y-100808348D01*
X86112011Y-100841400D01*
X86116000Y-100881903D01*
X86116000Y-102318097D01*
X86112011Y-102358600D01*
X86101985Y-102391652D01*
X86085708Y-102422103D01*
X86063799Y-102448799D01*
X86037103Y-102470708D01*
X86006652Y-102486985D01*
X85973600Y-102497011D01*
X85933097Y-102501000D01*
X84246903Y-102501000D01*
X84206400Y-102497011D01*
X84173348Y-102486985D01*
X84142897Y-102470708D01*
X84116201Y-102448799D01*
X84094292Y-102422103D01*
X84078015Y-102391652D01*
X84067989Y-102358600D01*
X84064000Y-102318097D01*
X84064000Y-100881903D01*
X84067989Y-100841400D01*
X84078015Y-100808348D01*
X84094292Y-100777897D01*
X84116201Y-100751201D01*
X84142897Y-100729292D01*
X84173348Y-100713015D01*
X84206400Y-100702989D01*
X84246903Y-100699000D01*
X85933097Y-100699000D01*
X85973600Y-100702989D01*
X85973600Y-100702989D01*
G37*
G36*
X164078600Y-98992989D02*
G01*
X164111652Y-99003015D01*
X164142103Y-99019292D01*
X164168799Y-99041201D01*
X164190708Y-99067897D01*
X164206985Y-99098348D01*
X164217011Y-99131400D01*
X164221000Y-99171903D01*
X164221000Y-100608097D01*
X164217011Y-100648600D01*
X164206985Y-100681652D01*
X164190708Y-100712103D01*
X164168799Y-100738799D01*
X164142103Y-100760708D01*
X164111652Y-100776985D01*
X164078600Y-100787011D01*
X164038097Y-100791000D01*
X162351903Y-100791000D01*
X162311400Y-100787011D01*
X162278348Y-100776985D01*
X162247897Y-100760708D01*
X162221201Y-100738799D01*
X162199292Y-100712103D01*
X162183015Y-100681652D01*
X162172989Y-100648600D01*
X162169000Y-100608097D01*
X162169000Y-99171903D01*
X162172989Y-99131400D01*
X162183015Y-99098348D01*
X162199292Y-99067897D01*
X162221201Y-99041201D01*
X162247897Y-99019292D01*
X162278348Y-99003015D01*
X162311400Y-98992989D01*
X162351903Y-98989000D01*
X164038097Y-98989000D01*
X164078600Y-98992989D01*
X164078600Y-98992989D01*
G37*
G36*
X85325443Y-98205519D02*
G01*
X85391627Y-98212037D01*
X85561466Y-98263557D01*
X85717991Y-98347222D01*
X85753729Y-98376552D01*
X85855186Y-98459814D01*
X85938448Y-98561271D01*
X85967778Y-98597009D01*
X86051443Y-98753534D01*
X86102963Y-98923373D01*
X86120359Y-99100000D01*
X86102963Y-99276627D01*
X86051443Y-99446466D01*
X85967778Y-99602991D01*
X85938448Y-99638729D01*
X85855186Y-99740186D01*
X85753729Y-99823448D01*
X85717991Y-99852778D01*
X85561466Y-99936443D01*
X85391627Y-99987963D01*
X85325442Y-99994482D01*
X85259260Y-100001000D01*
X84920740Y-100001000D01*
X84854558Y-99994482D01*
X84788373Y-99987963D01*
X84618534Y-99936443D01*
X84462009Y-99852778D01*
X84426271Y-99823448D01*
X84324814Y-99740186D01*
X84241552Y-99638729D01*
X84212222Y-99602991D01*
X84128557Y-99446466D01*
X84077037Y-99276627D01*
X84059641Y-99100000D01*
X84077037Y-98923373D01*
X84128557Y-98753534D01*
X84212222Y-98597009D01*
X84241552Y-98561271D01*
X84324814Y-98459814D01*
X84426271Y-98376552D01*
X84462009Y-98347222D01*
X84618534Y-98263557D01*
X84788373Y-98212037D01*
X84854557Y-98205519D01*
X84920740Y-98199000D01*
X85259260Y-98199000D01*
X85325443Y-98205519D01*
X85325443Y-98205519D01*
G37*
G36*
X163430442Y-96495518D02*
G01*
X163496627Y-96502037D01*
X163666466Y-96553557D01*
X163822991Y-96637222D01*
X163858729Y-96666552D01*
X163960186Y-96749814D01*
X164043448Y-96851271D01*
X164072778Y-96887009D01*
X164156443Y-97043534D01*
X164207963Y-97213373D01*
X164225359Y-97390000D01*
X164207963Y-97566627D01*
X164156443Y-97736466D01*
X164072778Y-97892991D01*
X164043448Y-97928729D01*
X163960186Y-98030186D01*
X163858729Y-98113448D01*
X163822991Y-98142778D01*
X163666466Y-98226443D01*
X163496627Y-98277963D01*
X163430443Y-98284481D01*
X163364260Y-98291000D01*
X163025740Y-98291000D01*
X162959557Y-98284481D01*
X162893373Y-98277963D01*
X162723534Y-98226443D01*
X162567009Y-98142778D01*
X162531271Y-98113448D01*
X162429814Y-98030186D01*
X162346552Y-97928729D01*
X162317222Y-97892991D01*
X162233557Y-97736466D01*
X162182037Y-97566627D01*
X162164641Y-97390000D01*
X162182037Y-97213373D01*
X162233557Y-97043534D01*
X162317222Y-96887009D01*
X162346552Y-96851271D01*
X162429814Y-96749814D01*
X162531271Y-96666552D01*
X162567009Y-96637222D01*
X162723534Y-96553557D01*
X162893373Y-96502037D01*
X162959558Y-96495518D01*
X163025740Y-96489000D01*
X163364260Y-96489000D01*
X163430442Y-96495518D01*
X163430442Y-96495518D01*
G37*
G36*
X85325443Y-95705519D02*
G01*
X85391627Y-95712037D01*
X85561466Y-95763557D01*
X85561468Y-95763558D01*
X85639729Y-95805390D01*
X85717991Y-95847222D01*
X85753729Y-95876552D01*
X85855186Y-95959814D01*
X85930695Y-96051823D01*
X85967778Y-96097009D01*
X86051443Y-96253534D01*
X86102963Y-96423373D01*
X86120359Y-96600000D01*
X86102963Y-96776627D01*
X86051443Y-96946466D01*
X85967778Y-97102991D01*
X85938448Y-97138729D01*
X85855186Y-97240186D01*
X85753729Y-97323448D01*
X85717991Y-97352778D01*
X85561466Y-97436443D01*
X85391627Y-97487963D01*
X85325442Y-97494482D01*
X85259260Y-97501000D01*
X84920740Y-97501000D01*
X84854558Y-97494482D01*
X84788373Y-97487963D01*
X84618534Y-97436443D01*
X84462009Y-97352778D01*
X84426271Y-97323448D01*
X84324814Y-97240186D01*
X84241552Y-97138729D01*
X84212222Y-97102991D01*
X84128557Y-96946466D01*
X84077037Y-96776627D01*
X84059641Y-96600000D01*
X84077037Y-96423373D01*
X84128557Y-96253534D01*
X84212222Y-96097009D01*
X84249305Y-96051823D01*
X84324814Y-95959814D01*
X84426271Y-95876552D01*
X84462009Y-95847222D01*
X84540271Y-95805390D01*
X84618532Y-95763558D01*
X84618534Y-95763557D01*
X84788373Y-95712037D01*
X84854557Y-95705519D01*
X84920740Y-95699000D01*
X85259260Y-95699000D01*
X85325443Y-95705519D01*
X85325443Y-95705519D01*
G37*
G36*
X138043228Y-95066703D02*
G01*
X138198100Y-95130853D01*
X138337481Y-95223985D01*
X138456015Y-95342519D01*
X138549147Y-95481900D01*
X138613297Y-95636772D01*
X138646000Y-95801184D01*
X138646000Y-95968816D01*
X138613297Y-96133228D01*
X138549147Y-96288100D01*
X138456015Y-96427481D01*
X138337481Y-96546015D01*
X138198100Y-96639147D01*
X138043228Y-96703297D01*
X137878816Y-96736000D01*
X137711184Y-96736000D01*
X137546772Y-96703297D01*
X137391900Y-96639147D01*
X137252519Y-96546015D01*
X137133985Y-96427481D01*
X137040853Y-96288100D01*
X136976703Y-96133228D01*
X136944000Y-95968816D01*
X136944000Y-95801184D01*
X136976703Y-95636772D01*
X137040853Y-95481900D01*
X137133985Y-95342519D01*
X137252519Y-95223985D01*
X137391900Y-95130853D01*
X137546772Y-95066703D01*
X137711184Y-95034000D01*
X137878816Y-95034000D01*
X138043228Y-95066703D01*
X138043228Y-95066703D01*
G37*
G36*
X127801823Y-95046313D02*
G01*
X127962242Y-95094976D01*
X128029361Y-95130852D01*
X128110078Y-95173996D01*
X128239659Y-95280341D01*
X128346004Y-95409922D01*
X128346005Y-95409924D01*
X128425024Y-95557758D01*
X128473687Y-95718177D01*
X128490117Y-95885000D01*
X128473687Y-96051823D01*
X128425024Y-96212242D01*
X128384477Y-96288100D01*
X128346004Y-96360078D01*
X128239659Y-96489659D01*
X128110078Y-96596004D01*
X128110076Y-96596005D01*
X127962242Y-96675024D01*
X127801823Y-96723687D01*
X127676804Y-96736000D01*
X127593196Y-96736000D01*
X127468177Y-96723687D01*
X127307758Y-96675024D01*
X127159924Y-96596005D01*
X127159922Y-96596004D01*
X127030341Y-96489659D01*
X126923996Y-96360078D01*
X126885523Y-96288100D01*
X126844976Y-96212242D01*
X126796313Y-96051823D01*
X126779883Y-95885000D01*
X126796313Y-95718177D01*
X126844976Y-95557758D01*
X126923995Y-95409924D01*
X126923996Y-95409922D01*
X127030341Y-95280341D01*
X127159922Y-95173996D01*
X127240639Y-95130852D01*
X127307758Y-95094976D01*
X127468177Y-95046313D01*
X127593196Y-95034000D01*
X127676804Y-95034000D01*
X127801823Y-95046313D01*
X127801823Y-95046313D01*
G37*
G36*
X121533228Y-95066703D02*
G01*
X121688100Y-95130853D01*
X121827481Y-95223985D01*
X121946015Y-95342519D01*
X122039147Y-95481900D01*
X122103297Y-95636772D01*
X122136000Y-95801184D01*
X122136000Y-95968816D01*
X122103297Y-96133228D01*
X122039147Y-96288100D01*
X121946015Y-96427481D01*
X121827481Y-96546015D01*
X121688100Y-96639147D01*
X121533228Y-96703297D01*
X121368816Y-96736000D01*
X121201184Y-96736000D01*
X121036772Y-96703297D01*
X120881900Y-96639147D01*
X120742519Y-96546015D01*
X120623985Y-96427481D01*
X120530853Y-96288100D01*
X120466703Y-96133228D01*
X120434000Y-95968816D01*
X120434000Y-95801184D01*
X120466703Y-95636772D01*
X120530853Y-95481900D01*
X120623985Y-95342519D01*
X120742519Y-95223985D01*
X120881900Y-95130853D01*
X121036772Y-95066703D01*
X121201184Y-95034000D01*
X121368816Y-95034000D01*
X121533228Y-95066703D01*
X121533228Y-95066703D01*
G37*
G36*
X111291823Y-95046313D02*
G01*
X111452242Y-95094976D01*
X111519361Y-95130852D01*
X111600078Y-95173996D01*
X111729659Y-95280341D01*
X111836004Y-95409922D01*
X111836005Y-95409924D01*
X111915024Y-95557758D01*
X111963687Y-95718177D01*
X111980117Y-95885000D01*
X111963687Y-96051823D01*
X111915024Y-96212242D01*
X111874477Y-96288100D01*
X111836004Y-96360078D01*
X111729659Y-96489659D01*
X111600078Y-96596004D01*
X111600076Y-96596005D01*
X111452242Y-96675024D01*
X111291823Y-96723687D01*
X111166804Y-96736000D01*
X111083196Y-96736000D01*
X110958177Y-96723687D01*
X110797758Y-96675024D01*
X110649924Y-96596005D01*
X110649922Y-96596004D01*
X110520341Y-96489659D01*
X110413996Y-96360078D01*
X110375523Y-96288100D01*
X110334976Y-96212242D01*
X110286313Y-96051823D01*
X110269883Y-95885000D01*
X110286313Y-95718177D01*
X110334976Y-95557758D01*
X110413995Y-95409924D01*
X110413996Y-95409922D01*
X110520341Y-95280341D01*
X110649922Y-95173996D01*
X110730639Y-95130852D01*
X110797758Y-95094976D01*
X110958177Y-95046313D01*
X111083196Y-95034000D01*
X111166804Y-95034000D01*
X111291823Y-95046313D01*
X111291823Y-95046313D01*
G37*
G36*
X103118228Y-95066703D02*
G01*
X103273100Y-95130853D01*
X103412481Y-95223985D01*
X103531015Y-95342519D01*
X103624147Y-95481900D01*
X103688297Y-95636772D01*
X103721000Y-95801184D01*
X103721000Y-95968816D01*
X103688297Y-96133228D01*
X103624147Y-96288100D01*
X103531015Y-96427481D01*
X103412481Y-96546015D01*
X103273100Y-96639147D01*
X103118228Y-96703297D01*
X102953816Y-96736000D01*
X102786184Y-96736000D01*
X102621772Y-96703297D01*
X102466900Y-96639147D01*
X102327519Y-96546015D01*
X102208985Y-96427481D01*
X102115853Y-96288100D01*
X102051703Y-96133228D01*
X102019000Y-95968816D01*
X102019000Y-95801184D01*
X102051703Y-95636772D01*
X102115853Y-95481900D01*
X102208985Y-95342519D01*
X102327519Y-95223985D01*
X102466900Y-95130853D01*
X102621772Y-95066703D01*
X102786184Y-95034000D01*
X102953816Y-95034000D01*
X103118228Y-95066703D01*
X103118228Y-95066703D01*
G37*
G36*
X143676823Y-95046313D02*
G01*
X143837242Y-95094976D01*
X143904361Y-95130852D01*
X143985078Y-95173996D01*
X144114659Y-95280341D01*
X144221004Y-95409922D01*
X144221005Y-95409924D01*
X144300024Y-95557758D01*
X144348687Y-95718177D01*
X144365117Y-95885000D01*
X144348687Y-96051823D01*
X144300024Y-96212242D01*
X144259477Y-96288100D01*
X144221004Y-96360078D01*
X144114659Y-96489659D01*
X143985078Y-96596004D01*
X143985076Y-96596005D01*
X143837242Y-96675024D01*
X143676823Y-96723687D01*
X143551804Y-96736000D01*
X143468196Y-96736000D01*
X143343177Y-96723687D01*
X143182758Y-96675024D01*
X143034924Y-96596005D01*
X143034922Y-96596004D01*
X142905341Y-96489659D01*
X142798996Y-96360078D01*
X142760523Y-96288100D01*
X142719976Y-96212242D01*
X142671313Y-96051823D01*
X142654883Y-95885000D01*
X142671313Y-95718177D01*
X142719976Y-95557758D01*
X142798995Y-95409924D01*
X142798996Y-95409922D01*
X142905341Y-95280341D01*
X143034922Y-95173996D01*
X143115639Y-95130852D01*
X143182758Y-95094976D01*
X143343177Y-95046313D01*
X143468196Y-95034000D01*
X143551804Y-95034000D01*
X143676823Y-95046313D01*
X143676823Y-95046313D01*
G37*
G36*
X153918228Y-95066703D02*
G01*
X154073100Y-95130853D01*
X154212481Y-95223985D01*
X154331015Y-95342519D01*
X154424147Y-95481900D01*
X154488297Y-95636772D01*
X154521000Y-95801184D01*
X154521000Y-95968816D01*
X154488297Y-96133228D01*
X154424147Y-96288100D01*
X154331015Y-96427481D01*
X154212481Y-96546015D01*
X154073100Y-96639147D01*
X153918228Y-96703297D01*
X153753816Y-96736000D01*
X153586184Y-96736000D01*
X153421772Y-96703297D01*
X153266900Y-96639147D01*
X153127519Y-96546015D01*
X153008985Y-96427481D01*
X152915853Y-96288100D01*
X152851703Y-96133228D01*
X152819000Y-95968816D01*
X152819000Y-95801184D01*
X152851703Y-95636772D01*
X152915853Y-95481900D01*
X153008985Y-95342519D01*
X153127519Y-95223985D01*
X153266900Y-95130853D01*
X153421772Y-95066703D01*
X153586184Y-95034000D01*
X153753816Y-95034000D01*
X153918228Y-95066703D01*
X153918228Y-95066703D01*
G37*
G36*
X92876823Y-95046313D02*
G01*
X93037242Y-95094976D01*
X93104361Y-95130852D01*
X93185078Y-95173996D01*
X93314659Y-95280341D01*
X93421004Y-95409922D01*
X93421005Y-95409924D01*
X93500024Y-95557758D01*
X93548687Y-95718177D01*
X93565117Y-95885000D01*
X93548687Y-96051823D01*
X93500024Y-96212242D01*
X93459477Y-96288100D01*
X93421004Y-96360078D01*
X93314659Y-96489659D01*
X93185078Y-96596004D01*
X93185076Y-96596005D01*
X93037242Y-96675024D01*
X92876823Y-96723687D01*
X92751804Y-96736000D01*
X92668196Y-96736000D01*
X92543177Y-96723687D01*
X92382758Y-96675024D01*
X92234924Y-96596005D01*
X92234922Y-96596004D01*
X92105341Y-96489659D01*
X91998996Y-96360078D01*
X91960523Y-96288100D01*
X91919976Y-96212242D01*
X91871313Y-96051823D01*
X91854883Y-95885000D01*
X91871313Y-95718177D01*
X91919976Y-95557758D01*
X91998995Y-95409924D01*
X91998996Y-95409922D01*
X92105341Y-95280341D01*
X92234922Y-95173996D01*
X92315639Y-95130852D01*
X92382758Y-95094976D01*
X92543177Y-95046313D01*
X92668196Y-95034000D01*
X92751804Y-95034000D01*
X92876823Y-95046313D01*
X92876823Y-95046313D01*
G37*
G36*
X163430442Y-93995518D02*
G01*
X163496627Y-94002037D01*
X163666466Y-94053557D01*
X163822991Y-94137222D01*
X163858729Y-94166552D01*
X163960186Y-94249814D01*
X164043448Y-94351271D01*
X164072778Y-94387009D01*
X164156443Y-94543534D01*
X164207963Y-94713373D01*
X164225359Y-94890000D01*
X164207963Y-95066627D01*
X164156443Y-95236466D01*
X164072778Y-95392991D01*
X164058883Y-95409922D01*
X163960186Y-95530186D01*
X163858729Y-95613448D01*
X163822991Y-95642778D01*
X163822989Y-95642779D01*
X163681931Y-95718177D01*
X163666466Y-95726443D01*
X163496627Y-95777963D01*
X163430443Y-95784481D01*
X163364260Y-95791000D01*
X163025740Y-95791000D01*
X162959557Y-95784481D01*
X162893373Y-95777963D01*
X162723534Y-95726443D01*
X162708070Y-95718177D01*
X162567011Y-95642779D01*
X162567009Y-95642778D01*
X162531271Y-95613448D01*
X162429814Y-95530186D01*
X162331117Y-95409922D01*
X162317222Y-95392991D01*
X162233557Y-95236466D01*
X162182037Y-95066627D01*
X162164641Y-94890000D01*
X162182037Y-94713373D01*
X162233557Y-94543534D01*
X162317222Y-94387009D01*
X162346552Y-94351271D01*
X162429814Y-94249814D01*
X162531271Y-94166552D01*
X162567009Y-94137222D01*
X162723534Y-94053557D01*
X162893373Y-94002037D01*
X162959557Y-93995519D01*
X163025740Y-93989000D01*
X163364260Y-93989000D01*
X163430442Y-93995518D01*
X163430442Y-93995518D01*
G37*
G36*
X85325443Y-93205519D02*
G01*
X85391627Y-93212037D01*
X85561466Y-93263557D01*
X85717991Y-93347222D01*
X85753729Y-93376552D01*
X85855186Y-93459814D01*
X85938448Y-93561271D01*
X85967778Y-93597009D01*
X86051443Y-93753534D01*
X86102963Y-93923373D01*
X86120359Y-94100000D01*
X86102963Y-94276627D01*
X86051443Y-94446466D01*
X85967778Y-94602991D01*
X85938448Y-94638729D01*
X85855186Y-94740186D01*
X85753729Y-94823448D01*
X85717991Y-94852778D01*
X85561466Y-94936443D01*
X85391627Y-94987963D01*
X85325443Y-94994481D01*
X85259260Y-95001000D01*
X84920740Y-95001000D01*
X84854557Y-94994481D01*
X84788373Y-94987963D01*
X84618534Y-94936443D01*
X84462009Y-94852778D01*
X84426271Y-94823448D01*
X84324814Y-94740186D01*
X84241552Y-94638729D01*
X84212222Y-94602991D01*
X84128557Y-94446466D01*
X84077037Y-94276627D01*
X84059641Y-94100000D01*
X84077037Y-93923373D01*
X84128557Y-93753534D01*
X84212222Y-93597009D01*
X84241552Y-93561271D01*
X84324814Y-93459814D01*
X84426271Y-93376552D01*
X84462009Y-93347222D01*
X84618534Y-93263557D01*
X84788373Y-93212037D01*
X84854557Y-93205519D01*
X84920740Y-93199000D01*
X85259260Y-93199000D01*
X85325443Y-93205519D01*
X85325443Y-93205519D01*
G37*
G36*
X163430442Y-91495518D02*
G01*
X163496627Y-91502037D01*
X163666466Y-91553557D01*
X163822991Y-91637222D01*
X163858729Y-91666552D01*
X163960186Y-91749814D01*
X164043448Y-91851271D01*
X164072778Y-91887009D01*
X164156443Y-92043534D01*
X164207963Y-92213373D01*
X164225359Y-92390000D01*
X164207963Y-92566627D01*
X164156443Y-92736466D01*
X164072778Y-92892991D01*
X164043448Y-92928729D01*
X163960186Y-93030186D01*
X163858729Y-93113448D01*
X163822991Y-93142778D01*
X163666466Y-93226443D01*
X163496627Y-93277963D01*
X163430443Y-93284481D01*
X163364260Y-93291000D01*
X163025740Y-93291000D01*
X162959557Y-93284481D01*
X162893373Y-93277963D01*
X162723534Y-93226443D01*
X162567009Y-93142778D01*
X162531271Y-93113448D01*
X162429814Y-93030186D01*
X162346552Y-92928729D01*
X162317222Y-92892991D01*
X162233557Y-92736466D01*
X162182037Y-92566627D01*
X162164641Y-92390000D01*
X162182037Y-92213373D01*
X162233557Y-92043534D01*
X162317222Y-91887009D01*
X162346552Y-91851271D01*
X162429814Y-91749814D01*
X162531271Y-91666552D01*
X162567009Y-91637222D01*
X162723534Y-91553557D01*
X162893373Y-91502037D01*
X162959557Y-91495519D01*
X163025740Y-91489000D01*
X163364260Y-91489000D01*
X163430442Y-91495518D01*
X163430442Y-91495518D01*
G37*
G36*
X85325442Y-90705518D02*
G01*
X85391627Y-90712037D01*
X85561466Y-90763557D01*
X85717991Y-90847222D01*
X85753729Y-90876552D01*
X85855186Y-90959814D01*
X85938448Y-91061271D01*
X85967778Y-91097009D01*
X86051443Y-91253534D01*
X86102963Y-91423373D01*
X86120359Y-91600000D01*
X86102963Y-91776627D01*
X86051443Y-91946466D01*
X85967778Y-92102991D01*
X85938448Y-92138729D01*
X85855186Y-92240186D01*
X85753729Y-92323448D01*
X85717991Y-92352778D01*
X85561466Y-92436443D01*
X85391627Y-92487963D01*
X85325442Y-92494482D01*
X85259260Y-92501000D01*
X84920740Y-92501000D01*
X84854558Y-92494482D01*
X84788373Y-92487963D01*
X84618534Y-92436443D01*
X84462009Y-92352778D01*
X84426271Y-92323448D01*
X84324814Y-92240186D01*
X84241552Y-92138729D01*
X84212222Y-92102991D01*
X84128557Y-91946466D01*
X84077037Y-91776627D01*
X84059641Y-91600000D01*
X84077037Y-91423373D01*
X84128557Y-91253534D01*
X84212222Y-91097009D01*
X84241552Y-91061271D01*
X84324814Y-90959814D01*
X84426271Y-90876552D01*
X84462009Y-90847222D01*
X84618534Y-90763557D01*
X84788373Y-90712037D01*
X84854558Y-90705518D01*
X84920740Y-90699000D01*
X85259260Y-90699000D01*
X85325442Y-90705518D01*
X85325442Y-90705518D01*
G37*
G36*
X163430442Y-88995518D02*
G01*
X163496627Y-89002037D01*
X163666466Y-89053557D01*
X163822991Y-89137222D01*
X163858729Y-89166552D01*
X163960186Y-89249814D01*
X164043448Y-89351271D01*
X164072778Y-89387009D01*
X164072779Y-89387011D01*
X164151882Y-89535000D01*
X164156443Y-89543534D01*
X164207963Y-89713373D01*
X164225359Y-89890000D01*
X164207963Y-90066627D01*
X164156443Y-90236466D01*
X164072778Y-90392991D01*
X164043448Y-90428729D01*
X163960186Y-90530186D01*
X163858729Y-90613448D01*
X163822991Y-90642778D01*
X163666466Y-90726443D01*
X163496627Y-90777963D01*
X163430443Y-90784481D01*
X163364260Y-90791000D01*
X163025740Y-90791000D01*
X162959558Y-90784482D01*
X162893373Y-90777963D01*
X162723534Y-90726443D01*
X162567009Y-90642778D01*
X162531271Y-90613448D01*
X162429814Y-90530186D01*
X162346552Y-90428729D01*
X162317222Y-90392991D01*
X162233557Y-90236466D01*
X162182037Y-90066627D01*
X162164641Y-89890000D01*
X162182037Y-89713373D01*
X162233557Y-89543534D01*
X162238119Y-89535000D01*
X162317221Y-89387011D01*
X162317222Y-89387009D01*
X162346552Y-89351271D01*
X162429814Y-89249814D01*
X162531271Y-89166552D01*
X162567009Y-89137222D01*
X162723534Y-89053557D01*
X162893373Y-89002037D01*
X162959558Y-88995518D01*
X163025740Y-88989000D01*
X163364260Y-88989000D01*
X163430442Y-88995518D01*
X163430442Y-88995518D01*
G37*
G36*
X153918228Y-88716703D02*
G01*
X154073100Y-88780853D01*
X154212481Y-88873985D01*
X154331015Y-88992519D01*
X154424147Y-89131900D01*
X154488297Y-89286772D01*
X154521000Y-89451184D01*
X154521000Y-89618816D01*
X154488297Y-89783228D01*
X154424147Y-89938100D01*
X154331015Y-90077481D01*
X154212481Y-90196015D01*
X154073100Y-90289147D01*
X153918228Y-90353297D01*
X153753816Y-90386000D01*
X153586184Y-90386000D01*
X153421772Y-90353297D01*
X153266900Y-90289147D01*
X153127519Y-90196015D01*
X153008985Y-90077481D01*
X152915853Y-89938100D01*
X152851703Y-89783228D01*
X152819000Y-89618816D01*
X152819000Y-89451184D01*
X152851703Y-89286772D01*
X152915853Y-89131900D01*
X153008985Y-88992519D01*
X153127519Y-88873985D01*
X153266900Y-88780853D01*
X153421772Y-88716703D01*
X153586184Y-88684000D01*
X153753816Y-88684000D01*
X153918228Y-88716703D01*
X153918228Y-88716703D01*
G37*
G36*
X121533228Y-88716703D02*
G01*
X121688100Y-88780853D01*
X121827481Y-88873985D01*
X121946015Y-88992519D01*
X122039147Y-89131900D01*
X122103297Y-89286772D01*
X122136000Y-89451184D01*
X122136000Y-89618816D01*
X122103297Y-89783228D01*
X122039147Y-89938100D01*
X121946015Y-90077481D01*
X121827481Y-90196015D01*
X121688100Y-90289147D01*
X121533228Y-90353297D01*
X121368816Y-90386000D01*
X121201184Y-90386000D01*
X121036772Y-90353297D01*
X120881900Y-90289147D01*
X120742519Y-90196015D01*
X120623985Y-90077481D01*
X120530853Y-89938100D01*
X120466703Y-89783228D01*
X120434000Y-89618816D01*
X120434000Y-89451184D01*
X120466703Y-89286772D01*
X120530853Y-89131900D01*
X120623985Y-88992519D01*
X120742519Y-88873985D01*
X120881900Y-88780853D01*
X121036772Y-88716703D01*
X121201184Y-88684000D01*
X121368816Y-88684000D01*
X121533228Y-88716703D01*
X121533228Y-88716703D01*
G37*
G36*
X111291823Y-88696313D02*
G01*
X111452242Y-88744976D01*
X111519361Y-88780852D01*
X111600078Y-88823996D01*
X111729659Y-88930341D01*
X111836004Y-89059922D01*
X111836005Y-89059924D01*
X111915024Y-89207758D01*
X111963687Y-89368177D01*
X111980117Y-89535000D01*
X111963687Y-89701823D01*
X111915024Y-89862242D01*
X111874477Y-89938100D01*
X111836004Y-90010078D01*
X111729659Y-90139659D01*
X111600078Y-90246004D01*
X111600076Y-90246005D01*
X111452242Y-90325024D01*
X111291823Y-90373687D01*
X111166804Y-90386000D01*
X111083196Y-90386000D01*
X110958177Y-90373687D01*
X110797758Y-90325024D01*
X110649924Y-90246005D01*
X110649922Y-90246004D01*
X110520341Y-90139659D01*
X110413996Y-90010078D01*
X110375523Y-89938100D01*
X110334976Y-89862242D01*
X110286313Y-89701823D01*
X110269883Y-89535000D01*
X110286313Y-89368177D01*
X110334976Y-89207758D01*
X110413995Y-89059924D01*
X110413996Y-89059922D01*
X110520341Y-88930341D01*
X110649922Y-88823996D01*
X110730639Y-88780852D01*
X110797758Y-88744976D01*
X110958177Y-88696313D01*
X111083196Y-88684000D01*
X111166804Y-88684000D01*
X111291823Y-88696313D01*
X111291823Y-88696313D01*
G37*
G36*
X138043228Y-88716703D02*
G01*
X138198100Y-88780853D01*
X138337481Y-88873985D01*
X138456015Y-88992519D01*
X138549147Y-89131900D01*
X138613297Y-89286772D01*
X138646000Y-89451184D01*
X138646000Y-89618816D01*
X138613297Y-89783228D01*
X138549147Y-89938100D01*
X138456015Y-90077481D01*
X138337481Y-90196015D01*
X138198100Y-90289147D01*
X138043228Y-90353297D01*
X137878816Y-90386000D01*
X137711184Y-90386000D01*
X137546772Y-90353297D01*
X137391900Y-90289147D01*
X137252519Y-90196015D01*
X137133985Y-90077481D01*
X137040853Y-89938100D01*
X136976703Y-89783228D01*
X136944000Y-89618816D01*
X136944000Y-89451184D01*
X136976703Y-89286772D01*
X137040853Y-89131900D01*
X137133985Y-88992519D01*
X137252519Y-88873985D01*
X137391900Y-88780853D01*
X137546772Y-88716703D01*
X137711184Y-88684000D01*
X137878816Y-88684000D01*
X138043228Y-88716703D01*
X138043228Y-88716703D01*
G37*
G36*
X127801823Y-88696313D02*
G01*
X127962242Y-88744976D01*
X128029361Y-88780852D01*
X128110078Y-88823996D01*
X128239659Y-88930341D01*
X128346004Y-89059922D01*
X128346005Y-89059924D01*
X128425024Y-89207758D01*
X128473687Y-89368177D01*
X128490117Y-89535000D01*
X128473687Y-89701823D01*
X128425024Y-89862242D01*
X128384477Y-89938100D01*
X128346004Y-90010078D01*
X128239659Y-90139659D01*
X128110078Y-90246004D01*
X128110076Y-90246005D01*
X127962242Y-90325024D01*
X127801823Y-90373687D01*
X127676804Y-90386000D01*
X127593196Y-90386000D01*
X127468177Y-90373687D01*
X127307758Y-90325024D01*
X127159924Y-90246005D01*
X127159922Y-90246004D01*
X127030341Y-90139659D01*
X126923996Y-90010078D01*
X126885523Y-89938100D01*
X126844976Y-89862242D01*
X126796313Y-89701823D01*
X126779883Y-89535000D01*
X126796313Y-89368177D01*
X126844976Y-89207758D01*
X126923995Y-89059924D01*
X126923996Y-89059922D01*
X127030341Y-88930341D01*
X127159922Y-88823996D01*
X127240639Y-88780852D01*
X127307758Y-88744976D01*
X127468177Y-88696313D01*
X127593196Y-88684000D01*
X127676804Y-88684000D01*
X127801823Y-88696313D01*
X127801823Y-88696313D01*
G37*
G36*
X103118228Y-88716703D02*
G01*
X103273100Y-88780853D01*
X103412481Y-88873985D01*
X103531015Y-88992519D01*
X103624147Y-89131900D01*
X103688297Y-89286772D01*
X103721000Y-89451184D01*
X103721000Y-89618816D01*
X103688297Y-89783228D01*
X103624147Y-89938100D01*
X103531015Y-90077481D01*
X103412481Y-90196015D01*
X103273100Y-90289147D01*
X103118228Y-90353297D01*
X102953816Y-90386000D01*
X102786184Y-90386000D01*
X102621772Y-90353297D01*
X102466900Y-90289147D01*
X102327519Y-90196015D01*
X102208985Y-90077481D01*
X102115853Y-89938100D01*
X102051703Y-89783228D01*
X102019000Y-89618816D01*
X102019000Y-89451184D01*
X102051703Y-89286772D01*
X102115853Y-89131900D01*
X102208985Y-88992519D01*
X102327519Y-88873985D01*
X102466900Y-88780853D01*
X102621772Y-88716703D01*
X102786184Y-88684000D01*
X102953816Y-88684000D01*
X103118228Y-88716703D01*
X103118228Y-88716703D01*
G37*
G36*
X92876823Y-88696313D02*
G01*
X93037242Y-88744976D01*
X93104361Y-88780852D01*
X93185078Y-88823996D01*
X93314659Y-88930341D01*
X93421004Y-89059922D01*
X93421005Y-89059924D01*
X93500024Y-89207758D01*
X93548687Y-89368177D01*
X93565117Y-89535000D01*
X93548687Y-89701823D01*
X93500024Y-89862242D01*
X93459477Y-89938100D01*
X93421004Y-90010078D01*
X93314659Y-90139659D01*
X93185078Y-90246004D01*
X93185076Y-90246005D01*
X93037242Y-90325024D01*
X92876823Y-90373687D01*
X92751804Y-90386000D01*
X92668196Y-90386000D01*
X92543177Y-90373687D01*
X92382758Y-90325024D01*
X92234924Y-90246005D01*
X92234922Y-90246004D01*
X92105341Y-90139659D01*
X91998996Y-90010078D01*
X91960523Y-89938100D01*
X91919976Y-89862242D01*
X91871313Y-89701823D01*
X91854883Y-89535000D01*
X91871313Y-89368177D01*
X91919976Y-89207758D01*
X91998995Y-89059924D01*
X91998996Y-89059922D01*
X92105341Y-88930341D01*
X92234922Y-88823996D01*
X92315639Y-88780852D01*
X92382758Y-88744976D01*
X92543177Y-88696313D01*
X92668196Y-88684000D01*
X92751804Y-88684000D01*
X92876823Y-88696313D01*
X92876823Y-88696313D01*
G37*
G36*
X143676823Y-88696313D02*
G01*
X143837242Y-88744976D01*
X143904361Y-88780852D01*
X143985078Y-88823996D01*
X144114659Y-88930341D01*
X144221004Y-89059922D01*
X144221005Y-89059924D01*
X144300024Y-89207758D01*
X144348687Y-89368177D01*
X144365117Y-89535000D01*
X144348687Y-89701823D01*
X144300024Y-89862242D01*
X144259477Y-89938100D01*
X144221004Y-90010078D01*
X144114659Y-90139659D01*
X143985078Y-90246004D01*
X143985076Y-90246005D01*
X143837242Y-90325024D01*
X143676823Y-90373687D01*
X143551804Y-90386000D01*
X143468196Y-90386000D01*
X143343177Y-90373687D01*
X143182758Y-90325024D01*
X143034924Y-90246005D01*
X143034922Y-90246004D01*
X142905341Y-90139659D01*
X142798996Y-90010078D01*
X142760523Y-89938100D01*
X142719976Y-89862242D01*
X142671313Y-89701823D01*
X142654883Y-89535000D01*
X142671313Y-89368177D01*
X142719976Y-89207758D01*
X142798995Y-89059924D01*
X142798996Y-89059922D01*
X142905341Y-88930341D01*
X143034922Y-88823996D01*
X143115639Y-88780852D01*
X143182758Y-88744976D01*
X143343177Y-88696313D01*
X143468196Y-88684000D01*
X143551804Y-88684000D01*
X143676823Y-88696313D01*
X143676823Y-88696313D01*
G37*
G36*
X85325443Y-88205519D02*
G01*
X85391627Y-88212037D01*
X85561466Y-88263557D01*
X85717991Y-88347222D01*
X85753729Y-88376552D01*
X85855186Y-88459814D01*
X85938448Y-88561271D01*
X85967778Y-88597009D01*
X86051443Y-88753534D01*
X86102963Y-88923373D01*
X86120359Y-89100000D01*
X86102963Y-89276627D01*
X86051443Y-89446466D01*
X85967778Y-89602991D01*
X85938448Y-89638729D01*
X85855186Y-89740186D01*
X85753729Y-89823448D01*
X85717991Y-89852778D01*
X85561466Y-89936443D01*
X85391627Y-89987963D01*
X85325442Y-89994482D01*
X85259260Y-90001000D01*
X84920740Y-90001000D01*
X84854558Y-89994482D01*
X84788373Y-89987963D01*
X84618534Y-89936443D01*
X84462009Y-89852778D01*
X84426271Y-89823448D01*
X84324814Y-89740186D01*
X84241552Y-89638729D01*
X84212222Y-89602991D01*
X84128557Y-89446466D01*
X84077037Y-89276627D01*
X84059641Y-89100000D01*
X84077037Y-88923373D01*
X84128557Y-88753534D01*
X84212222Y-88597009D01*
X84241552Y-88561271D01*
X84324814Y-88459814D01*
X84426271Y-88376552D01*
X84462009Y-88347222D01*
X84618534Y-88263557D01*
X84788373Y-88212037D01*
X84854557Y-88205519D01*
X84920740Y-88199000D01*
X85259260Y-88199000D01*
X85325443Y-88205519D01*
X85325443Y-88205519D01*
G37*
G36*
X163430443Y-86495519D02*
G01*
X163496627Y-86502037D01*
X163666466Y-86553557D01*
X163822991Y-86637222D01*
X163858729Y-86666552D01*
X163960186Y-86749814D01*
X164043448Y-86851271D01*
X164072778Y-86887009D01*
X164156443Y-87043534D01*
X164207963Y-87213373D01*
X164225359Y-87390000D01*
X164207963Y-87566627D01*
X164156443Y-87736466D01*
X164072778Y-87892991D01*
X164043448Y-87928729D01*
X163960186Y-88030186D01*
X163858729Y-88113448D01*
X163822991Y-88142778D01*
X163666466Y-88226443D01*
X163496627Y-88277963D01*
X163430443Y-88284481D01*
X163364260Y-88291000D01*
X163025740Y-88291000D01*
X162959557Y-88284481D01*
X162893373Y-88277963D01*
X162723534Y-88226443D01*
X162567009Y-88142778D01*
X162531271Y-88113448D01*
X162429814Y-88030186D01*
X162346552Y-87928729D01*
X162317222Y-87892991D01*
X162233557Y-87736466D01*
X162182037Y-87566627D01*
X162164641Y-87390000D01*
X162182037Y-87213373D01*
X162233557Y-87043534D01*
X162317222Y-86887009D01*
X162346552Y-86851271D01*
X162429814Y-86749814D01*
X162531271Y-86666552D01*
X162567009Y-86637222D01*
X162723534Y-86553557D01*
X162893373Y-86502037D01*
X162959557Y-86495519D01*
X163025740Y-86489000D01*
X163364260Y-86489000D01*
X163430443Y-86495519D01*
X163430443Y-86495519D01*
G37*
G36*
X85325442Y-85705518D02*
G01*
X85391627Y-85712037D01*
X85561466Y-85763557D01*
X85717991Y-85847222D01*
X85753729Y-85876552D01*
X85855186Y-85959814D01*
X85938448Y-86061271D01*
X85967778Y-86097009D01*
X86051443Y-86253534D01*
X86102963Y-86423373D01*
X86120359Y-86600000D01*
X86102963Y-86776627D01*
X86051443Y-86946466D01*
X85967778Y-87102991D01*
X85938448Y-87138729D01*
X85855186Y-87240186D01*
X85753729Y-87323448D01*
X85717991Y-87352778D01*
X85561466Y-87436443D01*
X85391627Y-87487963D01*
X85325442Y-87494482D01*
X85259260Y-87501000D01*
X84920740Y-87501000D01*
X84854558Y-87494482D01*
X84788373Y-87487963D01*
X84618534Y-87436443D01*
X84462009Y-87352778D01*
X84426271Y-87323448D01*
X84324814Y-87240186D01*
X84241552Y-87138729D01*
X84212222Y-87102991D01*
X84128557Y-86946466D01*
X84077037Y-86776627D01*
X84059641Y-86600000D01*
X84077037Y-86423373D01*
X84128557Y-86253534D01*
X84212222Y-86097009D01*
X84241552Y-86061271D01*
X84324814Y-85959814D01*
X84426271Y-85876552D01*
X84462009Y-85847222D01*
X84618534Y-85763557D01*
X84788373Y-85712037D01*
X84854558Y-85705518D01*
X84920740Y-85699000D01*
X85259260Y-85699000D01*
X85325442Y-85705518D01*
X85325442Y-85705518D01*
G37*
G36*
X163430443Y-83995519D02*
G01*
X163496627Y-84002037D01*
X163666466Y-84053557D01*
X163822991Y-84137222D01*
X163858729Y-84166552D01*
X163960186Y-84249814D01*
X164043448Y-84351271D01*
X164072778Y-84387009D01*
X164156443Y-84543534D01*
X164207963Y-84713373D01*
X164225359Y-84890000D01*
X164207963Y-85066627D01*
X164156443Y-85236466D01*
X164072778Y-85392991D01*
X164043448Y-85428729D01*
X163960186Y-85530186D01*
X163858729Y-85613448D01*
X163822991Y-85642778D01*
X163666466Y-85726443D01*
X163496627Y-85777963D01*
X163430443Y-85784481D01*
X163364260Y-85791000D01*
X163025740Y-85791000D01*
X162959557Y-85784481D01*
X162893373Y-85777963D01*
X162723534Y-85726443D01*
X162567009Y-85642778D01*
X162531271Y-85613448D01*
X162429814Y-85530186D01*
X162346552Y-85428729D01*
X162317222Y-85392991D01*
X162233557Y-85236466D01*
X162182037Y-85066627D01*
X162164641Y-84890000D01*
X162182037Y-84713373D01*
X162233557Y-84543534D01*
X162317222Y-84387009D01*
X162346552Y-84351271D01*
X162429814Y-84249814D01*
X162531271Y-84166552D01*
X162567009Y-84137222D01*
X162723534Y-84053557D01*
X162893373Y-84002037D01*
X162959557Y-83995519D01*
X163025740Y-83989000D01*
X163364260Y-83989000D01*
X163430443Y-83995519D01*
X163430443Y-83995519D01*
G37*
G36*
X85325443Y-83205519D02*
G01*
X85391627Y-83212037D01*
X85561466Y-83263557D01*
X85717991Y-83347222D01*
X85753729Y-83376552D01*
X85855186Y-83459814D01*
X85938448Y-83561271D01*
X85967778Y-83597009D01*
X86051443Y-83753534D01*
X86102963Y-83923373D01*
X86120359Y-84100000D01*
X86102963Y-84276627D01*
X86051443Y-84446466D01*
X85967778Y-84602991D01*
X85938448Y-84638729D01*
X85855186Y-84740186D01*
X85753729Y-84823448D01*
X85717991Y-84852778D01*
X85561466Y-84936443D01*
X85391627Y-84987963D01*
X85325442Y-84994482D01*
X85259260Y-85001000D01*
X84920740Y-85001000D01*
X84854558Y-84994482D01*
X84788373Y-84987963D01*
X84618534Y-84936443D01*
X84462009Y-84852778D01*
X84426271Y-84823448D01*
X84324814Y-84740186D01*
X84241552Y-84638729D01*
X84212222Y-84602991D01*
X84128557Y-84446466D01*
X84077037Y-84276627D01*
X84059641Y-84100000D01*
X84077037Y-83923373D01*
X84128557Y-83753534D01*
X84212222Y-83597009D01*
X84241552Y-83561271D01*
X84324814Y-83459814D01*
X84426271Y-83376552D01*
X84462009Y-83347222D01*
X84618534Y-83263557D01*
X84788373Y-83212037D01*
X84854557Y-83205519D01*
X84920740Y-83199000D01*
X85259260Y-83199000D01*
X85325443Y-83205519D01*
X85325443Y-83205519D01*
G37*
G36*
X103118228Y-82366703D02*
G01*
X103273100Y-82430853D01*
X103412481Y-82523985D01*
X103531015Y-82642519D01*
X103624147Y-82781900D01*
X103688297Y-82936772D01*
X103721000Y-83101184D01*
X103721000Y-83268816D01*
X103688297Y-83433228D01*
X103624147Y-83588100D01*
X103531015Y-83727481D01*
X103412481Y-83846015D01*
X103273100Y-83939147D01*
X103118228Y-84003297D01*
X102953816Y-84036000D01*
X102786184Y-84036000D01*
X102621772Y-84003297D01*
X102466900Y-83939147D01*
X102327519Y-83846015D01*
X102208985Y-83727481D01*
X102115853Y-83588100D01*
X102051703Y-83433228D01*
X102019000Y-83268816D01*
X102019000Y-83101184D01*
X102051703Y-82936772D01*
X102115853Y-82781900D01*
X102208985Y-82642519D01*
X102327519Y-82523985D01*
X102466900Y-82430853D01*
X102621772Y-82366703D01*
X102786184Y-82334000D01*
X102953816Y-82334000D01*
X103118228Y-82366703D01*
X103118228Y-82366703D01*
G37*
G36*
X111291823Y-82346313D02*
G01*
X111422380Y-82385917D01*
X111435839Y-82390000D01*
X111452242Y-82394976D01*
X111519361Y-82430852D01*
X111600078Y-82473996D01*
X111729659Y-82580341D01*
X111836004Y-82709922D01*
X111836005Y-82709924D01*
X111915024Y-82857758D01*
X111963687Y-83018177D01*
X111980117Y-83185000D01*
X111963687Y-83351823D01*
X111915024Y-83512242D01*
X111874477Y-83588100D01*
X111836004Y-83660078D01*
X111729659Y-83789659D01*
X111600078Y-83896004D01*
X111600076Y-83896005D01*
X111452242Y-83975024D01*
X111291823Y-84023687D01*
X111166804Y-84036000D01*
X111083196Y-84036000D01*
X110958177Y-84023687D01*
X110797758Y-83975024D01*
X110649924Y-83896005D01*
X110649922Y-83896004D01*
X110520341Y-83789659D01*
X110413996Y-83660078D01*
X110375523Y-83588100D01*
X110334976Y-83512242D01*
X110286313Y-83351823D01*
X110269883Y-83185000D01*
X110286313Y-83018177D01*
X110334976Y-82857758D01*
X110413995Y-82709924D01*
X110413996Y-82709922D01*
X110520341Y-82580341D01*
X110649922Y-82473996D01*
X110730639Y-82430852D01*
X110797758Y-82394976D01*
X110814162Y-82390000D01*
X110827620Y-82385917D01*
X110958177Y-82346313D01*
X111083196Y-82334000D01*
X111166804Y-82334000D01*
X111291823Y-82346313D01*
X111291823Y-82346313D01*
G37*
G36*
X121533228Y-82366703D02*
G01*
X121688100Y-82430853D01*
X121827481Y-82523985D01*
X121946015Y-82642519D01*
X122039147Y-82781900D01*
X122103297Y-82936772D01*
X122136000Y-83101184D01*
X122136000Y-83268816D01*
X122103297Y-83433228D01*
X122039147Y-83588100D01*
X121946015Y-83727481D01*
X121827481Y-83846015D01*
X121688100Y-83939147D01*
X121533228Y-84003297D01*
X121368816Y-84036000D01*
X121201184Y-84036000D01*
X121036772Y-84003297D01*
X120881900Y-83939147D01*
X120742519Y-83846015D01*
X120623985Y-83727481D01*
X120530853Y-83588100D01*
X120466703Y-83433228D01*
X120434000Y-83268816D01*
X120434000Y-83101184D01*
X120466703Y-82936772D01*
X120530853Y-82781900D01*
X120623985Y-82642519D01*
X120742519Y-82523985D01*
X120881900Y-82430853D01*
X121036772Y-82366703D01*
X121201184Y-82334000D01*
X121368816Y-82334000D01*
X121533228Y-82366703D01*
X121533228Y-82366703D01*
G37*
G36*
X138043228Y-82366703D02*
G01*
X138198100Y-82430853D01*
X138337481Y-82523985D01*
X138456015Y-82642519D01*
X138549147Y-82781900D01*
X138613297Y-82936772D01*
X138646000Y-83101184D01*
X138646000Y-83268816D01*
X138613297Y-83433228D01*
X138549147Y-83588100D01*
X138456015Y-83727481D01*
X138337481Y-83846015D01*
X138198100Y-83939147D01*
X138043228Y-84003297D01*
X137878816Y-84036000D01*
X137711184Y-84036000D01*
X137546772Y-84003297D01*
X137391900Y-83939147D01*
X137252519Y-83846015D01*
X137133985Y-83727481D01*
X137040853Y-83588100D01*
X136976703Y-83433228D01*
X136944000Y-83268816D01*
X136944000Y-83101184D01*
X136976703Y-82936772D01*
X137040853Y-82781900D01*
X137133985Y-82642519D01*
X137252519Y-82523985D01*
X137391900Y-82430853D01*
X137546772Y-82366703D01*
X137711184Y-82334000D01*
X137878816Y-82334000D01*
X138043228Y-82366703D01*
X138043228Y-82366703D01*
G37*
G36*
X127801823Y-82346313D02*
G01*
X127932380Y-82385917D01*
X127945839Y-82390000D01*
X127962242Y-82394976D01*
X128029361Y-82430852D01*
X128110078Y-82473996D01*
X128239659Y-82580341D01*
X128346004Y-82709922D01*
X128346005Y-82709924D01*
X128425024Y-82857758D01*
X128473687Y-83018177D01*
X128490117Y-83185000D01*
X128473687Y-83351823D01*
X128425024Y-83512242D01*
X128384477Y-83588100D01*
X128346004Y-83660078D01*
X128239659Y-83789659D01*
X128110078Y-83896004D01*
X128110076Y-83896005D01*
X127962242Y-83975024D01*
X127801823Y-84023687D01*
X127676804Y-84036000D01*
X127593196Y-84036000D01*
X127468177Y-84023687D01*
X127307758Y-83975024D01*
X127159924Y-83896005D01*
X127159922Y-83896004D01*
X127030341Y-83789659D01*
X126923996Y-83660078D01*
X126885523Y-83588100D01*
X126844976Y-83512242D01*
X126796313Y-83351823D01*
X126779883Y-83185000D01*
X126796313Y-83018177D01*
X126844976Y-82857758D01*
X126923995Y-82709924D01*
X126923996Y-82709922D01*
X127030341Y-82580341D01*
X127159922Y-82473996D01*
X127240639Y-82430852D01*
X127307758Y-82394976D01*
X127324162Y-82390000D01*
X127337620Y-82385917D01*
X127468177Y-82346313D01*
X127593196Y-82334000D01*
X127676804Y-82334000D01*
X127801823Y-82346313D01*
X127801823Y-82346313D01*
G37*
G36*
X143676823Y-82346313D02*
G01*
X143807380Y-82385917D01*
X143820839Y-82390000D01*
X143837242Y-82394976D01*
X143904361Y-82430852D01*
X143985078Y-82473996D01*
X144114659Y-82580341D01*
X144221004Y-82709922D01*
X144221005Y-82709924D01*
X144300024Y-82857758D01*
X144348687Y-83018177D01*
X144365117Y-83185000D01*
X144348687Y-83351823D01*
X144300024Y-83512242D01*
X144259477Y-83588100D01*
X144221004Y-83660078D01*
X144114659Y-83789659D01*
X143985078Y-83896004D01*
X143985076Y-83896005D01*
X143837242Y-83975024D01*
X143676823Y-84023687D01*
X143551804Y-84036000D01*
X143468196Y-84036000D01*
X143343177Y-84023687D01*
X143182758Y-83975024D01*
X143034924Y-83896005D01*
X143034922Y-83896004D01*
X142905341Y-83789659D01*
X142798996Y-83660078D01*
X142760523Y-83588100D01*
X142719976Y-83512242D01*
X142671313Y-83351823D01*
X142654883Y-83185000D01*
X142671313Y-83018177D01*
X142719976Y-82857758D01*
X142798995Y-82709924D01*
X142798996Y-82709922D01*
X142905341Y-82580341D01*
X143034922Y-82473996D01*
X143115639Y-82430852D01*
X143182758Y-82394976D01*
X143199162Y-82390000D01*
X143212620Y-82385917D01*
X143343177Y-82346313D01*
X143468196Y-82334000D01*
X143551804Y-82334000D01*
X143676823Y-82346313D01*
X143676823Y-82346313D01*
G37*
G36*
X153918228Y-82366703D02*
G01*
X154073100Y-82430853D01*
X154212481Y-82523985D01*
X154331015Y-82642519D01*
X154424147Y-82781900D01*
X154488297Y-82936772D01*
X154521000Y-83101184D01*
X154521000Y-83268816D01*
X154488297Y-83433228D01*
X154424147Y-83588100D01*
X154331015Y-83727481D01*
X154212481Y-83846015D01*
X154073100Y-83939147D01*
X153918228Y-84003297D01*
X153753816Y-84036000D01*
X153586184Y-84036000D01*
X153421772Y-84003297D01*
X153266900Y-83939147D01*
X153127519Y-83846015D01*
X153008985Y-83727481D01*
X152915853Y-83588100D01*
X152851703Y-83433228D01*
X152819000Y-83268816D01*
X152819000Y-83101184D01*
X152851703Y-82936772D01*
X152915853Y-82781900D01*
X153008985Y-82642519D01*
X153127519Y-82523985D01*
X153266900Y-82430853D01*
X153421772Y-82366703D01*
X153586184Y-82334000D01*
X153753816Y-82334000D01*
X153918228Y-82366703D01*
X153918228Y-82366703D01*
G37*
G36*
X92876823Y-82346313D02*
G01*
X93007380Y-82385917D01*
X93020839Y-82390000D01*
X93037242Y-82394976D01*
X93104361Y-82430852D01*
X93185078Y-82473996D01*
X93314659Y-82580341D01*
X93421004Y-82709922D01*
X93421005Y-82709924D01*
X93500024Y-82857758D01*
X93548687Y-83018177D01*
X93565117Y-83185000D01*
X93548687Y-83351823D01*
X93500024Y-83512242D01*
X93459477Y-83588100D01*
X93421004Y-83660078D01*
X93314659Y-83789659D01*
X93185078Y-83896004D01*
X93185076Y-83896005D01*
X93037242Y-83975024D01*
X92876823Y-84023687D01*
X92751804Y-84036000D01*
X92668196Y-84036000D01*
X92543177Y-84023687D01*
X92382758Y-83975024D01*
X92234924Y-83896005D01*
X92234922Y-83896004D01*
X92105341Y-83789659D01*
X91998996Y-83660078D01*
X91960523Y-83588100D01*
X91919976Y-83512242D01*
X91871313Y-83351823D01*
X91854883Y-83185000D01*
X91871313Y-83018177D01*
X91919976Y-82857758D01*
X91998995Y-82709924D01*
X91998996Y-82709922D01*
X92105341Y-82580341D01*
X92234922Y-82473996D01*
X92315639Y-82430852D01*
X92382758Y-82394976D01*
X92399162Y-82390000D01*
X92412620Y-82385917D01*
X92543177Y-82346313D01*
X92668196Y-82334000D01*
X92751804Y-82334000D01*
X92876823Y-82346313D01*
X92876823Y-82346313D01*
G37*
G36*
X163430442Y-81495518D02*
G01*
X163496627Y-81502037D01*
X163666466Y-81553557D01*
X163822991Y-81637222D01*
X163858729Y-81666552D01*
X163960186Y-81749814D01*
X164043448Y-81851271D01*
X164072778Y-81887009D01*
X164156443Y-82043534D01*
X164207963Y-82213373D01*
X164225359Y-82390000D01*
X164207963Y-82566627D01*
X164156443Y-82736466D01*
X164072778Y-82892991D01*
X164043448Y-82928729D01*
X163960186Y-83030186D01*
X163873673Y-83101184D01*
X163822991Y-83142778D01*
X163666466Y-83226443D01*
X163496627Y-83277963D01*
X163430442Y-83284482D01*
X163364260Y-83291000D01*
X163025740Y-83291000D01*
X162959558Y-83284482D01*
X162893373Y-83277963D01*
X162723534Y-83226443D01*
X162567009Y-83142778D01*
X162516327Y-83101184D01*
X162429814Y-83030186D01*
X162346552Y-82928729D01*
X162317222Y-82892991D01*
X162233557Y-82736466D01*
X162182037Y-82566627D01*
X162164641Y-82390000D01*
X162182037Y-82213373D01*
X162233557Y-82043534D01*
X162317222Y-81887009D01*
X162346552Y-81851271D01*
X162429814Y-81749814D01*
X162531271Y-81666552D01*
X162567009Y-81637222D01*
X162723534Y-81553557D01*
X162893373Y-81502037D01*
X162959558Y-81495518D01*
X163025740Y-81489000D01*
X163364260Y-81489000D01*
X163430442Y-81495518D01*
X163430442Y-81495518D01*
G37*
G36*
X85325442Y-80705518D02*
G01*
X85391627Y-80712037D01*
X85561466Y-80763557D01*
X85717991Y-80847222D01*
X85753729Y-80876552D01*
X85855186Y-80959814D01*
X85938448Y-81061271D01*
X85967778Y-81097009D01*
X86051443Y-81253534D01*
X86102963Y-81423373D01*
X86120359Y-81600000D01*
X86102963Y-81776627D01*
X86051443Y-81946466D01*
X85967778Y-82102991D01*
X85938448Y-82138729D01*
X85855186Y-82240186D01*
X85753729Y-82323448D01*
X85717991Y-82352778D01*
X85561466Y-82436443D01*
X85391627Y-82487963D01*
X85325443Y-82494481D01*
X85259260Y-82501000D01*
X84920740Y-82501000D01*
X84854557Y-82494481D01*
X84788373Y-82487963D01*
X84618534Y-82436443D01*
X84462009Y-82352778D01*
X84426271Y-82323448D01*
X84324814Y-82240186D01*
X84241552Y-82138729D01*
X84212222Y-82102991D01*
X84128557Y-81946466D01*
X84077037Y-81776627D01*
X84059641Y-81600000D01*
X84077037Y-81423373D01*
X84128557Y-81253534D01*
X84212222Y-81097009D01*
X84241552Y-81061271D01*
X84324814Y-80959814D01*
X84426271Y-80876552D01*
X84462009Y-80847222D01*
X84618534Y-80763557D01*
X84788373Y-80712037D01*
X84854558Y-80705518D01*
X84920740Y-80699000D01*
X85259260Y-80699000D01*
X85325442Y-80705518D01*
X85325442Y-80705518D01*
G37*
G36*
X163430443Y-78995519D02*
G01*
X163496627Y-79002037D01*
X163666466Y-79053557D01*
X163822991Y-79137222D01*
X163858729Y-79166552D01*
X163960186Y-79249814D01*
X164043448Y-79351271D01*
X164072778Y-79387009D01*
X164156443Y-79543534D01*
X164207963Y-79713373D01*
X164225359Y-79890000D01*
X164207963Y-80066627D01*
X164156443Y-80236466D01*
X164072778Y-80392991D01*
X164043448Y-80428729D01*
X163960186Y-80530186D01*
X163858729Y-80613448D01*
X163822991Y-80642778D01*
X163666466Y-80726443D01*
X163496627Y-80777963D01*
X163430442Y-80784482D01*
X163364260Y-80791000D01*
X163025740Y-80791000D01*
X162959558Y-80784482D01*
X162893373Y-80777963D01*
X162723534Y-80726443D01*
X162567009Y-80642778D01*
X162531271Y-80613448D01*
X162429814Y-80530186D01*
X162346552Y-80428729D01*
X162317222Y-80392991D01*
X162233557Y-80236466D01*
X162182037Y-80066627D01*
X162164641Y-79890000D01*
X162182037Y-79713373D01*
X162233557Y-79543534D01*
X162317222Y-79387009D01*
X162346552Y-79351271D01*
X162429814Y-79249814D01*
X162531271Y-79166552D01*
X162567009Y-79137222D01*
X162723534Y-79053557D01*
X162893373Y-79002037D01*
X162959557Y-78995519D01*
X163025740Y-78989000D01*
X163364260Y-78989000D01*
X163430443Y-78995519D01*
X163430443Y-78995519D01*
G37*
G36*
X85325442Y-78205518D02*
G01*
X85391627Y-78212037D01*
X85561466Y-78263557D01*
X85717991Y-78347222D01*
X85753729Y-78376552D01*
X85855186Y-78459814D01*
X85938448Y-78561271D01*
X85967778Y-78597009D01*
X86051443Y-78753534D01*
X86102963Y-78923373D01*
X86120359Y-79100000D01*
X86102963Y-79276627D01*
X86051443Y-79446466D01*
X85967778Y-79602991D01*
X85938448Y-79638729D01*
X85855186Y-79740186D01*
X85753729Y-79823448D01*
X85717991Y-79852778D01*
X85561466Y-79936443D01*
X85391627Y-79987963D01*
X85325442Y-79994482D01*
X85259260Y-80001000D01*
X84920740Y-80001000D01*
X84854558Y-79994482D01*
X84788373Y-79987963D01*
X84618534Y-79936443D01*
X84462009Y-79852778D01*
X84426271Y-79823448D01*
X84324814Y-79740186D01*
X84241552Y-79638729D01*
X84212222Y-79602991D01*
X84128557Y-79446466D01*
X84077037Y-79276627D01*
X84059641Y-79100000D01*
X84077037Y-78923373D01*
X84128557Y-78753534D01*
X84212222Y-78597009D01*
X84241552Y-78561271D01*
X84324814Y-78459814D01*
X84426271Y-78376552D01*
X84462009Y-78347222D01*
X84618534Y-78263557D01*
X84788373Y-78212037D01*
X84854558Y-78205518D01*
X84920740Y-78199000D01*
X85259260Y-78199000D01*
X85325442Y-78205518D01*
X85325442Y-78205518D01*
G37*
G36*
X163430443Y-76495519D02*
G01*
X163496627Y-76502037D01*
X163666466Y-76553557D01*
X163822991Y-76637222D01*
X163858729Y-76666552D01*
X163960186Y-76749814D01*
X164030095Y-76835000D01*
X164072778Y-76887009D01*
X164156443Y-77043534D01*
X164207963Y-77213373D01*
X164225359Y-77390000D01*
X164207963Y-77566627D01*
X164156443Y-77736466D01*
X164072778Y-77892991D01*
X164043448Y-77928729D01*
X163960186Y-78030186D01*
X163858729Y-78113448D01*
X163822991Y-78142778D01*
X163666466Y-78226443D01*
X163496627Y-78277963D01*
X163430442Y-78284482D01*
X163364260Y-78291000D01*
X163025740Y-78291000D01*
X162959558Y-78284482D01*
X162893373Y-78277963D01*
X162723534Y-78226443D01*
X162567009Y-78142778D01*
X162531271Y-78113448D01*
X162429814Y-78030186D01*
X162346552Y-77928729D01*
X162317222Y-77892991D01*
X162233557Y-77736466D01*
X162182037Y-77566627D01*
X162164641Y-77390000D01*
X162182037Y-77213373D01*
X162233557Y-77043534D01*
X162317222Y-76887009D01*
X162359905Y-76835000D01*
X162429814Y-76749814D01*
X162531271Y-76666552D01*
X162567009Y-76637222D01*
X162723534Y-76553557D01*
X162893373Y-76502037D01*
X162959557Y-76495519D01*
X163025740Y-76489000D01*
X163364260Y-76489000D01*
X163430443Y-76495519D01*
X163430443Y-76495519D01*
G37*
G36*
X103118228Y-76016703D02*
G01*
X103273100Y-76080853D01*
X103412481Y-76173985D01*
X103531015Y-76292519D01*
X103624147Y-76431900D01*
X103688297Y-76586772D01*
X103721000Y-76751184D01*
X103721000Y-76918816D01*
X103688297Y-77083228D01*
X103624147Y-77238100D01*
X103531015Y-77377481D01*
X103412481Y-77496015D01*
X103273100Y-77589147D01*
X103118228Y-77653297D01*
X102953816Y-77686000D01*
X102786184Y-77686000D01*
X102621772Y-77653297D01*
X102466900Y-77589147D01*
X102327519Y-77496015D01*
X102208985Y-77377481D01*
X102115853Y-77238100D01*
X102051703Y-77083228D01*
X102019000Y-76918816D01*
X102019000Y-76751184D01*
X102051703Y-76586772D01*
X102115853Y-76431900D01*
X102208985Y-76292519D01*
X102327519Y-76173985D01*
X102466900Y-76080853D01*
X102621772Y-76016703D01*
X102786184Y-75984000D01*
X102953816Y-75984000D01*
X103118228Y-76016703D01*
X103118228Y-76016703D01*
G37*
G36*
X92876823Y-75996313D02*
G01*
X93037242Y-76044976D01*
X93169906Y-76115886D01*
X93185078Y-76123996D01*
X93314659Y-76230341D01*
X93421004Y-76359922D01*
X93421005Y-76359924D01*
X93500024Y-76507758D01*
X93548687Y-76668177D01*
X93565117Y-76835000D01*
X93548687Y-77001823D01*
X93500024Y-77162242D01*
X93458362Y-77240186D01*
X93421004Y-77310078D01*
X93314659Y-77439659D01*
X93185078Y-77546004D01*
X93185076Y-77546005D01*
X93037242Y-77625024D01*
X92876823Y-77673687D01*
X92751804Y-77686000D01*
X92668196Y-77686000D01*
X92543177Y-77673687D01*
X92382758Y-77625024D01*
X92234924Y-77546005D01*
X92234922Y-77546004D01*
X92105341Y-77439659D01*
X91998996Y-77310078D01*
X91961638Y-77240186D01*
X91919976Y-77162242D01*
X91871313Y-77001823D01*
X91854883Y-76835000D01*
X91871313Y-76668177D01*
X91919976Y-76507758D01*
X91998995Y-76359924D01*
X91998996Y-76359922D01*
X92105341Y-76230341D01*
X92234922Y-76123996D01*
X92250094Y-76115886D01*
X92382758Y-76044976D01*
X92543177Y-75996313D01*
X92668196Y-75984000D01*
X92751804Y-75984000D01*
X92876823Y-75996313D01*
X92876823Y-75996313D01*
G37*
G36*
X143676823Y-75996313D02*
G01*
X143837242Y-76044976D01*
X143969906Y-76115886D01*
X143985078Y-76123996D01*
X144114659Y-76230341D01*
X144221004Y-76359922D01*
X144221005Y-76359924D01*
X144300024Y-76507758D01*
X144348687Y-76668177D01*
X144365117Y-76835000D01*
X144348687Y-77001823D01*
X144300024Y-77162242D01*
X144258362Y-77240186D01*
X144221004Y-77310078D01*
X144114659Y-77439659D01*
X143985078Y-77546004D01*
X143985076Y-77546005D01*
X143837242Y-77625024D01*
X143676823Y-77673687D01*
X143551804Y-77686000D01*
X143468196Y-77686000D01*
X143343177Y-77673687D01*
X143182758Y-77625024D01*
X143034924Y-77546005D01*
X143034922Y-77546004D01*
X142905341Y-77439659D01*
X142798996Y-77310078D01*
X142761638Y-77240186D01*
X142719976Y-77162242D01*
X142671313Y-77001823D01*
X142654883Y-76835000D01*
X142671313Y-76668177D01*
X142719976Y-76507758D01*
X142798995Y-76359924D01*
X142798996Y-76359922D01*
X142905341Y-76230341D01*
X143034922Y-76123996D01*
X143050094Y-76115886D01*
X143182758Y-76044976D01*
X143343177Y-75996313D01*
X143468196Y-75984000D01*
X143551804Y-75984000D01*
X143676823Y-75996313D01*
X143676823Y-75996313D01*
G37*
G36*
X153918228Y-76016703D02*
G01*
X154073100Y-76080853D01*
X154212481Y-76173985D01*
X154331015Y-76292519D01*
X154424147Y-76431900D01*
X154488297Y-76586772D01*
X154521000Y-76751184D01*
X154521000Y-76918816D01*
X154488297Y-77083228D01*
X154424147Y-77238100D01*
X154331015Y-77377481D01*
X154212481Y-77496015D01*
X154073100Y-77589147D01*
X153918228Y-77653297D01*
X153753816Y-77686000D01*
X153586184Y-77686000D01*
X153421772Y-77653297D01*
X153266900Y-77589147D01*
X153127519Y-77496015D01*
X153008985Y-77377481D01*
X152915853Y-77238100D01*
X152851703Y-77083228D01*
X152819000Y-76918816D01*
X152819000Y-76751184D01*
X152851703Y-76586772D01*
X152915853Y-76431900D01*
X153008985Y-76292519D01*
X153127519Y-76173985D01*
X153266900Y-76080853D01*
X153421772Y-76016703D01*
X153586184Y-75984000D01*
X153753816Y-75984000D01*
X153918228Y-76016703D01*
X153918228Y-76016703D01*
G37*
G36*
X127801823Y-75996313D02*
G01*
X127962242Y-76044976D01*
X128094906Y-76115886D01*
X128110078Y-76123996D01*
X128239659Y-76230341D01*
X128346004Y-76359922D01*
X128346005Y-76359924D01*
X128425024Y-76507758D01*
X128473687Y-76668177D01*
X128490117Y-76835000D01*
X128473687Y-77001823D01*
X128425024Y-77162242D01*
X128383362Y-77240186D01*
X128346004Y-77310078D01*
X128239659Y-77439659D01*
X128110078Y-77546004D01*
X128110076Y-77546005D01*
X127962242Y-77625024D01*
X127801823Y-77673687D01*
X127676804Y-77686000D01*
X127593196Y-77686000D01*
X127468177Y-77673687D01*
X127307758Y-77625024D01*
X127159924Y-77546005D01*
X127159922Y-77546004D01*
X127030341Y-77439659D01*
X126923996Y-77310078D01*
X126886638Y-77240186D01*
X126844976Y-77162242D01*
X126796313Y-77001823D01*
X126779883Y-76835000D01*
X126796313Y-76668177D01*
X126844976Y-76507758D01*
X126923995Y-76359924D01*
X126923996Y-76359922D01*
X127030341Y-76230341D01*
X127159922Y-76123996D01*
X127175094Y-76115886D01*
X127307758Y-76044976D01*
X127468177Y-75996313D01*
X127593196Y-75984000D01*
X127676804Y-75984000D01*
X127801823Y-75996313D01*
X127801823Y-75996313D01*
G37*
G36*
X121533228Y-76016703D02*
G01*
X121688100Y-76080853D01*
X121827481Y-76173985D01*
X121946015Y-76292519D01*
X122039147Y-76431900D01*
X122103297Y-76586772D01*
X122136000Y-76751184D01*
X122136000Y-76918816D01*
X122103297Y-77083228D01*
X122039147Y-77238100D01*
X121946015Y-77377481D01*
X121827481Y-77496015D01*
X121688100Y-77589147D01*
X121533228Y-77653297D01*
X121368816Y-77686000D01*
X121201184Y-77686000D01*
X121036772Y-77653297D01*
X120881900Y-77589147D01*
X120742519Y-77496015D01*
X120623985Y-77377481D01*
X120530853Y-77238100D01*
X120466703Y-77083228D01*
X120434000Y-76918816D01*
X120434000Y-76751184D01*
X120466703Y-76586772D01*
X120530853Y-76431900D01*
X120623985Y-76292519D01*
X120742519Y-76173985D01*
X120881900Y-76080853D01*
X121036772Y-76016703D01*
X121201184Y-75984000D01*
X121368816Y-75984000D01*
X121533228Y-76016703D01*
X121533228Y-76016703D01*
G37*
G36*
X111291823Y-75996313D02*
G01*
X111452242Y-76044976D01*
X111584906Y-76115886D01*
X111600078Y-76123996D01*
X111729659Y-76230341D01*
X111836004Y-76359922D01*
X111836005Y-76359924D01*
X111915024Y-76507758D01*
X111963687Y-76668177D01*
X111980117Y-76835000D01*
X111963687Y-77001823D01*
X111915024Y-77162242D01*
X111873362Y-77240186D01*
X111836004Y-77310078D01*
X111729659Y-77439659D01*
X111600078Y-77546004D01*
X111600076Y-77546005D01*
X111452242Y-77625024D01*
X111291823Y-77673687D01*
X111166804Y-77686000D01*
X111083196Y-77686000D01*
X110958177Y-77673687D01*
X110797758Y-77625024D01*
X110649924Y-77546005D01*
X110649922Y-77546004D01*
X110520341Y-77439659D01*
X110413996Y-77310078D01*
X110376638Y-77240186D01*
X110334976Y-77162242D01*
X110286313Y-77001823D01*
X110269883Y-76835000D01*
X110286313Y-76668177D01*
X110334976Y-76507758D01*
X110413995Y-76359924D01*
X110413996Y-76359922D01*
X110520341Y-76230341D01*
X110649922Y-76123996D01*
X110665094Y-76115886D01*
X110797758Y-76044976D01*
X110958177Y-75996313D01*
X111083196Y-75984000D01*
X111166804Y-75984000D01*
X111291823Y-75996313D01*
X111291823Y-75996313D01*
G37*
G36*
X138043228Y-76016703D02*
G01*
X138198100Y-76080853D01*
X138337481Y-76173985D01*
X138456015Y-76292519D01*
X138549147Y-76431900D01*
X138613297Y-76586772D01*
X138646000Y-76751184D01*
X138646000Y-76918816D01*
X138613297Y-77083228D01*
X138549147Y-77238100D01*
X138456015Y-77377481D01*
X138337481Y-77496015D01*
X138198100Y-77589147D01*
X138043228Y-77653297D01*
X137878816Y-77686000D01*
X137711184Y-77686000D01*
X137546772Y-77653297D01*
X137391900Y-77589147D01*
X137252519Y-77496015D01*
X137133985Y-77377481D01*
X137040853Y-77238100D01*
X136976703Y-77083228D01*
X136944000Y-76918816D01*
X136944000Y-76751184D01*
X136976703Y-76586772D01*
X137040853Y-76431900D01*
X137133985Y-76292519D01*
X137252519Y-76173985D01*
X137391900Y-76080853D01*
X137546772Y-76016703D01*
X137711184Y-75984000D01*
X137878816Y-75984000D01*
X138043228Y-76016703D01*
X138043228Y-76016703D01*
G37*
G36*
X85325442Y-75705518D02*
G01*
X85391627Y-75712037D01*
X85561466Y-75763557D01*
X85717991Y-75847222D01*
X85753729Y-75876552D01*
X85855186Y-75959814D01*
X85938448Y-76061271D01*
X85967778Y-76097009D01*
X86051443Y-76253534D01*
X86102963Y-76423373D01*
X86120359Y-76600000D01*
X86102963Y-76776627D01*
X86051443Y-76946466D01*
X85967778Y-77102991D01*
X85938448Y-77138729D01*
X85855186Y-77240186D01*
X85770021Y-77310078D01*
X85717991Y-77352778D01*
X85561466Y-77436443D01*
X85391627Y-77487963D01*
X85325443Y-77494481D01*
X85259260Y-77501000D01*
X84920740Y-77501000D01*
X84854557Y-77494481D01*
X84788373Y-77487963D01*
X84618534Y-77436443D01*
X84462009Y-77352778D01*
X84409979Y-77310078D01*
X84324814Y-77240186D01*
X84241552Y-77138729D01*
X84212222Y-77102991D01*
X84128557Y-76946466D01*
X84077037Y-76776627D01*
X84059641Y-76600000D01*
X84077037Y-76423373D01*
X84128557Y-76253534D01*
X84212222Y-76097009D01*
X84241552Y-76061271D01*
X84324814Y-75959814D01*
X84426271Y-75876552D01*
X84462009Y-75847222D01*
X84618534Y-75763557D01*
X84788373Y-75712037D01*
X84854558Y-75705518D01*
X84920740Y-75699000D01*
X85259260Y-75699000D01*
X85325442Y-75705518D01*
X85325442Y-75705518D01*
G37*
G36*
X163430443Y-73995519D02*
G01*
X163496627Y-74002037D01*
X163666466Y-74053557D01*
X163822991Y-74137222D01*
X163858729Y-74166552D01*
X163960186Y-74249814D01*
X164043448Y-74351271D01*
X164072778Y-74387009D01*
X164156443Y-74543534D01*
X164207963Y-74713373D01*
X164225359Y-74890000D01*
X164207963Y-75066627D01*
X164156443Y-75236466D01*
X164072778Y-75392991D01*
X164043448Y-75428729D01*
X163960186Y-75530186D01*
X163858729Y-75613448D01*
X163822991Y-75642778D01*
X163666466Y-75726443D01*
X163496627Y-75777963D01*
X163430442Y-75784482D01*
X163364260Y-75791000D01*
X163025740Y-75791000D01*
X162959558Y-75784482D01*
X162893373Y-75777963D01*
X162723534Y-75726443D01*
X162567009Y-75642778D01*
X162531271Y-75613448D01*
X162429814Y-75530186D01*
X162346552Y-75428729D01*
X162317222Y-75392991D01*
X162233557Y-75236466D01*
X162182037Y-75066627D01*
X162164641Y-74890000D01*
X162182037Y-74713373D01*
X162233557Y-74543534D01*
X162317222Y-74387009D01*
X162346552Y-74351271D01*
X162429814Y-74249814D01*
X162531271Y-74166552D01*
X162567009Y-74137222D01*
X162723534Y-74053557D01*
X162893373Y-74002037D01*
X162959557Y-73995519D01*
X163025740Y-73989000D01*
X163364260Y-73989000D01*
X163430443Y-73995519D01*
X163430443Y-73995519D01*
G37*
G36*
X85325442Y-73205518D02*
G01*
X85391627Y-73212037D01*
X85561466Y-73263557D01*
X85717991Y-73347222D01*
X85753729Y-73376552D01*
X85855186Y-73459814D01*
X85938448Y-73561271D01*
X85967778Y-73597009D01*
X86051443Y-73753534D01*
X86102963Y-73923373D01*
X86120359Y-74100000D01*
X86102963Y-74276627D01*
X86051443Y-74446466D01*
X85967778Y-74602991D01*
X85938448Y-74638729D01*
X85855186Y-74740186D01*
X85753729Y-74823448D01*
X85717991Y-74852778D01*
X85561466Y-74936443D01*
X85391627Y-74987963D01*
X85325442Y-74994482D01*
X85259260Y-75001000D01*
X84920740Y-75001000D01*
X84854558Y-74994482D01*
X84788373Y-74987963D01*
X84618534Y-74936443D01*
X84462009Y-74852778D01*
X84426271Y-74823448D01*
X84324814Y-74740186D01*
X84241552Y-74638729D01*
X84212222Y-74602991D01*
X84128557Y-74446466D01*
X84077037Y-74276627D01*
X84059641Y-74100000D01*
X84077037Y-73923373D01*
X84128557Y-73753534D01*
X84212222Y-73597009D01*
X84241552Y-73561271D01*
X84324814Y-73459814D01*
X84426271Y-73376552D01*
X84462009Y-73347222D01*
X84618534Y-73263557D01*
X84788373Y-73212037D01*
X84854558Y-73205518D01*
X84920740Y-73199000D01*
X85259260Y-73199000D01*
X85325442Y-73205518D01*
X85325442Y-73205518D01*
G37*
G36*
X163430443Y-71495519D02*
G01*
X163496627Y-71502037D01*
X163666466Y-71553557D01*
X163822991Y-71637222D01*
X163858729Y-71666552D01*
X163960186Y-71749814D01*
X164043448Y-71851271D01*
X164072778Y-71887009D01*
X164156443Y-72043534D01*
X164207963Y-72213373D01*
X164225359Y-72390000D01*
X164207963Y-72566627D01*
X164156443Y-72736466D01*
X164072778Y-72892991D01*
X164043448Y-72928729D01*
X163960186Y-73030186D01*
X163858729Y-73113448D01*
X163822991Y-73142778D01*
X163666466Y-73226443D01*
X163496627Y-73277963D01*
X163430443Y-73284481D01*
X163364260Y-73291000D01*
X163025740Y-73291000D01*
X162959557Y-73284481D01*
X162893373Y-73277963D01*
X162723534Y-73226443D01*
X162567009Y-73142778D01*
X162531271Y-73113448D01*
X162429814Y-73030186D01*
X162346552Y-72928729D01*
X162317222Y-72892991D01*
X162233557Y-72736466D01*
X162182037Y-72566627D01*
X162164641Y-72390000D01*
X162182037Y-72213373D01*
X162233557Y-72043534D01*
X162317222Y-71887009D01*
X162346552Y-71851271D01*
X162429814Y-71749814D01*
X162531271Y-71666552D01*
X162567009Y-71637222D01*
X162723534Y-71553557D01*
X162893373Y-71502037D01*
X162959557Y-71495519D01*
X163025740Y-71489000D01*
X163364260Y-71489000D01*
X163430443Y-71495519D01*
X163430443Y-71495519D01*
G37*
G36*
X85325443Y-70705519D02*
G01*
X85391627Y-70712037D01*
X85561466Y-70763557D01*
X85717991Y-70847222D01*
X85753729Y-70876552D01*
X85855186Y-70959814D01*
X85938448Y-71061271D01*
X85967778Y-71097009D01*
X85967779Y-71097011D01*
X86043754Y-71239148D01*
X86051443Y-71253534D01*
X86102963Y-71423373D01*
X86120359Y-71600000D01*
X86102963Y-71776627D01*
X86051443Y-71946466D01*
X85967778Y-72102991D01*
X85938448Y-72138729D01*
X85855186Y-72240186D01*
X85753729Y-72323448D01*
X85717991Y-72352778D01*
X85561466Y-72436443D01*
X85391627Y-72487963D01*
X85325443Y-72494481D01*
X85259260Y-72501000D01*
X84920740Y-72501000D01*
X84854557Y-72494481D01*
X84788373Y-72487963D01*
X84618534Y-72436443D01*
X84462009Y-72352778D01*
X84426271Y-72323448D01*
X84324814Y-72240186D01*
X84241552Y-72138729D01*
X84212222Y-72102991D01*
X84128557Y-71946466D01*
X84077037Y-71776627D01*
X84059641Y-71600000D01*
X84077037Y-71423373D01*
X84128557Y-71253534D01*
X84136247Y-71239148D01*
X84212221Y-71097011D01*
X84212222Y-71097009D01*
X84241552Y-71061271D01*
X84324814Y-70959814D01*
X84426271Y-70876552D01*
X84462009Y-70847222D01*
X84618534Y-70763557D01*
X84788373Y-70712037D01*
X84854557Y-70705519D01*
X84920740Y-70699000D01*
X85259260Y-70699000D01*
X85325443Y-70705519D01*
X85325443Y-70705519D01*
G37*
G36*
X153918228Y-69666703D02*
G01*
X154073100Y-69730853D01*
X154212481Y-69823985D01*
X154331015Y-69942519D01*
X154424147Y-70081900D01*
X154488297Y-70236772D01*
X154521000Y-70401184D01*
X154521000Y-70568816D01*
X154488297Y-70733228D01*
X154424147Y-70888100D01*
X154331015Y-71027481D01*
X154212481Y-71146015D01*
X154073100Y-71239147D01*
X153918228Y-71303297D01*
X153753816Y-71336000D01*
X153586184Y-71336000D01*
X153421772Y-71303297D01*
X153266900Y-71239147D01*
X153127519Y-71146015D01*
X153008985Y-71027481D01*
X152915853Y-70888100D01*
X152851703Y-70733228D01*
X152819000Y-70568816D01*
X152819000Y-70401184D01*
X152851703Y-70236772D01*
X152915853Y-70081900D01*
X153008985Y-69942519D01*
X153127519Y-69823985D01*
X153266900Y-69730853D01*
X153421772Y-69666703D01*
X153586184Y-69634000D01*
X153753816Y-69634000D01*
X153918228Y-69666703D01*
X153918228Y-69666703D01*
G37*
G36*
X92876823Y-69646313D02*
G01*
X93037242Y-69694976D01*
X93104361Y-69730852D01*
X93185078Y-69773996D01*
X93314659Y-69880341D01*
X93421004Y-70009922D01*
X93421005Y-70009924D01*
X93500024Y-70157758D01*
X93548687Y-70318177D01*
X93565117Y-70485000D01*
X93548687Y-70651823D01*
X93500024Y-70812242D01*
X93459477Y-70888100D01*
X93421004Y-70960078D01*
X93314659Y-71089659D01*
X93185078Y-71196004D01*
X93185076Y-71196005D01*
X93037242Y-71275024D01*
X92876823Y-71323687D01*
X92751804Y-71336000D01*
X92668196Y-71336000D01*
X92543177Y-71323687D01*
X92382758Y-71275024D01*
X92234924Y-71196005D01*
X92234922Y-71196004D01*
X92105341Y-71089659D01*
X91998996Y-70960078D01*
X91960523Y-70888100D01*
X91919976Y-70812242D01*
X91871313Y-70651823D01*
X91854883Y-70485000D01*
X91871313Y-70318177D01*
X91919976Y-70157758D01*
X91998995Y-70009924D01*
X91998996Y-70009922D01*
X92105341Y-69880341D01*
X92234922Y-69773996D01*
X92315639Y-69730852D01*
X92382758Y-69694976D01*
X92543177Y-69646313D01*
X92668196Y-69634000D01*
X92751804Y-69634000D01*
X92876823Y-69646313D01*
X92876823Y-69646313D01*
G37*
G36*
X103118228Y-69666703D02*
G01*
X103273100Y-69730853D01*
X103412481Y-69823985D01*
X103531015Y-69942519D01*
X103624147Y-70081900D01*
X103688297Y-70236772D01*
X103721000Y-70401184D01*
X103721000Y-70568816D01*
X103688297Y-70733228D01*
X103624147Y-70888100D01*
X103531015Y-71027481D01*
X103412481Y-71146015D01*
X103273100Y-71239147D01*
X103118228Y-71303297D01*
X102953816Y-71336000D01*
X102786184Y-71336000D01*
X102621772Y-71303297D01*
X102466900Y-71239147D01*
X102327519Y-71146015D01*
X102208985Y-71027481D01*
X102115853Y-70888100D01*
X102051703Y-70733228D01*
X102019000Y-70568816D01*
X102019000Y-70401184D01*
X102051703Y-70236772D01*
X102115853Y-70081900D01*
X102208985Y-69942519D01*
X102327519Y-69823985D01*
X102466900Y-69730853D01*
X102621772Y-69666703D01*
X102786184Y-69634000D01*
X102953816Y-69634000D01*
X103118228Y-69666703D01*
X103118228Y-69666703D01*
G37*
G36*
X111291823Y-69646313D02*
G01*
X111452242Y-69694976D01*
X111519361Y-69730852D01*
X111600078Y-69773996D01*
X111729659Y-69880341D01*
X111836004Y-70009922D01*
X111836005Y-70009924D01*
X111915024Y-70157758D01*
X111963687Y-70318177D01*
X111980117Y-70485000D01*
X111963687Y-70651823D01*
X111915024Y-70812242D01*
X111874477Y-70888100D01*
X111836004Y-70960078D01*
X111729659Y-71089659D01*
X111600078Y-71196004D01*
X111600076Y-71196005D01*
X111452242Y-71275024D01*
X111291823Y-71323687D01*
X111166804Y-71336000D01*
X111083196Y-71336000D01*
X110958177Y-71323687D01*
X110797758Y-71275024D01*
X110649924Y-71196005D01*
X110649922Y-71196004D01*
X110520341Y-71089659D01*
X110413996Y-70960078D01*
X110375523Y-70888100D01*
X110334976Y-70812242D01*
X110286313Y-70651823D01*
X110269883Y-70485000D01*
X110286313Y-70318177D01*
X110334976Y-70157758D01*
X110413995Y-70009924D01*
X110413996Y-70009922D01*
X110520341Y-69880341D01*
X110649922Y-69773996D01*
X110730639Y-69730852D01*
X110797758Y-69694976D01*
X110958177Y-69646313D01*
X111083196Y-69634000D01*
X111166804Y-69634000D01*
X111291823Y-69646313D01*
X111291823Y-69646313D01*
G37*
G36*
X121533228Y-69666703D02*
G01*
X121688100Y-69730853D01*
X121827481Y-69823985D01*
X121946015Y-69942519D01*
X122039147Y-70081900D01*
X122103297Y-70236772D01*
X122136000Y-70401184D01*
X122136000Y-70568816D01*
X122103297Y-70733228D01*
X122039147Y-70888100D01*
X121946015Y-71027481D01*
X121827481Y-71146015D01*
X121688100Y-71239147D01*
X121533228Y-71303297D01*
X121368816Y-71336000D01*
X121201184Y-71336000D01*
X121036772Y-71303297D01*
X120881900Y-71239147D01*
X120742519Y-71146015D01*
X120623985Y-71027481D01*
X120530853Y-70888100D01*
X120466703Y-70733228D01*
X120434000Y-70568816D01*
X120434000Y-70401184D01*
X120466703Y-70236772D01*
X120530853Y-70081900D01*
X120623985Y-69942519D01*
X120742519Y-69823985D01*
X120881900Y-69730853D01*
X121036772Y-69666703D01*
X121201184Y-69634000D01*
X121368816Y-69634000D01*
X121533228Y-69666703D01*
X121533228Y-69666703D01*
G37*
G36*
X138043228Y-69666703D02*
G01*
X138198100Y-69730853D01*
X138337481Y-69823985D01*
X138456015Y-69942519D01*
X138549147Y-70081900D01*
X138613297Y-70236772D01*
X138646000Y-70401184D01*
X138646000Y-70568816D01*
X138613297Y-70733228D01*
X138549147Y-70888100D01*
X138456015Y-71027481D01*
X138337481Y-71146015D01*
X138198100Y-71239147D01*
X138043228Y-71303297D01*
X137878816Y-71336000D01*
X137711184Y-71336000D01*
X137546772Y-71303297D01*
X137391900Y-71239147D01*
X137252519Y-71146015D01*
X137133985Y-71027481D01*
X137040853Y-70888100D01*
X136976703Y-70733228D01*
X136944000Y-70568816D01*
X136944000Y-70401184D01*
X136976703Y-70236772D01*
X137040853Y-70081900D01*
X137133985Y-69942519D01*
X137252519Y-69823985D01*
X137391900Y-69730853D01*
X137546772Y-69666703D01*
X137711184Y-69634000D01*
X137878816Y-69634000D01*
X138043228Y-69666703D01*
X138043228Y-69666703D01*
G37*
G36*
X127801823Y-69646313D02*
G01*
X127962242Y-69694976D01*
X128029361Y-69730852D01*
X128110078Y-69773996D01*
X128239659Y-69880341D01*
X128346004Y-70009922D01*
X128346005Y-70009924D01*
X128425024Y-70157758D01*
X128473687Y-70318177D01*
X128490117Y-70485000D01*
X128473687Y-70651823D01*
X128425024Y-70812242D01*
X128384477Y-70888100D01*
X128346004Y-70960078D01*
X128239659Y-71089659D01*
X128110078Y-71196004D01*
X128110076Y-71196005D01*
X127962242Y-71275024D01*
X127801823Y-71323687D01*
X127676804Y-71336000D01*
X127593196Y-71336000D01*
X127468177Y-71323687D01*
X127307758Y-71275024D01*
X127159924Y-71196005D01*
X127159922Y-71196004D01*
X127030341Y-71089659D01*
X126923996Y-70960078D01*
X126885523Y-70888100D01*
X126844976Y-70812242D01*
X126796313Y-70651823D01*
X126779883Y-70485000D01*
X126796313Y-70318177D01*
X126844976Y-70157758D01*
X126923995Y-70009924D01*
X126923996Y-70009922D01*
X127030341Y-69880341D01*
X127159922Y-69773996D01*
X127240639Y-69730852D01*
X127307758Y-69694976D01*
X127468177Y-69646313D01*
X127593196Y-69634000D01*
X127676804Y-69634000D01*
X127801823Y-69646313D01*
X127801823Y-69646313D01*
G37*
G36*
X143676823Y-69646313D02*
G01*
X143837242Y-69694976D01*
X143904361Y-69730852D01*
X143985078Y-69773996D01*
X144114659Y-69880341D01*
X144221004Y-70009922D01*
X144221005Y-70009924D01*
X144300024Y-70157758D01*
X144348687Y-70318177D01*
X144365117Y-70485000D01*
X144348687Y-70651823D01*
X144300024Y-70812242D01*
X144259477Y-70888100D01*
X144221004Y-70960078D01*
X144114659Y-71089659D01*
X143985078Y-71196004D01*
X143985076Y-71196005D01*
X143837242Y-71275024D01*
X143676823Y-71323687D01*
X143551804Y-71336000D01*
X143468196Y-71336000D01*
X143343177Y-71323687D01*
X143182758Y-71275024D01*
X143034924Y-71196005D01*
X143034922Y-71196004D01*
X142905341Y-71089659D01*
X142798996Y-70960078D01*
X142760523Y-70888100D01*
X142719976Y-70812242D01*
X142671313Y-70651823D01*
X142654883Y-70485000D01*
X142671313Y-70318177D01*
X142719976Y-70157758D01*
X142798995Y-70009924D01*
X142798996Y-70009922D01*
X142905341Y-69880341D01*
X143034922Y-69773996D01*
X143115639Y-69730852D01*
X143182758Y-69694976D01*
X143343177Y-69646313D01*
X143468196Y-69634000D01*
X143551804Y-69634000D01*
X143676823Y-69646313D01*
X143676823Y-69646313D01*
G37*
G36*
X90394549Y-64276116D02*
G01*
X90505734Y-64298232D01*
X90715203Y-64384997D01*
X90903720Y-64510960D01*
X91064040Y-64671280D01*
X91190003Y-64859797D01*
X91276768Y-65069266D01*
X91321000Y-65291636D01*
X91321000Y-65518364D01*
X91276768Y-65740734D01*
X91190003Y-65950203D01*
X91064040Y-66138720D01*
X90903720Y-66299040D01*
X90715203Y-66425003D01*
X90505734Y-66511768D01*
X90394549Y-66533884D01*
X90283365Y-66556000D01*
X90056635Y-66556000D01*
X89945451Y-66533884D01*
X89834266Y-66511768D01*
X89624797Y-66425003D01*
X89436280Y-66299040D01*
X89275960Y-66138720D01*
X89149997Y-65950203D01*
X89063232Y-65740734D01*
X89019000Y-65518364D01*
X89019000Y-65291636D01*
X89063232Y-65069266D01*
X89149997Y-64859797D01*
X89275960Y-64671280D01*
X89436280Y-64510960D01*
X89624797Y-64384997D01*
X89834266Y-64298232D01*
X89945451Y-64276116D01*
X90056635Y-64254000D01*
X90283365Y-64254000D01*
X90394549Y-64276116D01*
X90394549Y-64276116D01*
G37*
G36*
X158339549Y-64276116D02*
G01*
X158450734Y-64298232D01*
X158660203Y-64384997D01*
X158848720Y-64510960D01*
X159009040Y-64671280D01*
X159135003Y-64859797D01*
X159221768Y-65069266D01*
X159266000Y-65291636D01*
X159266000Y-65518364D01*
X159221768Y-65740734D01*
X159135003Y-65950203D01*
X159009040Y-66138720D01*
X158848720Y-66299040D01*
X158660203Y-66425003D01*
X158450734Y-66511768D01*
X158339549Y-66533884D01*
X158228365Y-66556000D01*
X158001635Y-66556000D01*
X157890451Y-66533884D01*
X157779266Y-66511768D01*
X157569797Y-66425003D01*
X157381280Y-66299040D01*
X157220960Y-66138720D01*
X157094997Y-65950203D01*
X157008232Y-65740734D01*
X156964000Y-65518364D01*
X156964000Y-65291636D01*
X157008232Y-65069266D01*
X157094997Y-64859797D01*
X157220960Y-64671280D01*
X157381280Y-64510960D01*
X157569797Y-64384997D01*
X157779266Y-64298232D01*
X157890451Y-64276116D01*
X158001635Y-64254000D01*
X158228365Y-64254000D01*
X158339549Y-64276116D01*
X158339549Y-64276116D01*
G37*
M02*
