G04 #@! TF.GenerationSoftware,KiCad,Pcbnew,5.1.4-3.fc30*
G04 #@! TF.CreationDate,2019-11-27T18:44:14-08:00*
G04 #@! TF.ProjectId,DASH,44415348-2e6b-4696-9361-645f70636258,rev?*
G04 #@! TF.SameCoordinates,Original*
G04 #@! TF.FileFunction,Copper,L1,Top*
G04 #@! TF.FilePolarity,Positive*
%FSLAX46Y46*%
G04 Gerber Fmt 4.6, Leading zero omitted, Abs format (unit mm)*
G04 Created by KiCad (PCBNEW 5.1.4-3.fc30) date 2019-11-27 18:44:14*
%MOMM*%
%LPD*%
G04 APERTURE LIST*
%ADD10C,0.100000*%
%ADD11C,1.700000*%
%ADD12O,1.950000X1.700000*%
%ADD13O,1.600000X1.600000*%
%ADD14C,1.600000*%
%ADD15C,0.800000*%
%ADD16C,0.250000*%
G04 APERTURE END LIST*
D10*
G36*
X85839504Y-100751204D02*
G01*
X85863773Y-100754804D01*
X85887571Y-100760765D01*
X85910671Y-100769030D01*
X85932849Y-100779520D01*
X85953893Y-100792133D01*
X85973598Y-100806747D01*
X85991777Y-100823223D01*
X86008253Y-100841402D01*
X86022867Y-100861107D01*
X86035480Y-100882151D01*
X86045970Y-100904329D01*
X86054235Y-100927429D01*
X86060196Y-100951227D01*
X86063796Y-100975496D01*
X86065000Y-101000000D01*
X86065000Y-102200000D01*
X86063796Y-102224504D01*
X86060196Y-102248773D01*
X86054235Y-102272571D01*
X86045970Y-102295671D01*
X86035480Y-102317849D01*
X86022867Y-102338893D01*
X86008253Y-102358598D01*
X85991777Y-102376777D01*
X85973598Y-102393253D01*
X85953893Y-102407867D01*
X85932849Y-102420480D01*
X85910671Y-102430970D01*
X85887571Y-102439235D01*
X85863773Y-102445196D01*
X85839504Y-102448796D01*
X85815000Y-102450000D01*
X84365000Y-102450000D01*
X84340496Y-102448796D01*
X84316227Y-102445196D01*
X84292429Y-102439235D01*
X84269329Y-102430970D01*
X84247151Y-102420480D01*
X84226107Y-102407867D01*
X84206402Y-102393253D01*
X84188223Y-102376777D01*
X84171747Y-102358598D01*
X84157133Y-102338893D01*
X84144520Y-102317849D01*
X84134030Y-102295671D01*
X84125765Y-102272571D01*
X84119804Y-102248773D01*
X84116204Y-102224504D01*
X84115000Y-102200000D01*
X84115000Y-101000000D01*
X84116204Y-100975496D01*
X84119804Y-100951227D01*
X84125765Y-100927429D01*
X84134030Y-100904329D01*
X84144520Y-100882151D01*
X84157133Y-100861107D01*
X84171747Y-100841402D01*
X84188223Y-100823223D01*
X84206402Y-100806747D01*
X84226107Y-100792133D01*
X84247151Y-100779520D01*
X84269329Y-100769030D01*
X84292429Y-100760765D01*
X84316227Y-100754804D01*
X84340496Y-100751204D01*
X84365000Y-100750000D01*
X85815000Y-100750000D01*
X85839504Y-100751204D01*
X85839504Y-100751204D01*
G37*
D11*
X85090000Y-101600000D03*
D12*
X85090000Y-99100000D03*
X85090000Y-96600000D03*
X85090000Y-94100000D03*
X85090000Y-91600000D03*
X85090000Y-89100000D03*
X85090000Y-86600000D03*
X85090000Y-84100000D03*
X85090000Y-81600000D03*
X85090000Y-79100000D03*
X85090000Y-76600000D03*
X85090000Y-74100000D03*
X85090000Y-71600000D03*
D10*
G36*
X163944504Y-99041204D02*
G01*
X163968773Y-99044804D01*
X163992571Y-99050765D01*
X164015671Y-99059030D01*
X164037849Y-99069520D01*
X164058893Y-99082133D01*
X164078598Y-99096747D01*
X164096777Y-99113223D01*
X164113253Y-99131402D01*
X164127867Y-99151107D01*
X164140480Y-99172151D01*
X164150970Y-99194329D01*
X164159235Y-99217429D01*
X164165196Y-99241227D01*
X164168796Y-99265496D01*
X164170000Y-99290000D01*
X164170000Y-100490000D01*
X164168796Y-100514504D01*
X164165196Y-100538773D01*
X164159235Y-100562571D01*
X164150970Y-100585671D01*
X164140480Y-100607849D01*
X164127867Y-100628893D01*
X164113253Y-100648598D01*
X164096777Y-100666777D01*
X164078598Y-100683253D01*
X164058893Y-100697867D01*
X164037849Y-100710480D01*
X164015671Y-100720970D01*
X163992571Y-100729235D01*
X163968773Y-100735196D01*
X163944504Y-100738796D01*
X163920000Y-100740000D01*
X162470000Y-100740000D01*
X162445496Y-100738796D01*
X162421227Y-100735196D01*
X162397429Y-100729235D01*
X162374329Y-100720970D01*
X162352151Y-100710480D01*
X162331107Y-100697867D01*
X162311402Y-100683253D01*
X162293223Y-100666777D01*
X162276747Y-100648598D01*
X162262133Y-100628893D01*
X162249520Y-100607849D01*
X162239030Y-100585671D01*
X162230765Y-100562571D01*
X162224804Y-100538773D01*
X162221204Y-100514504D01*
X162220000Y-100490000D01*
X162220000Y-99290000D01*
X162221204Y-99265496D01*
X162224804Y-99241227D01*
X162230765Y-99217429D01*
X162239030Y-99194329D01*
X162249520Y-99172151D01*
X162262133Y-99151107D01*
X162276747Y-99131402D01*
X162293223Y-99113223D01*
X162311402Y-99096747D01*
X162331107Y-99082133D01*
X162352151Y-99069520D01*
X162374329Y-99059030D01*
X162397429Y-99050765D01*
X162421227Y-99044804D01*
X162445496Y-99041204D01*
X162470000Y-99040000D01*
X163920000Y-99040000D01*
X163944504Y-99041204D01*
X163944504Y-99041204D01*
G37*
D11*
X163195000Y-99890000D03*
D12*
X163195000Y-97390000D03*
X163195000Y-94890000D03*
X163195000Y-92390000D03*
X163195000Y-89890000D03*
X163195000Y-87390000D03*
X163195000Y-84890000D03*
X163195000Y-82390000D03*
X163195000Y-79890000D03*
X163195000Y-77390000D03*
X163195000Y-74890000D03*
X163195000Y-72390000D03*
D13*
X92710000Y-102235000D03*
D14*
X102870000Y-102235000D03*
X102870000Y-95885000D03*
D13*
X92710000Y-95885000D03*
D14*
X102870000Y-89535000D03*
D13*
X92710000Y-89535000D03*
X92710000Y-83185000D03*
D14*
X102870000Y-83185000D03*
X102870000Y-76835000D03*
D13*
X92710000Y-76835000D03*
X92710000Y-70485000D03*
D14*
X102870000Y-70485000D03*
X121285000Y-102235000D03*
D13*
X111125000Y-102235000D03*
X111125000Y-95885000D03*
D14*
X121285000Y-95885000D03*
X121285000Y-89535000D03*
D13*
X111125000Y-89535000D03*
X111125000Y-83185000D03*
D14*
X121285000Y-83185000D03*
X121285000Y-76835000D03*
D13*
X111125000Y-76835000D03*
X111125000Y-70485000D03*
D14*
X121285000Y-70485000D03*
X137795000Y-102235000D03*
D13*
X127635000Y-102235000D03*
X127635000Y-95885000D03*
D14*
X137795000Y-95885000D03*
X137795000Y-89535000D03*
D13*
X127635000Y-89535000D03*
X127635000Y-83185000D03*
D14*
X137795000Y-83185000D03*
X137795000Y-76835000D03*
D13*
X127635000Y-76835000D03*
X127635000Y-70485000D03*
D14*
X137795000Y-70485000D03*
X153670000Y-102235000D03*
D13*
X143510000Y-102235000D03*
X143510000Y-95885000D03*
D14*
X153670000Y-95885000D03*
X153670000Y-89535000D03*
D13*
X143510000Y-89535000D03*
X143510000Y-83185000D03*
D14*
X153670000Y-83185000D03*
X153670000Y-76835000D03*
D13*
X143510000Y-76835000D03*
X143510000Y-70485000D03*
D14*
X153670000Y-70485000D03*
D15*
X108585000Y-83185000D03*
X107315000Y-97155000D03*
X123190000Y-93980000D03*
X107315000Y-86995000D03*
X106135705Y-86995000D03*
X101600000Y-91985000D03*
X108585000Y-74295000D03*
X122555000Y-80645000D03*
X123100000Y-85725000D03*
X136525000Y-86360000D03*
X140970000Y-86360000D03*
X154305000Y-93345000D03*
X125290153Y-92514847D03*
X154305000Y-92075000D03*
D16*
X92075000Y-101600000D02*
X92710000Y-102235000D01*
X85090000Y-101600000D02*
X92075000Y-101600000D01*
X92710000Y-90666370D02*
X92710000Y-89535000D01*
X86315000Y-99100000D02*
X92710000Y-92705000D01*
X92710000Y-92705000D02*
X92710000Y-90666370D01*
X85090000Y-99100000D02*
X86315000Y-99100000D01*
X86315000Y-96600000D02*
X88900000Y-94015000D01*
X85090000Y-96600000D02*
X86315000Y-96600000D01*
X88900000Y-80645000D02*
X92710000Y-76835000D01*
X88900000Y-94015000D02*
X88900000Y-80645000D01*
X111125000Y-80645000D02*
X111125000Y-76835000D01*
X108585000Y-83185000D02*
X111125000Y-80645000D01*
X107315000Y-97155000D02*
X110490000Y-93980000D01*
X110490000Y-93980000D02*
X123190000Y-93980000D01*
X125095000Y-86995000D02*
X127635000Y-89535000D01*
X107315000Y-86995000D02*
X125095000Y-86995000D01*
X127635000Y-77966370D02*
X127635000Y-76835000D01*
X127635000Y-78500002D02*
X127635000Y-77966370D01*
X121045002Y-85090000D02*
X127635000Y-78500002D01*
X108040705Y-85090000D02*
X121045002Y-85090000D01*
X106135705Y-86995000D02*
X108040705Y-85090000D01*
X104324990Y-94709990D02*
X104324990Y-99244990D01*
X101600000Y-91985000D02*
X104324990Y-94709990D01*
X104324990Y-99244990D02*
X109855000Y-104775000D01*
X140970000Y-104775000D02*
X143510000Y-102235000D01*
X109855000Y-104775000D02*
X140970000Y-104775000D01*
X108585000Y-74295000D02*
X116205000Y-74295000D01*
X116205000Y-74295000D02*
X122555000Y-80645000D01*
X123100000Y-85725000D02*
X123735000Y-86360000D01*
X123735000Y-86360000D02*
X136525000Y-86360000D01*
X140970000Y-86360000D02*
X141605000Y-86360000D01*
X143510000Y-88265000D02*
X143510000Y-89535000D01*
X141605000Y-86360000D02*
X143510000Y-88265000D01*
X86315000Y-74100000D02*
X93105000Y-67310000D01*
X85090000Y-74100000D02*
X86315000Y-74100000D01*
X143510000Y-74534998D02*
X143510000Y-75703630D01*
X136285002Y-67310000D02*
X143510000Y-74534998D01*
X143510000Y-75703630D02*
X143510000Y-76835000D01*
X93105000Y-67310000D02*
X136285002Y-67310000D01*
X93509999Y-83984999D02*
X92710000Y-83185000D01*
X93835001Y-84310001D02*
X93509999Y-83984999D01*
X93835001Y-94759999D02*
X93835001Y-84310001D01*
X92710000Y-95885000D02*
X93835001Y-94759999D01*
X93835001Y-71610001D02*
X93509999Y-71284999D01*
X93509999Y-71284999D02*
X92710000Y-70485000D01*
X93835001Y-82059999D02*
X93835001Y-71610001D01*
X92710000Y-83185000D02*
X93835001Y-82059999D01*
X102870000Y-102235000D02*
X102870000Y-95885000D01*
X161485000Y-101600000D02*
X163195000Y-99890000D01*
X152400000Y-105410000D02*
X156210000Y-101600000D01*
X156210000Y-101600000D02*
X161485000Y-101600000D01*
X102870000Y-102235000D02*
X106045000Y-105410000D01*
X106045000Y-105410000D02*
X152400000Y-105410000D01*
X102870000Y-89535000D02*
X102870000Y-83185000D01*
X158515000Y-97390000D02*
X163195000Y-97390000D01*
X104775000Y-91440000D02*
X104775000Y-97790000D01*
X104775000Y-97790000D02*
X106045000Y-99060000D01*
X102870000Y-89535000D02*
X104775000Y-91440000D01*
X156845000Y-99060000D02*
X158515000Y-97390000D01*
X106045000Y-99060000D02*
X156845000Y-99060000D01*
X102870000Y-76835000D02*
X102870000Y-70485000D01*
X102870000Y-76835000D02*
X105410705Y-79375705D01*
X105410705Y-79375705D02*
X105410705Y-97789295D01*
X156210000Y-98425000D02*
X159745000Y-94890000D01*
X159745000Y-94890000D02*
X163195000Y-94890000D01*
X105410705Y-97789295D02*
X106046410Y-98425000D01*
X106046410Y-98425000D02*
X156210000Y-98425000D01*
X121285000Y-95885000D02*
X123190000Y-97790000D01*
X123190000Y-97790000D02*
X155575000Y-97790000D01*
X160975000Y-92390000D02*
X163195000Y-92390000D01*
X155575000Y-97790000D02*
X160975000Y-92390000D01*
X129779998Y-93345000D02*
X154305000Y-93345000D01*
X121285000Y-89535000D02*
X125095000Y-93345000D01*
X125095000Y-93345000D02*
X129779998Y-93345000D01*
X121285000Y-76835000D02*
X121285000Y-70485000D01*
X125290153Y-92514847D02*
X125730000Y-92075000D01*
X125730000Y-92075000D02*
X154305000Y-92075000D01*
X139249990Y-97339990D02*
X155388600Y-97339990D01*
X137795000Y-95885000D02*
X139249990Y-97339990D01*
X155388600Y-97339990D02*
X156209295Y-96519295D01*
X163070000Y-84890000D02*
X163195000Y-84890000D01*
X156209295Y-91750705D02*
X163070000Y-84890000D01*
X156209295Y-96519295D02*
X156209295Y-91750705D01*
X137795000Y-89535000D02*
X137795000Y-83185000D01*
X161970000Y-83490000D02*
X163070000Y-82390000D01*
X137795000Y-85485002D02*
X143749998Y-91440000D01*
X137795000Y-83185000D02*
X137795000Y-85485002D01*
X143749998Y-91440000D02*
X153866998Y-91440000D01*
X161816998Y-83490000D02*
X161970000Y-83490000D01*
X163070000Y-82390000D02*
X163195000Y-82390000D01*
X153866998Y-91440000D02*
X161816998Y-83490000D01*
X137795000Y-76835000D02*
X137795000Y-70485000D01*
X161970000Y-79890000D02*
X163195000Y-79890000D01*
X139718630Y-79890000D02*
X161970000Y-79890000D01*
X137795000Y-77966370D02*
X139718630Y-79890000D01*
X137795000Y-76835000D02*
X137795000Y-77966370D01*
X153670000Y-89535000D02*
X153670000Y-83185000D01*
X153670000Y-76835000D02*
X153670000Y-70485000D01*
X163195000Y-71290000D02*
X163195000Y-72390000D01*
X162390000Y-70485000D02*
X163195000Y-71290000D01*
X153670000Y-70485000D02*
X162390000Y-70485000D01*
M02*
