G04 #@! TF.GenerationSoftware,KiCad,Pcbnew,5.1.4-3.fc30*
G04 #@! TF.CreationDate,2019-11-27T18:44:14-08:00*
G04 #@! TF.ProjectId,DASH,44415348-2e6b-4696-9361-645f70636258,rev?*
G04 #@! TF.SameCoordinates,Original*
G04 #@! TF.FileFunction,Legend,Bot*
G04 #@! TF.FilePolarity,Positive*
%FSLAX46Y46*%
G04 Gerber Fmt 4.6, Leading zero omitted, Abs format (unit mm)*
G04 Created by KiCad (PCBNEW 5.1.4-3.fc30) date 2019-11-27 18:44:14*
%MOMM*%
%LPD*%
G04 APERTURE LIST*
%ADD10C,0.120000*%
%ADD11C,0.150000*%
G04 APERTURE END LIST*
D10*
X163785000Y-101280000D02*
X161585000Y-101280000D01*
X161585000Y-101280000D02*
X161585000Y-102500000D01*
X161585000Y-102500000D02*
X170005000Y-102500000D01*
X170005000Y-102500000D02*
X170005000Y-69780000D01*
X170005000Y-69780000D02*
X161585000Y-69780000D01*
X161585000Y-69780000D02*
X161585000Y-71000000D01*
X161585000Y-71000000D02*
X163785000Y-71000000D01*
X168785000Y-102500000D02*
X168785000Y-101280000D01*
X168785000Y-101280000D02*
X163785000Y-101280000D01*
X163785000Y-101280000D02*
X163785000Y-102500000D01*
X168785000Y-69780000D02*
X168785000Y-71000000D01*
X168785000Y-71000000D02*
X163785000Y-71000000D01*
X163785000Y-71000000D02*
X163785000Y-69780000D01*
X164785000Y-101280000D02*
X164785000Y-71000000D01*
X164785000Y-99890000D02*
X164785000Y-100210000D01*
X164785000Y-100210000D02*
X168205000Y-100210000D01*
X168205000Y-100210000D02*
X168285000Y-99890000D01*
X168285000Y-99890000D02*
X168205000Y-99570000D01*
X168205000Y-99570000D02*
X164785000Y-99570000D01*
X164785000Y-99570000D02*
X164785000Y-99890000D01*
X163785000Y-98720000D02*
X163785000Y-98560000D01*
X164785000Y-97390000D02*
X164785000Y-97710000D01*
X164785000Y-97710000D02*
X168205000Y-97710000D01*
X168205000Y-97710000D02*
X168285000Y-97390000D01*
X168285000Y-97390000D02*
X168205000Y-97070000D01*
X168205000Y-97070000D02*
X164785000Y-97070000D01*
X164785000Y-97070000D02*
X164785000Y-97390000D01*
X163785000Y-96220000D02*
X163785000Y-96060000D01*
X164785000Y-94890000D02*
X164785000Y-95210000D01*
X164785000Y-95210000D02*
X168205000Y-95210000D01*
X168205000Y-95210000D02*
X168285000Y-94890000D01*
X168285000Y-94890000D02*
X168205000Y-94570000D01*
X168205000Y-94570000D02*
X164785000Y-94570000D01*
X164785000Y-94570000D02*
X164785000Y-94890000D01*
X163785000Y-93720000D02*
X163785000Y-93560000D01*
X164785000Y-92390000D02*
X164785000Y-92710000D01*
X164785000Y-92710000D02*
X168205000Y-92710000D01*
X168205000Y-92710000D02*
X168285000Y-92390000D01*
X168285000Y-92390000D02*
X168205000Y-92070000D01*
X168205000Y-92070000D02*
X164785000Y-92070000D01*
X164785000Y-92070000D02*
X164785000Y-92390000D01*
X163785000Y-91220000D02*
X163785000Y-91060000D01*
X164785000Y-89890000D02*
X164785000Y-90210000D01*
X164785000Y-90210000D02*
X168205000Y-90210000D01*
X168205000Y-90210000D02*
X168285000Y-89890000D01*
X168285000Y-89890000D02*
X168205000Y-89570000D01*
X168205000Y-89570000D02*
X164785000Y-89570000D01*
X164785000Y-89570000D02*
X164785000Y-89890000D01*
X163785000Y-88720000D02*
X163785000Y-88560000D01*
X164785000Y-87390000D02*
X164785000Y-87710000D01*
X164785000Y-87710000D02*
X168205000Y-87710000D01*
X168205000Y-87710000D02*
X168285000Y-87390000D01*
X168285000Y-87390000D02*
X168205000Y-87070000D01*
X168205000Y-87070000D02*
X164785000Y-87070000D01*
X164785000Y-87070000D02*
X164785000Y-87390000D01*
X163785000Y-86220000D02*
X163785000Y-86060000D01*
X164785000Y-84890000D02*
X164785000Y-85210000D01*
X164785000Y-85210000D02*
X168205000Y-85210000D01*
X168205000Y-85210000D02*
X168285000Y-84890000D01*
X168285000Y-84890000D02*
X168205000Y-84570000D01*
X168205000Y-84570000D02*
X164785000Y-84570000D01*
X164785000Y-84570000D02*
X164785000Y-84890000D01*
X163785000Y-83720000D02*
X163785000Y-83560000D01*
X164785000Y-82390000D02*
X164785000Y-82710000D01*
X164785000Y-82710000D02*
X168205000Y-82710000D01*
X168205000Y-82710000D02*
X168285000Y-82390000D01*
X168285000Y-82390000D02*
X168205000Y-82070000D01*
X168205000Y-82070000D02*
X164785000Y-82070000D01*
X164785000Y-82070000D02*
X164785000Y-82390000D01*
X163785000Y-81220000D02*
X163785000Y-81060000D01*
X164785000Y-79890000D02*
X164785000Y-80210000D01*
X164785000Y-80210000D02*
X168205000Y-80210000D01*
X168205000Y-80210000D02*
X168285000Y-79890000D01*
X168285000Y-79890000D02*
X168205000Y-79570000D01*
X168205000Y-79570000D02*
X164785000Y-79570000D01*
X164785000Y-79570000D02*
X164785000Y-79890000D01*
X163785000Y-78720000D02*
X163785000Y-78560000D01*
X164785000Y-77390000D02*
X164785000Y-77710000D01*
X164785000Y-77710000D02*
X168205000Y-77710000D01*
X168205000Y-77710000D02*
X168285000Y-77390000D01*
X168285000Y-77390000D02*
X168205000Y-77070000D01*
X168205000Y-77070000D02*
X164785000Y-77070000D01*
X164785000Y-77070000D02*
X164785000Y-77390000D01*
X163785000Y-76220000D02*
X163785000Y-76060000D01*
X164785000Y-74890000D02*
X164785000Y-75210000D01*
X164785000Y-75210000D02*
X168205000Y-75210000D01*
X168205000Y-75210000D02*
X168285000Y-74890000D01*
X168285000Y-74890000D02*
X168205000Y-74570000D01*
X168205000Y-74570000D02*
X164785000Y-74570000D01*
X164785000Y-74570000D02*
X164785000Y-74890000D01*
X163785000Y-73720000D02*
X163785000Y-73560000D01*
X164785000Y-72390000D02*
X164785000Y-72710000D01*
X164785000Y-72710000D02*
X168205000Y-72710000D01*
X168205000Y-72710000D02*
X168285000Y-72390000D01*
X168285000Y-72390000D02*
X168205000Y-72070000D01*
X168205000Y-72070000D02*
X164785000Y-72070000D01*
X164785000Y-72070000D02*
X164785000Y-72390000D01*
X161695000Y-99890000D02*
X161095000Y-100190000D01*
X161095000Y-100190000D02*
X161095000Y-99590000D01*
X161095000Y-99590000D02*
X161695000Y-99890000D01*
D11*
X171642619Y-86473333D02*
X170928333Y-86473333D01*
X170785476Y-86520952D01*
X170690238Y-86616190D01*
X170642619Y-86759047D01*
X170642619Y-86854285D01*
X171547380Y-86044761D02*
X171595000Y-85997142D01*
X171642619Y-85901904D01*
X171642619Y-85663809D01*
X171595000Y-85568571D01*
X171547380Y-85520952D01*
X171452142Y-85473333D01*
X171356904Y-85473333D01*
X171214047Y-85520952D01*
X170642619Y-86092380D01*
X170642619Y-85473333D01*
M02*
