M48
; DRILL file {KiCad 5.1.4-3.fc30} date Wed 27 Nov 2019 06:45:17 PM PST
; FORMAT={-:-/ absolute / inch / decimal}
; #@! TF.CreationDate,2019-11-27T18:45:17-08:00
; #@! TF.GenerationSoftware,Kicad,Pcbnew,5.1.4-3.fc30
; #@! TF.FileFunction,Plated,1,2,PTH
FMAT,2
INCH
T1C0.0157
T2C0.0315
T3C0.0374
%
G90
G05
T1
X4.0Y-3.6215
X4.1786Y-3.425
X4.225Y-3.425
X4.225Y-3.825
X4.275Y-2.925
X4.275Y-3.275
X4.825Y-3.175
X4.8465Y-3.375
X4.85Y-3.7
X4.9327Y-3.6423
X5.375Y-3.4
X5.55Y-3.4
X6.075Y-3.625
X6.075Y-3.675
T2
X5.025Y-3.025
X5.425Y-3.025
X5.65Y-3.025
X6.05Y-3.025
X4.375Y-2.775
X4.775Y-2.775
X5.025Y-3.275
X5.425Y-3.275
X4.375Y-3.525
X4.775Y-3.525
X3.65Y-3.025
X4.05Y-3.025
X5.65Y-3.525
X6.05Y-3.525
X4.375Y-4.025
X4.775Y-4.025
X4.375Y-3.275
X4.775Y-3.275
X5.025Y-3.775
X5.425Y-3.775
X5.025Y-4.025
X5.425Y-4.025
X4.375Y-3.025
X4.775Y-3.025
X5.025Y-2.775
X5.425Y-2.775
X5.65Y-4.025
X6.05Y-4.025
X3.65Y-4.025
X4.05Y-4.025
X3.65Y-3.525
X4.05Y-3.525
X5.65Y-3.275
X6.05Y-3.275
X5.65Y-2.775
X6.05Y-2.775
X3.65Y-2.775
X4.05Y-2.775
X3.65Y-3.275
X4.05Y-3.275
X5.65Y-3.775
X6.05Y-3.775
X5.025Y-3.525
X5.425Y-3.525
X4.375Y-3.775
X4.775Y-3.775
X3.65Y-3.775
X4.05Y-3.775
T3
X6.425Y-2.85
X6.425Y-2.9484
X6.425Y-3.0469
X6.425Y-3.1453
X6.425Y-3.2437
X6.425Y-3.3421
X6.425Y-3.4406
X6.425Y-3.539
X6.425Y-3.6374
X6.425Y-3.7358
X6.425Y-3.8343
X6.425Y-3.9327
X3.35Y-2.8189
X3.35Y-2.9173
X3.35Y-3.0157
X3.35Y-3.1142
X3.35Y-3.2126
X3.35Y-3.311
X3.35Y-3.4094
X3.35Y-3.5079
X3.35Y-3.6063
X3.35Y-3.7047
X3.35Y-3.8031
X3.35Y-3.9016
X3.35Y-4.0
T0
M30
